<mxfile host="app.diagrams.net" modified="2022-04-23T14:36:12.821Z" agent="5.0 (Windows NT 10.0; Win64; x64) AppleWebKit/537.36 (KHTML, like Gecko) Chrome/100.0.4896.127 Safari/537.36" etag="WNiT_MNjXM1mciGza39s" version="17.2.4" type="github">
  <diagram id="P_ZQgfLmo8Vr0zp4gTfP" name="第 1 页">
    <mxGraphModel dx="2554" dy="917" grid="1" gridSize="10" guides="1" tooltips="1" connect="1" arrows="1" fold="1" page="1" pageScale="1" pageWidth="827" pageHeight="1169" math="0" shadow="0">
      <root>
        <mxCell id="0" />
        <mxCell id="1" parent="0" />
        <mxCell id="eMn6bjLMBRMUjzYHPhYK-1" value="" style="shape=image;verticalLabelPosition=bottom;labelBackgroundColor=default;verticalAlign=top;aspect=fixed;imageAspect=0;image=data:image/png,iVBORw0KGgoAAAANSUhEUgAAAkUAAANeCAYAAAAcGHotAAAgAElEQVR4nOzde1yUZf7/8Rfng4IKooKHBDVNVDwmamvWumra0VrXzF03t5OmnX4pbpnfMsvTZmZpZbWtq5lW66qB67pWylZSWWwKmWVAigqoeIIBZmDm9wfed4wMCHIa9P18PHoYzD3DxX0NM+/5XIfbw+FwOLiAtLQ0oqKiLnSYiIiIiNurKNd4NkBbRERERNyOQpGIiIgICkUiIiIigEKRiIiICADeF3vHU6dOkZeXh81mowpztUVERETqlYeHBz4+PjRt2pTmzZtf8PhqhyKbzUZ2djY+Pj60bNkSPz8/PDw8LqqxIiIiInXB4XDgcDiwWq2cPn2azMxMWrdujY+PT4X3qVYocjgcZGdnExQURGBgIMXFxRQUFNS44SIiIiK1zdPTEy8vL8LCwjhz5gzZ2dm0bdu2wuOrFYpOnTqFv78//v7+2Gy2GjdWREREpK7Y7Xbzv+DgYIqKijh16lSFx1dronV+fj5NmjShpKSkxg0VERERqQ8lJSWUlJTQrFkz8vPzKzyuWqHIZrNp/pCIiIg0OiUlJfj5+VU60lWtUORwOLDb7TVumIiIiEh9stvteHh4VLpiXvsUiYiIiKBQJCIiIgIoFImIiIgACkUiIiIigEKRiIiICKBQJCIiIgIoFImIiIgACkUiIiIigEKRiIiICKBQJCIiIgIoFImIiIgACkUiIiIigEKRiIiICKBQJCIiIgIoFNWCXBJmDmXo0BWkurp1y0xmbsmt91aJiIhI9VxeoehYAjOHDmXFntp8zF3sTILYWeOJdnHz0Z+TSFqwgIRjNfkhqawYOpShr7qKXSIiIlIbvBu6AaZjCcy8fSFJVT0+No6Ni8YQUo0fkfvVTpIYz6Re1fv5419JZKqr+5iPGUvcANctiZ7yKuPfncLCxQkMqmZ7TXt2so5Y4u5wFbtERESkNrhPKAobw6LEMVU4MJUVQ6ewztVNe1YwdFoGcf9YxJiwMvd4dShT3jW+SmLK0F/ufX7gcfr6XFCqWC67diRBbByDjq5g6O0uW3Xuxy7k1qGuHivWqb25W2Zy6wLX0XDh7UOprDWxszayaPRFxS4REZHLnvuEopras4Kh09ZB7Hg4mgth54eD8byaOPWXIS7j+Jo4N3Q2/pUxhPSCxMSpNXs8U2y5YFe50qCYUUs/XURE5HJ0aYQiI+Dc+SqJUyoeYsrYMpMpCzo6h6MaSP1gYcXDcTWSdMGqkCuxtd0MERGRy0ijD0XGcFNVho46DriWWBayc4+LUHT0Z5KI5drwKv7gYwmserf896o1L+r86pVJlSIREZH61qhD0a5Xh7Lw3conQjsJG8S1sbDws1SmDnG+KTczA+hIxyoGkdIq0fmPX9V5USIiIuJuGm8oSlrIwqTqVlRCGDQsFhbsJNUpFKWybkESsbNmuRxWy8jMhV5lqlB7VjDl3VjG3wnrzq8W1QoNn4mIiNS3xhuKAEhi4QepjKlkHtH5QkYvInE0sGfFue/kkjBzCuti49h4/vBb2Bgm3bmQKQtuZegCKB3WmsTP09YRO2sj41ngvAqu1rYV0PCZiIhIfWu8oSg2jo2LBrFr5q0MHYrrSdZOIWWd01J802frWEjFex5FT0kkcUrZx0xlxZ1xzBodAlvOO1jDZyIiIo1WIwxF4VxhjhOFMGZRImMo3YuoXDg6F1JK9ymqYEn+kKnOoedCwqKZeu7x6+7iHRo+ExERqW+NMBS5VlrRySVh5q0MHepiVVfsFbBlJkNdLcmvyrDXBZb71y4Nn4mIiNS3RhiKQugYCbz7M0fhvCGvXypHroSPnsT4BVNcL8mnoh2hS4NW1ao2ley27YqLoGXOeTrfsQRm3v4zk1wu4Y9mamJiVX+qiIiIuNAoLwgbPWQ8sI6dFVzYNXfLTIbOTDg3vJVLRrp5T669E9atSajDoS9Kw05iYiX/bSTOxVhX6RDgClKhdHivzMVrc49Cx9h1TBk6lJlbXLU+lRVDZ9bwwrMiIiKXr0YZiuh1LeOBdZ+5vmr80Z+TIGknu44BHOXnJCCyIyGcC1RJO9mVWX/NrRJjM8g7r3VZxQrpNYapixLZOCuWpAXrMH5zMwDuAe4snYs09FXX50VEREQq1jhD0bmKD++uclEZOVcZir2WQWHAsQwygNgrzm1V3WsqiYmLGNOuPtt7YaWbQcYSd0fl85ZCRi8i0RxCO3dBWoBe0UydkkjiK+Ph3SlmhUlERESqppGGIoie8irjSWLh7Stwqoucu0irURkyL98xwI2vHn+uShQ7a9Yvk6vDryCWcxtHVni/0t81dtigX+ZW9ZpKYmIVd/gWERERUyOcaG2IZuo/4si4feG5/YdiiXvlWnZOK11FNn5INJBLwpp1EBtXWjUqJ5YrylzrLMncpNGFyGo07d0pDK3KTtfGY7ra3yhsDLNm7eTWytoEpfs1XeCabyIiInJhjTgUcd4+REksnFY6lBQ7a+O5SknpfKLxr5zbmPH8pfd3vlpamTk3BFfz1We/PG7ly/er9pgVrkQTERGRWufhcDgcFzooLS2NqKgo0tLSaNOmTX20S0RERKRWBQYGkpaWBkBUVFS52xvtnCIRERGR2qRQJCIiIoJCkYiIiAigUCQiIiICKBSJiIiIAApFIiIiIoBCkYiIiAigUCQiIiICKBSJiIiIAApFIiIiIoBCkYiIiAigUCQiIiICKBSJiIiIAApFIiIiIoBCkYiIiAigUCQiIiICKBSJiIiIAApFIiIiIoBCkYiIiAigUCQiIiICgHd175CVlVUX7RARERGpU1FRUZXeXu1QdKEHFBEREWmMNHwmIiIigkKRiIiICKBQJCIiIgIoFImIiIgACkUiIiIigEKRiIiICKBQJCIiIgIoFImIiIgACkUiIiIigEKRiIiICKBQJCIiIgIoFImIiIgACkUiIiIigEKRiIiICADeDd0AERERg8ViIScnh7y8PIqKihq6OW7Ly8uLkpKShm6GW/Pz86Np06a0atWKwMDAKt1HoUhERNzC2bNn+fnnnwkICCAiIoKQkJCGbpLb+vrrr+nXr19DN8Ot5ebmcvLkSdLS0rjiiisICgq64H00fCYiIg3OYrHw888/4+/vT6dOnRSIpMZCQkLo1KkT/v7+/Pzzz1gslgveR6FIREQaXE5ODgEBAXTu3LmhmyKXmM6dOxMQEEBOTs4Fj1UoEhGRBpeXl0eLFi0auhlyiWrRogV5eXkXPE6hSEREGlxRUZGGzKTOhISEVGnivkKRiIiICApFIiIiIoBCkYiIiAigUCQiIiICKBSJiIiIAApFIiIiIoBCkYiIiAiga5+JiIiIC9a9K7jr7r+SXpWDA4cw74OXGNWqrltVt1QpEhGRS0uJlbOnzjr9Zy2p4W2XId+eU3lpwS1EVuVgy2d8f6SuW1T3VCkSEZFLyp43hjH5TavT97rOeJ93fhd50bddriKGP8VLC+DhWZuqVjFq5FQpEhGRS4vVWu5b+7PP1uy2y1hpMKpixaiRUygSERGRSkVcN5Hf9m/oVtQ9hSIRERGpWMkRNs24i0W7G7ohdU+hSERELilBLbvi6/QdX0Z1j6zRbZetkiNsmnEHzyaWH1q8FGmitYiIXFIiJ7zD5xNq9za5PKhSJCIilxYtya85Szqf7T4CXhHcsvgDnhpatobmy5AZ7/DOJTj5WpUiERG5pGhJfg2VHGHT7Lt4NtGP6+e+w6LRpcGIGXfwbCIMmfEOi38XiS+X3nJ9VYpEROTSoiX5NZPxMWsSrcBZPp5zFzO3/FIxenWJEYhKXWrL9VUpEhERuUgrV65k5cqVVTr2vvvu47777qvjFtWCThN5ae4e7przMWeNYERpxWjA0PKHlwYjPz71qtrDu/M5U6VIRETkIlX1TbvRBKJzIkYv4p251xMEQBFFZ4uobP1ZxPCZjOtZtcd253OmSpGIiFxSSpfW7y/zJn7+svvq31YZ4427oupHYwtEhojRi3in6Ro+LhjCuJGR521XUDPues4UikRE5JLSEEvyK3qTb6yByBAxdCIT6+ix3fGcKRSJiMilpcTK2bNFTt/yCwrC16sGt1XB+W/yjSkQWc+epag2th/wDSIosOqHu9s5UygSEZFLSkMuyS/7ht5YAhEntjJj5Gw+q5UHG8dLn89kSDXG2tzpnCkUiYjIpaWBl+Q39Bt7tZUUXfiYyvQcxeSBERz54q9s3XuY46eAVtV7CHc5Z1p9JiIiIoIqRSIiIlITe7fy170N3YjaoUqRiIhcUiq72v3F3iaXB1WKRETkktIQS/IbtVa38NLuWxq6FW5BlSIRERERFIpEREREAIUiEREREUChSERERARQKBIREREBFIpEREREAIUiEREREUChSERERARQKBIREREBFIpEREREAIUiEREREUChSERE3ICfnx+5ubkN3Qy5ROXm5uLn53fB4xSKRESkwTVt2pSTJ082dDPkEnXy5EmaNm16weO866EtIiJSBbntuzR0ExpM8Ll/G1utKOTQjw3dBLmAAwcOUFhYSFRU1AWPVSgSERGRS05ubi4nT56ksLCQK664gsDAwAveR6FIRMTNXM7VB4vFQk5ODnl5eRQVFTV0cyoUeet4AL7++usG+fleXl4N9rMbCz8/P5o2bUpUVFSVAhEoFImIiBsJDAykY8eODd2MCzKG+fr169eg7ZDapYnWIiIiIigUiYiIiAAKRSIiIiKAQpGIiIgIoFAkIiIiAigUiYiIiAAKRSIiIiKAQpGIiIgIoFAkIiIiAigUiYiIiAAKRSIiIiKAQpGIiIgIoFAkIiIiAigUiYiIiADgXd07pKWl1UU7REQue83P/avXWfenvmqcoqKiKr1dlSIRERERLqJSZLhQ2rqcGJ8UdE5qh86ne1F/1J/cc/9Wdq7T0tLUF24gt8z/qz8uHaoUiYiIiKBQJCIiIgIoFImIiIgACkUiIiIigEKRiIiICKBQJCIiIgIoFImIiIgACkUiIiIigEKRiIiICKBQJCIiIgIoFImIiIgACkUiIiIigEIRAA6Hg5KSEhwOBw6Ho6Gb0+jpfLoX9Yd7UX+4H4fDgd1uV39cooz+rQqFIsBms3H27FlsNhseHh4N3ZxGT+fTvag/3Iv6w704HA6sVit5eXkUFxcrGF1iHA4HFouFgoKCKvWtdz20ya3ZbDYKCwuxWCx4epZmRF9f3wZuVePlDufT+CTu7f3L09tqtfLdd99htVpp2rQpXbt2xcvLy7y9uLgYLy+vWn2TKikpIT8/H7vdjr+/P/7+/rX22FXV0P1RUlLCv//9bw4dOoSHhwejRo2iQ4cO5Y7LyckhPj4em81GWFgYY8aMwc/Pr8LHTUtLo1mzZoSGhtZl82tdQ/dHVeXn5/P9999TUlJCly5daNGiRYXHlpSUkJ6eTl5eHr1793a6LS8vj3/961+Eh4fTrl07OnbsWNdNrxaHw4HNZqOgoICCggKzT3x8fOq9LWfOnCE1NZWYmBgCAwOdbisqKuKHH36gbdu2NG/e3GxnfTly5AiZmZl4eXnRrVs3mjRp4vK4n376iRMnTlzwuPpSUlJi9i+At7d3pa8rcBmHIqN0XVRUREFBAYWFhXh5eeHp6YmPj48+wVWTO53Pr776ihdffJGHHnqI2NhYPDw8sFgsLF26lJSUFEaNGsXs2bPNUJSWlsa8efO44YYbGDt2rPl9i8XCxo0bOXv27AV/ZkREBKNGjXJ6MT148CAPPfQQR48eZc6cOdx888118wu74C798e233/KXv/yFM2fOMHbsWNq0aeOyrfHx8axYsQKAOXPmVPrCZbFYeO2110hMTGTUqFE89thj5OXlkZmZWaU2tWvXjoiIiIv7hS5SQ/dHYWEhhYWF5Obmkp2dTVpaGocOHeK7777j0UcfpU+fPk7H5+Tk8PTTT3P06FFWrlxZYSjKyMjg0Ucf5dChQwwYMICFCxcSHBxs3r5nzx5eeOEFAJYsWeKWoaioqMg8P97e3maf1Kf169fz4osvUlxczIwZMxg3bpz5nHA4HLz77ru88sorANx0003ExcWV+5BltVp55ZVX+Pbbb2vUlpiYGKZNm+YU1nfv3s3cuXMJDw9n2bJlREZGAqV/i8XFxTRp0gQvLy+2bNnCqlWryh3XEIwPx0bgBYWiSjkcDoqLiyksLKSoqMgsoXp5eeHv71/rVYNLnbucz5ycHF577TV+/PFHHn30UX7/+99zzz33VNjmL7/8kjlz5nDixAkOHDhAVFQU/fr1A0pfZLZt20ZKSsoFf+6oUaPo1KkTcXFxF3wjqQ/u0B/Hjx/ntdde48yZMwAkJSVx7733Oh0TExPDyJEj+ec//wmUvmitXbuWf/zjH07HzZgxgx49egBw4MABkpKSKC4u5qqrriIoKIgdO3Ywd+7cKrWrvgMqNGx/FBQU8Oyzz7Jt2zaXtycnJ5cLRVUVERFBnz59OHToEMnJyaSkpDB48GCgNIht2bKF4uJiQkJCSEpKYu/evS4fJygoiFtvvbVchaQu2e12s3Jn9IkRjHx9fev1PWDYsGFs3ryZ/fv38/rrr9OlSxf69u0LlPbP3//+dwD69u3Lgw8+6LLqbLfbyc3NJTU1tUZtad++fZXm31itVhYuXEhCQgK33XYbM2fOrNHPrW1G/xrBzfhw3Lx580rvV++haP/+/UyfPp1mzZrx0ksvERERwauvvspbb73F3LlzGT16dL20o6SkxPxjKCkpAUqHUKxWK4WFhfj7+zsNv9SF9PR0s5IwadIkpk+fDsDmzZsrfIH39fUlOjqa3/zmN9x0000EBATUaRuryh3OJ0CrVq1YuHAhCxYsYOfOnbz99tucOnWq3JsxwH/+8x+efvpprFYroaGhzJ0713whAvD09CQiIgKbzUZ6ejpWq5WIiAhatGhBfn4+GRkZeHt707FjR0JCQuq9pF2Zhu4Pi8XCyy+/zDfffGN+78iRIxw5csTpuKCgIN566y2OHj1qtvHAgQPlHs9qtZr/bty4EYvFQt++fRk+fHij+PDSkP0REBBAeHh4ue937NiR6OhowsLCsNls1aqO2O128vLysNvtXH311WzevJnevXtjs9k4deoUvr6+pKSkkJiYCEBubi5r166t8PF69OjB6NGj6zUUlZSUUFRUhNVqNSdZFxcXU1RUhK+vrxlW65LFYsFqteLn58fYsWOZP38+3bt3B+DUqVOcOXPG/GARFhbGAw88gLe3N6dOnap0SL5Dhw5MmzaNpk2bVqkdVquVNWvWsHv37kqPO336NF9++SVt2rTBZrOZ1dnw8PAGGXKsjBF4rVarWak1XkcqU++hKDMzk9zcXHr27Enz5s0pKCjg0KFDBAYGupxrUFeKi4spKCiguLjYTMVGsiwoKMDLy8stq0VWq5Xk5GSSk5NJSEhg7ty5XHHFFQ3dLLc6n2FhYcydO5fly5dz4MAB7r//fpdvOAMHDmTYsGGcPHmSp556qtyQSnBwMM8//zynTp3ikUceISUlhXvuuYebb76Zb775hvvuu4+wsDDmz59PZGQk6enpdf67VVVD9ofdbmfdunUkJCQAMHnyZEaNGsXKlSv59ttvee6554iKigLg3//+N4sXLwZg3LhxDBs2jEWLFpGVlcWcOXO4+uqrAcy5Cd9//z3bt2/H29ubcePG4ePjw4YNG4iNjWXDhg08+eST7Nu3j/Hjx5sVQqvVytKlS9m2bRvBwcENUtKvan/Uldtvv53bbruN3Nxc/vznP5Odnc0TTzxhfggw5owYsrKyKCoqAkrPeXFxsXlbaGgooaGh5t+EYffu3eab6pgxYzhx4gQWi6XOfqeaMqoINpvNZZ/4+PjUeSh66623WLVqldP3kpKSSEpKKnfssWPHuO+++8yvK6t4ZmVl8dZbb1U5aDscjnLDzyUlJezfvx8vLy/z/FgsFhYvXsxf//pX7rvvPk6cOAFASkoKr7/+OsnJyUBpeHrvvfecqjIDBw4sN+esLhnDomWrXsYHksrUeyj64YcfgNIkGxAQwLFjx8jIyKBjx471Ns5vs9mwWq1On9oMxic6X19fvL293S79lpWamsqCBQt47rnnCAkJabB2uMP5LCwsZN68eWzdurXcbaNGjXL6euvWreWOK/viYsw5aoiJ0bWhofvD09OTMWPGkJSURHh4OH/84x8B8PPz49ixY7z77rtMmzaNjz/+mDNnztC5c2dCQkKYPHkygYGBREdHk5GRwZo1a+jRo4f5umCxWFi3bh0Wi4URI0YwePBgtm/fzvPPP0+rVq2YOXOm+Sbm5+dnviDv2bOHTz/9FIDhw4fTtWvXWv+dK1Od/qgrxjm02WwuK5rGnBFXlixZ4vT1pEmT+P3vf1/pzzMCMcBjjz2Gt7c3ERER9O7du8rVi7pStiJkVBHKMoY5/f398fT0rJcKd22zWq3s37+/Ro9hs9lYu3Ytdrudnj17AqXD297e3rRu3dopSCUmJppVQSj9W33//fedHi88PLxeQpHdbjersGXDfFXVa28bVSGALl264OHhQU5ODpmZmVx33XX18sdiTKwrKiqqcPmlzWajqKjIfAI0ZLXo/E8DZ8+eNScSHz16lK+++oqPPvqI3/72tw3SvsZ2PqvD+PScl5dnzotJT0/nyy+/NId4ioqK2Lt3L8eOHavzT5VV4S790bp1a1588UUAc0hk6tSptGvXjnHjxpGbm8uGDRvMoeOpU6ea52/69Ol06tSJG2+80Qz7DoeD7du38/HHH+Pv78/o0aPJyspi/fr1AHTv3p3OnTubPz8jIwOLxYKfnx//+c9/sFgsBAYGcuONN9braq/q9kddKLtg4NSpU5w+fRqADz/8kK+++oqIiIgqDSuUFRwczLJly/jXv/7F4sWLueqqq3juuefMSdaff/45L730El26dKF58+bMnTuXJk2asHDhQqd+MjRp0qTePoDa7XYzEBn7RZ1/uxGM6rPCvWTJEnr16lXpMWUrq5U5vz/Kys/Pr7C/z549S/PmzfHz8yMvL4+TJ0/SokUL8/cPCwvj+eefx8PDg507d1bht6pfxuRqY9jMLUNR2aGHsubMmcOcOXPMrxMSEkhISGDlypVO8zpqk3HCjLKaqxco43vGi1R9jCtXR1BQENdffz0BAQHExcVhsVhISkpizJgx9ToeD+51Pn18fJgwYUK5cnJ+fj6rV69mz549Tt9v1qwZEyZM4Kqrrir3ZtS0aVN8fHxcfnpevXo1q1evNr/Ozc01j3n88cdr81eqNnfqDyidP1i23G94/fXXnb5etWpVuSEEgGXLltGjRw+WLl1KkyZN2Lt3L8XFxRQXF/PII4+YxwUHBzNp0iRsNptZzt+7dy+HDh0iICCA//73v0BpBWDhwoV4e3u7XGFT2y6mP+pCRQsGPvzwQ6C0MmpMYjfO98mTJ835jitXrqR79+5OlVhPT0+Cg4PJzc0FSuc6Nm/e3HwTHj16NN26dePYsWO8//77FBcXc/r0aR544AGXbazL1/2yyq5IKioqqnBCsd1uNydd+/v743A46jwYNW3a9IKTgKs6h9TLy4ukpCQWLVpU7XbExcXRoUMHc0uRK6+80um9pWnTprRs2ZLvvvsOgBtvvJFp06bh7e3Nm2++ybp162jdujXz5893mhJTX5V3o902m+2i7t/46oI1UHZiXUlJSaVPcqO8WlRUhJ+fn1sFIyhdtTNgwAB27tzJwYMHOXXqVL2HInc6n15eXuYERSjdH+Xjjz/m7bffNquTZZ0+fZpXX32V1q1bc8sttzBmzBgiIiIaTRXLFXfqj9rm4+PDgAEDzFVqZd155510796dgwcPmt/Lzc3ls88+47rrrjOHrMoOKVR1hU1NXEx/VL5Y2P0Yn8TPnj3L6tWrzWBnbFGxb98+c+jSHZSUlGC1WqvUJ0YFr6ioqF7mF9W2mJgYpk6dWi4c7N+/n8TExAonYwcHB2O32zlz5ow5af586enp5krCrl270rJlSwBzubunpydBQUEXDHm1zegzm8120UG2zkNR8+bN+dvf/gbAli1bmDNnDiNGjOCpp56iuLiYWbNmcfjwYZYtW1bnE609PDzw8PAwl1teiDsP9QQEBJjny1jVUt/c7XxmZ2fzxRdfsHPnTnbt2mWWiIODg5k4cSLbtm3jwIED9O/fn759+7Jp0yays7NZuXIlK1eupHPnzkyYMIHrr7+epk2bcvPNNzNq1CgWLFjA5s2bGThwIAsWLCAoKMicaH3+fhzjx4832/Pdd9/Va7+4W3/07NmT7du3u7zt4MGD5oTfspOiz+fp6Wm+aA8aNIhVq1bh6+vLvHnzSE1NZcCAAdx+++14eXmRn59vDg1B6X5VAwYMMFcHFhUVkZGRYW7UWderBS+mP+qCMdRlt9v56KOPmD9/PvDLcI2XlxeffPJJjX5GWloaaWlp5tejRo0iKiqKt956i+LiYsaNG8dvf/tb5syZw759+5gxYwYjR440j6/PTf48PT3N1X4Xev4bQ3r18T5gDGdWpjrzhEJCQggLCyu34tNQUFDA3r17y1VwRo0ahaenJ8XFxdhsNtq2bVvuvmFhYcTGxrJ37956qfBVh9G/F6veKkUOh4Mff/wRKP2UFhAQwMGDBzl8+DBt27atlz1dvLy8CAwMrPeKSl3w8PBo8CXg7nY+T548yauvvsqxY8eA0jeZoUOH8vDDD9OkSRNzImDLli35wx/+wKRJk/j88895/fXXOXDgAAcOHDCHwoxhuK+//tp8Yx84cCBBQUGVtiElJYWpU6eWW3VTH5M13aU/bDYbW7durfDFGEqH1Y1NMb/77jtzblBFjJUr3bp148033yQ1NZXg4GDuvfdec96RxWJxOu/JycmcPn2al19+GSidcD1t2jSKi4vp1q1bnc8tupj+yK2DdhhDXRaLhS+++ML8fk5ODsePH3c5x6e6goODadeuHdnZ2eYQZii1ulcAACAASURBVFFRkbnj+Lhx4/D09DT7PCAgoN6rCPDLROGG/htxxRjOrC0lJSV88cUXbN26ldDQUHPj1JMnTwK/LK/39vZ2+sAwYMAArrjiCpo1a8Ydd9xB+/bty1Xbw8PDmTdvHgcOHKBFixacOnUKwPwQaLfbzTlshvqYN+br64uvr+8FX6crU2+hqKCgwCxvX3nllUDpssHMzEyGDBlSL09So3RqLI29EC8vLwICAtxyeKE6F7irK+52Prt06cKIESP48MMPue222xg7dqw5JGa1WnnkkUfMy3wY5fDrrruOa6+9lu+//56VK1eSm5vLoEGDgNLnbEJCAhaLha5duzp9sjUcO3aMP//5z0RFRTFr1iyCg4MJCQlxenPu27evubS8LrlLf5R9Ma6KPXv2lJvzdb7w8HBiYmJISEjg7bffxtvbm4ceeojOnTuTmZlJkyZNOHz4MFA6ybRr165s3LiRjRs30rt3b5o0acLu3bvNCdfGapq6dDH9UZf1iJSUFKel3gsWLCA0NJRnn33W/F52djarVq2isLDQaUL2rl27zJXDrgwePJjZs2fzxhtvsGrVKux2O+3bt+e5554jMzOT5s2bc/DgQXMop6CgwOkN09PT09wVuS4Zq5KMPqlKpSggIKDRDZ9FREQ47dz8m9/8xqzGGpO1O3XqZE7GLlu5NYSGhnL33XcDuJyCkJKS4nLOIJQ+jyZPnuz0vfqYN2ZMkK9sK4hWrVpV+hgNMtE6Li7O6Zj169ebnxTr+sSV3da9sovDeXh4mJtjueMFAsuGTH9//wtuXV5X3OV82mw28vPzmThxIn/4wx/MFzDjhf3MmTO88MIL7Nu3j3HjxhEeHu70ghgREcH//d//YbVa8fHxwWazERAQwFNPPUWHDh3o3bs3rVu3No/v2bOn0744/v7+2O122rRpY24ICaWTErt06VJvK2vcoT+8vLwYOHAg7du3r/J9iouL2blzJ2lpaYSFhTFq1CinEniHDh1ITk5m6dKlZsCYN28e8+bNo3Xr1ixdutRcEdiqVSvGjBnDZ599xqeffkpSUhLdunUjPj4eKO27+trbq7r9UVd/xWfOnOHvf/+705uFsbfWrFmzzKXSx44dc1pIABVXMKxWK8ePHwdKh1PKvgbl5+czb948PvvsM5f3Xbx4sdMqqvq8LETZFYGV9YkxDFOXE4SnT59ubtpbtn2JiYk888wzjB49mqlTp1a7aODp6en0+rZu3TrWrVvndMy+ffsYO3bsxTfeDdntdnOSvKuVheAGocideHl54efnh5+fn/mJoSLGVu/uWCWC0jkZxuz/Dh06NEgp2p3O5969eyv81HK+9957j/fee6/SY4xw7uHhQV5eHsuXL2f58uVOxxQXF5sbNv7www88+OCDLofJ2rZta1aR6pK79IePjw8jR440L8BbFVarlb1795KWlkZAQAA9e/Y05xIZF/Ddt2+fy4qLp6cnFouFjIwMANq0aUN0dDTDhw/n3XffZc2aNbRr1878EHHLLbfUqLxeVRfTH3XB4XCwYcOGchsCPvTQQ3z00Ue0bduW0NBQp31mqqKoqMgMRb6+vhQXF5tbV7Ru3Zq8vLza+QVqkZeXlznEYlTyKmJcJ8vPz69O5hQlJibi5+dH7969+e9//8vq1asJDg522sNr3bp1FBQU8P/+3/9zCkZ5eXl8/fXXdOnSxWkPKmNoDEr7xNWK3F27drF69eoKJ1pXNZhGRkaa1ys0bNy4kW3bthESEsK0adOcrnVYH4HXx8cHh8OBr6+vuQ1GddXbROt3332XF154wbxGSkFBAY8++ihnzpwxL/dRHzw9Pc0XKaOUe36aND+1nXvDcKfJ1jabjeTkZJYvX27OnYmNjW2wMfLGfj4vpKrXE6psszQPD496G+p0l/4oewHe6jp48KDTdZSMzTTbtm3LwIEDCQ0NJSoqiqioKNq1a2cOnRlzFrt27Yqvry+33norO3bsICUlxWxHbGwssbGxtfNLVkF1+6N6uwVVTWZmJps3bwZKd5r+5ptvOHr0KE2aNOGpp57Cw8PDrKJVdUk+lK44y8nJAUqDv7HUHUqD7PTp081+tFgsPP/882YwM3aCNy4Qawyf1TUPDw/zenPGFdRdVROMfjMCUW3/jVgsFuLj4/n4448ZOHAgAwcOJDU1lfDwcHx9fc3RlISEBDZt2kRkZCQTJkzA09OT77//noceeojc3FymTp3K3XffjYeHBzabzZyz1bp1a5e7ZZd1/t+ZoapVuxYtWpSbFmDMWfPz86Nnz54Nsnu8l5cXTZo0wW63V1gtqky9VIpsNpu5MiEqKgofHx8OHTpEVlYWMTEx9XrhTGM1iLEE9vzlih4eHnX+CaE65s6dW+mFLgcMGMCvf/3remyRM3c5n5WtdPryyy+ZO3cuhYWFdOzYkczMTLy9vZk2bRojR4502SbjBdrT05OQkBCio6PLHWNUiqxWK76+vkRGRrqsFEVERNTbpHh36Q/junHGUIUxidO4Vtz5w73G7rhnzpwpdy6N68q1aNGi3MZ1xjb+n3/+Obm5uYSEhJg7VkdGRnLdddeZ19wKDAzkrrvuqvOKXVnV7Y+6CEVhYWF0796dli1bmqHIYFQJ+/fvz4oVK/D19SUwMNCp4gDO+4AZk6fT0tJIT0/H29u73MphDw8Pp2pcSkqK03W1jh07xj//+U/i4uLq/QOdh4eHGVSNXcbLfmgxdrH29/fH19e3Tv5GDh06xP/+9z8A+vXrV67SHxgYyPTp08nJyWHw4MHceeedbN26leLiYn71q1/Ru3dvPv74Y3bs2MFNN91EWFgYx44dIysrC4B27dqZu00bk+CN3+PkyZMcOXKk3N+Z8XfamBkLkPz9/SksLMRms1W7WlQvoaigoMAMRZ06dQJKdwvOzs42V6LVJ6NUbcwDKXvSjJK3r6+vW1/iAyA6OppZs2Y16CU+wD3Op4+PT7kXFqvVytatW1m6dCmFhYV06NCBuXPnsn79ehISEli6dCkHDx7knnvuqfAc+vr68thjj7m8rex8uSuvvJKlS5c2yDDm+dyhP4zrxkHphOPXXnuNt99+m+LiYq677jruuecep2G7spdpcXUujdWr6enp7N+/n9TUVNLT0zlx4gTDhw83NxHs3bs37du3x2q1snnzZj744APzMSwWC1u3bqVr1671+jfT0P3h7+9Pz549CQ0NJSwszOUxERERlVbrz98HrKSkxFw+3r59e1q1alXh4o+UlBSWLFlCcXExffv2ZeTIkSxevJiEhARsNhtxcXE0a9ashr9l1Xl4eODj44Ofnx/+/v7lJuWW7ZO6WDXqcDj47LPPyM3NJSwsjF/96lfs27ev3HEtW7bkpZdewtvbG4fDQWpqKuvXr+eqq65iwIABQOnKzeTkZEaMGMH+/fvNv4O2bduaociYBG/MjTIuOH7llVcyd+5cVq1aRXh4ONdffz0PP/xwrf++9c2YT2UEX7cMRcePHycrK4t27dqZY4zGSgZjJVp9Mv4oAgICzIsB2u128xNCQECA217vxtfXl+joaG666SZ+85vf1HugdMWdzqfdbicrK4tt27bx/vvvm6spgoODmTVrFt27d+fhhx8mLy+PnTt38t5777F161Zuu+02brjhBiIjI8036/Mvknm+spf/OHPmDN98802ll6oJDQ01PxTUJXfqDyh9kxk3bhzffPMN3377LevXr6dfv3507dqVkpISfHx8OHHiRKUX1LXb7WzcuNHl0v2yFcJrrrmGkydP8uKLL7Jjxw7gl2XYhYWFJCQksGfPHh5++GEGDx5cL5f8cIf+GDlyJP7+/hw9erRWHi87O5vPP/8cKJ0i8dNPP2GxWMwN/dq1a4fdbicxMZH58+dz4sQJ8yK+Q4cOZf/+/WzYsIFt27Zx+PBh4uLiuOqqq+q1Mu/j44O/v7/ZJw6HA09PT3x8fAgMDKyzPjl+/Lj53OzZsydt27Y1Q9GxY8fYt29fudGTffv2sWvXLqB0ovCIESPYsWMHBw8eJDExkf79+5ubZEZGRtKuXTun7RfefvttkpKSnOZBpqSkmBOtr732WgYOHFjl3yElJcXl5UaMSpWxKrdsRbi+5lbCL9VAYwNVI6xX5flVL6+MUVFRThcIhNIrZ5+/ZK8+GePKxix1q9VqfkKor0t7REZGulzZcfPNN1d49WN31dDnMzMzk/nz55OcnFxu8mSfPn147LHHuOqqq4DS4Zi5c+eyfPly3nvvPc6cOWNeasLb25tu3boxc+ZMp32LLqSi8fmyJk2aVG6lSV1p6P44X1hYGHfffTdPPPEEEydOpGfPnvz1r3/lrbfeqtL9vby8nPbTMT4cREZGsn37ds6cOUPfvn3Jzs7m9ttvNz8d+vr68vjjjxMTE8PcuXNJTU3l0KFDLFy4kBdffJFu3brVye/rqv0N2R+1XcE0hinT09Pp1KkTy5YtM99svb29adq0Kc8++6zT69vdd9/Nddddh5eXF/fddx8ZGRl88803pKam8vLLL9f7ha2NYRZjCM0Y3jX6pK6GvD09PRkwYACZmZkMHz6cwMBAc7i+uLjY6fJXrsTGxhIVFUXv3r0JDQ3l+uuvJycnx5w317t373IVwWbNmpnzIoODg+ncuTNt2rShU6dO/O9//6OoqIgTJ06YO9xfiNVqrXSeZXFxsbka1FCfcyvhlwqtr6+veeHfqnwIcs9ySD1wNeHO+GNw552s3VVDn0/jCsxlPx117tyZBx54wGVFoEmTJjz++OMMHTqU1157zXxBKS4uZtiwYVx11VXl/qgbk4buD1cGDRpEQkKCOdekomXxMTExLleHxcbG8uabbxIVFUVQUBAeHh44HA569OjBokWLGDduHIMHDyY9PZ1t27bRvn17nnrqKfr06YOHhwd/+ctfeOGFF9ixYwdTpkwx5x7VB3fsj5rw9/fnd7/7Henp6dx8880cOnTIDEUjR45kyJAhtGzZkt27d3P06FH+9Kc/cffdd5vhr2XLljz99NM89dRT/Pjjj/zhD3+o92kAxnwuo0/sdrtTSK2rPgkNDWX69Oncc889ZvDq06cPgwcPNqtvFRkzZgxjxozB19eXJ554wmynw+Fg3LhxvPbaa1x33XXlhmJHjx7NTTfdRNOmTZ1+L2O/qO+++44lS5aQm5tLZGRkg23xUpu8vLzMqp9xqZ+qzF+7bEMR/DIJ0pilbmxk19A7RTdWDXk+vby8+N3vfsfJkydp3749w4YNo02bNpW+sHl6ehIbG8vVV1/NgQMHiI+PJy8vjzvuuAMPDw9GjBjB0KFDa62N9Xl1dnC/57eXl5dT2ImOjubee+91OqZr164MGjTIZeUkPDyc8PBwp+8Z/dSsWTOuueYavLy8+OMf/0iPHj247bbbnIaXw8LCmDt3Lnv37q33oRqjrQ3dH8ZE95CQkEqfj1U5rmvXrjzyyCN07dqVBx98kEmTJplTJDw9PenTpw/PPPMMWVlZjBw5slyfRkREsGTJEj777DP69etXq79nVRj97+fnZw6fBQYG4uPjUy/PjbLPzZCQEF588UV+/PFHc0j+fGXPLTjvku/h4cG4ceMIDg429/lr1qwZ0dHRhISEEBgY6LIfAwICCA8P57vvvqNFixZEREQwadKkcn9ngYGBREdHExwcjLe3N3379nWaOO+ujA1qjcpxVaabeDiqsF4tLS2NqKgop2vbREVF1aCp7sVqtZo73V7MG1fZlXWi8+lu1B/upbL+yG3fBYCQQz9WeH/j9Vhqh8PhwGq1UlRURGBgYJWrREZfndr5b/WHG3M4HOZk+sDAQDw8PCp9TbusK0VQesJ8fHwICgpShagW6Hy6F/WHe1F/uB9jIrxRIWpsQ5lSOQ8PDwICAqrct5d9KDJOkjvuWt0Y6Xy6F/WHe1F/uCcF1EtbdfpXzwQRERERFIpEREREAIUiEREREUChSERERARQKBIREREBFIpEREREAIUiEREREUChSERERARQKBIREREBFIpEREREAIUiEREREUChSERERARQKBIREREBwPti75iWllab7bgk6JzULp1P96L+qHvNz/17oXOtvmh4zcv8v/qj8YiKiqr0dlWKRERERFAoEhEREQFqMHzWrl272mxHo5aZmQnonNQWnU/3ov6oP3nn/q3sXGdmZqov3EBemf9Xf1w6VCkSERERQaFIREREBFAoEhEREQEUikREREQAhSIRERERQKFIREREBFAoEhEREQEUikREREQAhSIRERERQKFIREREBFAoEhEREQEUikREREQAhSIRERERQKFIREREBFAoEhEREQEUikREREQAhSIREbkI8fHxjB07loyMDPN7p06d4t5772XFihVOX8fHx9foZ2VkZDB27Fji4+OJj4/n6aefprCwsEaPKeKKQpGIiFRLYWEhu3fvplevXrRp06bSY+fNm8emTZvKBSgoDVaDBw92+V/Z47ds2UKvXr0YPnw4w4cPB2DBggUKRlLrvBu6ATVRWFjICy+8QIsWLZg6dWpDN+eiffLJJzz55JMub2vTpg1LliyhY8eOLm8vKSnhjTfeYNu2bRUed+TIEV577TUSExOx2+3ExMQwadIk+vXrh4eHh9OxNpuNHTt28O677/L9998TFBREbGws999/PxEREeUee9WqVbz++usu2xYdHc3ixYtp3rz5hU5Bo1ZYWMiCBQvYtm1bhcdEREQwYMAAxo0bR2RkZD22TgwlJSWsWrWKgwcPMmvWLPz9/Ru6SY1WVlYWe/bsYfLkyZWeR+Nv/4033iA+Pp7HHnvM6XXqxhtv5MYbbzSPj4+PZ9OmTU6vG8nJyWzfvp0lS5aYP+uRRx5hxowZbN++3en+UjMFBQVs2rSJjRs3cvDgQUJDQ7n55pu5/fbbCQkJueD9v/jiC5588kkeeeSRRtsvjTYU2e12/vOf//Dvf/+b8ePHN3RzauTHH3/E29ubK664Aj8/P6fbgoKC8PauuJu++OIL1q5dS8uWLV3enpyczJw5c7BarYwZMwZfX1927NjBY489RlxcHKNHjzaDkc1m4+WXX+aDDz6gU6dOTJw4kbNnz/Kvf/2LpKQknnvuOfr3728+ttVq5eDBg/j6+tKxY8dy7QwPD8fT8/IpRgYGBjJq1KhyIdBqtbJ79242bdrExx9/zIIFC+jTp08DtfLy5HA42L17N+vXr2fQoEEN3ZxGb8uWLYSGhnLNNddU+T7nB6CqKCwsZNOmTWRlZTFhwoRyt6empvL8888DMGLECIXdGjh58iTPPvssSUlJxMTEcP3113PkyBHeeecdPvroI+bPn1/pB7qcnBxeffVVLBZLPba69jXKUGSz2Vi/fj0rV66kuLi4oZtTI1arlezsbLp3786iRYsIDg6u8n0PHz7M8uXLKzwHeXl5rF+/niZNmrBs2TLzCT1x4kTmzJnD2rVr6d27N23btgUgJSWFjRs3csMNN/D4448TEBAAwNixY4mLi2PDhg1ER0eb3y8sLOTw4cP8+te/Ji4uDl9f35qcikYvODiYO+64w2W1zm63k5CQwOLFi3n//ffp1q2beR6lbhkfoJYsWcLZs2cbujmNXkZGBtu3b+epp56qsArcoUOHKj/eihUryMnJYdasWeVu++tf/8q2bdt44oknzEBlVGYBhaBa9Mknn5CUlMTMmTO5+eabzQ+0u3fv5sknnyQ+Pp6pU6fi5eVV7r42m42//e1v/PDDD/Xd7FrX6ELRkSNHWLZsGZ9//jn9+/dn//79Dd2kGrFYLBw8eJAOHTpU64/bZrPxzjvvEBISQqdOnUhJSSl3THp6Ort37+b3v/+90xt1aGgov//975k5cybJyclmKDp8+DDFxcXccMMNTm/Y7du3p1evXqSmpnL8+HHat28PQG5uLjk5OfTt2/eyD0QX4unpya9+9Ss+/PBDfvzxR6fzKHUnNzeXt99+m02bNtG7d28yMzMbukmNWmFhIX/7298IDQ0lMjKS+Ph4s1JTVtkKjitGVaewsJDk5GT69OlT7vUvPj6eNWvW1PrvIOVZrVYyMzOJiYlhyJAhThX+7t2707t3b/bs2cPZs2ddBuH//ve/7Ny5k4kTJzb6PmtUoaiwsJCVK1eSlJTEY489Ro8ePZg5c2ZDN6tGTp48yfHjx7nmmmuqFSy2b9/Ozp07mTdvHrt27XIZivbt24fFYiE6Orrc3KEOHTrQrl07UlNTGTlyJD4+Pubw16lTp5yOtdvtFBQUEBgY6PTCdfz4cbKysujSpUt1fuXLlp+fH23atOH48eOUlJQ0dHMuC+vWrWPTpk1MmDCBsWPHVjh3T6pm3759bNu2jejoaKD8kFhGRgaPPfYYkydPBkorPZXNiczKyuLEiRPlhjRPnz7Npk2buP/++/n000/r6LcRg6+vLw899JDL2/Lz88nKyqJNmzYu36N+/vlnVq5cye23306vXr0afShqdBM+unTpwtq1a7n11lsrnWvTWJw4cYLs7GwcDgcLFy5k5MiRDB06lOnTp/Pll19it9vL3Sc9PZ1Vq1aZT8KKHD9+nDZt2ricbxQYGEiTJk3Izc3FZrMBMGDAAPr06cObb77Jt99+i91up6ioiH/84x/s2rWLa6+91mmy3ZEjR2jWrBlZWVk88cQTDBs2jGHDhvHEE0+wf/9+HA5HLZyhS0d2djYpKSm0bNnykp987i7Cw8N5/fXXuf/++1XNrKFTp06ZS+0vxKg+X4jxYa5FixZO32/WrBlvvPEGt9xyS/UaKbXGbrdz8OBBXnjhBX7++WduuOEGAgMDnY4pKCjg73//O2FhYdx2220uh9Yam0aVKvz9/bnrrrsauhm1Ki0tDSj9RBUTE8Ptt9/O6dOn2b59O48//jh//OMfmTRpkvlkKygoYM2aNbRp04Y77rijwieh1WrlxIkTFf5cPz8/wsPDOXr0KFarlcDAQEJDQ5k7dy6vvPIKU6ZMMY8NCgpi5syZjBw50vx5JSUl/PTTT5w+fZrXX3+dgQMHMnHiRDIzM9mxYweff/45cXFxjBo1qlyV6nJTUlLCjz/+yPLlyzl+/Dh/+tOfaNasWUM367Jw2223NXQTLgmFhYUsXbqUPn36cMstt7Bp0yaXx508eRIoDTmHDx+u0mO7mkQ9evRooqOjmT17NgDPP/+8y+G4sis+y847kppJTk7mwQcfBEoD6nPPPcfgwYOdjnE4HHz88cckJSWxaNEiWrRoUW7LhcaoUYWiS43dbic/P5/WrVsza9Ysrr76ajNATJo0iWeeeYa1a9fSq1cv+vfvX+5JWNmkbLvdXukQjYeHR7mVYfn5+axevZqPPvqImJgY+vTpYwa0119/nebNmzNkyBA8PDywWq3YbDYiIyN55pln6Ny5s/k4Bw4cYPbs2bzxxhtcddVVFZbOLzUVrZAxhIaGKihKo1RYWEirVq2YPHky27dvr/C4w4cPExoaWuVKaNnhN2PoLTQ01FySbwzla6J1/SooKGDixInk5+ezfft2nnzySR544AF++9vfmh+MMzIyWL16NePHj6d79+4N3OLao1DUgDw9Pbn77ru5++67y93WqlUrczJ0UlIS/fr1Iz09nbfeeqtKT0JPT89KS5kOh8NpaK6kpIR33nmHDRs2MGPGDMaMGWOGJiOgLVq0iMWLF9O1a1cCAgIqnM/VuXNnxo0bx1/+8hf27Nlz2YSi85fknzx5ku3bt+Pp6cmUKVMYNWqUhnCkUWrevPkF94IzNnRs27ZttYOKMYE7KyuL0NDQmjRVaoGxgSbA5MmTmTNnDm+++SadO3emf//+FBQU8Pbbb9OmTRtuueWWS+pDXqObU3Q5MeYDHT9+nNzcXFauXMmVV17JbbfddsEnoa+vb6UvLkVFRRw9epSQkBB8fX3Jzc3ls88+Y9CgQfz61792qiK1atWKBx54AIvFQlJSUpXabiz/v5xW+xhL8u+55x7uueceZsyYwerVq4mKimLJkiV89NFHmmcllyxji47+/ftXOxTt27ePw4cPc//999dR6+RihYaGctddd2GxWPjmm29wOBzEx8fzv//9jylTplRrG5nGQJWiBma32yksLCQgIKDCoOPl5UVubi4//PADWVlZjBgxwuVxEyZMcNoBu127dmRlZXHy5Mly1RqLxUJ+fj6dO3fGx8eH/Px8zp49S2RkpMsNF4OCgggODiY/P9/8XklJCVartdL9di6FyfA10apVKx5//HH+/Oc/s3TpUsLCwpw2wBS5VHz66aecOHGCHj16VHpcfHw8u3fvNoe+jAncU6dOrXAekuYUNazw8HBat25NcXExRUVF5vYsrkY54Jf+aox9cnm/YzWwY8eO8fjjj+Pn58eiRYvKjcMfOHCArKwsOnToQIsWLbj11luxWq3lHuerr77ip59+YtSoUbRq1YqmTZsC0KlTJwIDA9mzZw+9e/d2Cl0ZGRlkZGQwYcIEfHx8aNKkCUFBQZw4cQKr1Vruk97Zs2c5c+aMGXJ++OEHHn30UQYMGFBuXN/hcLBnzx4ALdentGp233338fTTT/PKK6+waNEiWrVq1dDNEqk11bkW2sGDB9mzZw9ZWVl07NiRtWvX0qdPH/r06VNhKNKcorqVk5PDokWL8PX1Zfbs2eVWmf30009kZ2fTsmVLvLy8GDBgAO3atSv3ONnZ2SQkJHDNNddw5ZVXNsq92BSKGlBISAj9+/fn/fff57///a/TPJ4DBw7w5ptv0qFDB4YNG0bLli35wx/+4PJxrFYrx44dK7ebcvv27enRowf/+te/GDJkiDkZ+sSJE7zzzjtERkaal5so25adO3c6teX06dO8//77eHl5MWTIEPOxY2Ji2LVrF99++605SdzhcPDll1+ydu1a+vXrR+/evevs/DUmv/rVr7jxxhvZuHEja9euZfr06ZfE8lUR+GX/ouXLl1cppBiTsePjdE1yFgAAIABJREFU40lOTmbx4sX10EqpSIsWLWjVqhXx8fF88sknTpd/+vnnn80Vz1dffTU+Pj6MGTPG5eMkJyeTkJDA0KFDG12FyKBQ1IC8vLyYMGEC33//PfPnz2fLli306dOHI0eOsGPHDvz8/Jg9e3a1tswvKzg4mIkTJ/Lkk0/y4IMPMnz4cPPaZydOnCAuLs68yKvRlp9++on58+fzz3/+k/79+2OxWNi5cyenT5/mgQceoFu3bgAEBARw7733kpaWxowZM7j66qvp1q0b33//PV9++SURERE88MAD5fYfuVz5+Phw11138e2337JhwwauvvrqcktcRRojY/hr4sSJF7ymX2FhITk5ObRt25bs7Gw2btzI7NmztW9XA/Px8WH8+PH88MMPLFy4kK1bt9KzZ0+n96IZM2ZwxRVXNHRT65xCUQMLDQ1l4cKFbNq0iQ8//JC//e1vBAUFccMNN9TKFdX79+/PK6+8wttvv01CQgJ2u52YmBiefPJJ+vXr5zSkFhoayvz589m0aRNbtmxhzZo1+Pr6MnjwYMaPH0/Pnj2djo+MjGTZsmVs2LCBhIQEPv/8c0JDQ83dgzVE5Kxt27b86U9/4umnn2blypV07txZ50gavbVr1wKU246ibdu25eY0ZmVlsWfPHoYPH07Xrl15880367294lqHDh34y1/+Yr4Xff3117X6XtRYeDiqsBwmLS2NqKgoc6NBwOV44uXKWGGlc1I7dD7di/qj/uR1Kr18RtOfUis8JjMzs0H7Ij4+nk2bNrF48WLWrl3LmjVrWL58ebkqkTH3p+xkaKj8avYrVqwwh9OMfYpmzJhBamrF56Mqj1sXjL46tfPf+ttoRHx9fc0sExUVVe52VYpERKTa0tPT2b59O0888YTLYTN/f3+efvppnn766Uof5/zg88QTT5QbTmuMq5ikcVIoEhGRKiu7C/WGDRtq/HjNmzfnjTfeqPZtInVBmzeKiIiIoFAkIiIiAigUiYiIiAAKRSIiIiKAQpGIiIgIoFAkIiIiAigUiYiIiAAKRSIiIiKAQpGIiIgIoFAkIiIiAigUiYiIiAAKRSIiIiKAQpGIiIgIoFAkIiIiAigUiYiIiAAKRSIiIiKAQpGIiIgIAN4Xe8fMzMzabMclQeekdul8uhf1R91rfu7fC51r9UXDa17m/9UfjUdUVFSlt6tSJCIiIkINKkUXSluXk7S0NEDnpLbofLoX9Uf9yT33b2XnOi0tTX3hBnLL/L/649KhSpGIiIgICkUiIiIigEKRiIiICKBQJCIiIgIoFImIiIgACkUiIiIigEKRiIiICKBQJCIiIgIoFImIiIgACkUiIiIigEKRiIiICKBQJCIiIgIoFImIiIgACkUiIiIigEKRiIiICKBQJCIiIgIoFImIyEXYvHkzN910E+np6eb3Tp06xR//+Edefvllp683b95co5+Vnp7OTTfdxObNm9m8eTOzZ8+msLCwRo8p4opCkYiIVEthYSFffvklMTExhIeHV3rsggUL2LBhQ7kABaXBqn///i7/K3t8fHw8MTExjBgxghEjRgAwb948BSOpdd4N3YDqKigo4J///CcffPABBw8eJDg4mIEDBzJp0iS6du2Kh4dHQzex2j766CPi4uJc3hYeHs6yZcuIjIx0eXtJSQmvvfYaW7durfC4w4cPs3z5cnbs2IHdbqd3795MnjyZAQMGlDtfVquVTz75hDVr1rBv3z6Cg4MZNGgQU6f+f/buP67m+///+I2U1EqcVkqixvyW/Gh+ZJ/NWmPhO4a3tShZ453N29tY5Mcw82PYvJH5vVKYsfxqfuQ3F7JmzO/fFaLSD7WU46Rzvn94n/N29ENoTieP6+XiUs7rdV49z+t1zut1P89fr2Dq1q37xNcSFxdHSEgIo0ePplevXmV49cZPqVQybdo0duzYUeI6jo6OdOjQgQEDBuDq6voCSye0CgsLWblyJdeuXWPChAmYm5sbukhGKyUlhZMnTxIUFFTqfrSxsQEgPDycLVu2MGLECL3zVK9evfTOE1u2bCE6Opp58+bpnnv8+HFiY2OZP3++7m+NHj2akSNHEhsb+9KcZ16Ex6+vCoWC3r17079/f2rXrv3E9SvD9dioQlFGRgahoaEcP34cd3d3vLy8uHXrFnv37uW3335j5syZeHh4GLqYT+3SpUtUq1aNBg0aUL16db1l1tbWVKtW8mGKi4sjMjKSV199tdjlx48fZ9y4cRQUFNCzZ0+qV6/Onj17GDFiBKGhofTs2VP3xlWpVMybN4+ff/6Zhg0b4u/vT25uLjExMcTFxT1x/6alpbFw4ULy8/OfYS8YPwsLC3x8fHQncy2VSkV8fDzR0dHs3r2bOXPm0KZNGwOV8uWk0WiIj49n7dq1dOrUydDFMXoxMTEoFArefPPNMj/n8QBUFkqlkujoaFJSUujXr1+R5WfOnGHq1KkAdOvWTcLuc8jKymLy5MkcOXJE7/q6atUqYmNjmTNnjt4Xusp6PTaaUKTRaIiJieHUqVNMnDiRnj17UrXqw9a/y5cvExISwsKFC5k7d26JAaEiUqlUpKam0rx5c77//nusra3L/Nzk5GTmz5/PgwcPil1+9+5d1qxZg6Wlpd4betCgQYSGhhIVFUWbNm1wcnICHp5goqOj8fHxISQkBAsLCwD69u3LF198wYYNG2jRooXu8cdfx4oVK7h48eLT7oJKo2bNmvTv37/Y2jq1Ws3WrVuZMWMGP/30E02aNCl2P4ryp1ar2blzJ7Nnz+avv/4ydHGMXmJiIrGxsUyZMqXIFwCt+vXrl3l7CxYsIC0tjQkTJhRZtmzZMnbs2MGkSZN0gUpbMwtICCpHe/bs4ciRI4SGhvLBBx/orq/x8fGMHTuWzZs3M2LECExMTCrt9RiMqE9Rbm4uhw4dwt3dnbffflt3AAAaNWpEjx49OHfuHDdu3DBgKZ9efn4+165dw8nJ6ak+3CqVilWrVqFQKHRt7I9LSEggPj6eHj166F2obW1tCQgI4Pr16xw/flz3eHJyMg8ePMDHx0fvgu3s7IybmxuXLl0iIyOj2L918OBB9u/fz6BBg8r8Gl4mVatW5c0336RZs2al7kdRvrKyspgzZw5TpkyhSZMmT+z/IkqnVCpZsWIFCoUCV1fXIn2CvLy8dLU3JfUVateuna6jdHZ2Nn/88Qf29vZFzn9btmwhIiLCQK/05aJSqbhx4wbu7u54enrqXV9btGiBu7s7J0+eJDc3F6i812MwopqinJwcTExMaNiwIZaWlkWW16pVywClen5ZWVmkp6fz5ptvYmZmVubn7dq1i/379zNz5kwOHz7M6dOni6xz9uxZ8vPzadGiRZG23QYNGlCvXj1Onz5N9+7dMTU11TXTZWdn662rVqu5d+8eFhYWxQa3pKQkFi1aRL9+/XBzc2PVqlVlfh0vE3Nzc+rUqUN6ejqFhYWGLs5LYfXq1URHRzNw4ED69u1bYt89UTbnzp1jx44dtGjRAijaJJaYmMiIESMICgoCHtb0lNYnMiUlhczMTDp37qz3eHZ2NtHR0QQHB3Pw4MG/6dUILTMzM0aNGlXssrt375KSkoKDg4PuGlVZr8dgRKGoXr16LF26tNhl+fn5xMXF4eDgYHQHIyMjg7S0NDQaDd988w179uwhPz+f1q1bExAQgIeHh14Kh4c1QCtWrNCFkMOHD5e4bQcHh2KrLy0sLLC0tCQrK4uCggJMTU3x8PCgTZs2LF68GDs7O1q1akVBQQE///wzhw8fZsiQISgUCr3t5Ofn8+OPP2Jvb8+HH35IUlJS+e2cSiY1NZXTp0/z6quvltjsIMqXg4MDK1eupGnTpuTk5Bi6OEYtOzub+fPnl2ldJycnkpOTn7ie9svc4+dtGxsbwsPDyc7OllBkIGq1mhs3brBgwQKSkpL45JNPdC0IlfV6DEYUikqi0WjYvXs3Bw8epF+/fjg7Oxu6SE/l6tWrwMNvVK1bt6Zv377k5OSwa9cuRo4cyZAhQwgMDMTExAR4+IaLiIjA0dGRf/zjH7rHH6dSqUptoqlevTqOjo7cunULlUqFhYUFtra2zJgxg3nz5vHJJ5/o1rW2tiY0NJRu3brp/T3tvo+Li2Pu3LnUrl1bQlExCgsLuXTpEvPnzyc9PZ2goCAJRS9I3759DV2ESkGpVDJnzhzatm1Lnz59iI6OLna9O3fuAA9DTllCEVBsJ2ovLy9atGjB5MmTAZg6daquQ/WjHh3x+Wi/I/F8jh8/zqeffgo87Cs5a9YsPD09n/g8Y78eg5GHIo1Gw8GDB5k3bx6tWrXC39+/xJBQEanVavLy8rC3t2fChAl06NBB18wVGBjIxIkTiYyMxM3NDQ8PjyIhpLRO2Wq1utQmmipVqhSpgcrLyyM8PJxdu3bh7u6Ou7u7LqCFhYVhY2NDly5ddGVMTEwkPDwcX19fXXX6y6ykETJaCoWC8ePH8/777xvlUFXx8lIqldjb2xMUFERsbGyJ6yUnJ6NQKMpcQ/Bo85u26U2hUOiG5Gub8qWj9YuVn5+Pv78/d+/eZdeuXYSEhPDZZ5+V+kXc2K/HWkYbitRqNTExMcycOZOmTZsyefJkbG1tDV2sp1K1alU++eQTvVoZLXt7ewICAhg1ahRxcXG0b9+ehIQEli1bVqYQUrVq1VLfkBqNBrVarft/YWEhq1atYv369YwbN05vNIE2oM2YMQM7OzuaNGlCfn4+y5cvx9HRkT59+shFnqJD8rOysti1axdVqlThs88+w8fH56n6jQlRUdjY2PD555+Xuo52QsenHTSife6KFStISUkp0kQvXjxPT09dzVBQUBChoaEsXryYhg0bFjvMvjJcj7WMZvTZo+7fv88PP/zA9OnT6dixI7Nnz8bR0dHQxSp32v5A6enpZGVl8cMPP9C4cWP69u37xBBiZmZW6pvy/v373Lp1C4VCgZmZGZmZmRw6dIjOnTvz7rvv6tUi2dvb89lnn5GXl8eRI0fQaDRs3bqVEydO8Nlnnz3VNAKVmXZI/tChQxk6dCjjxo1j7dq1vPbaa8yePZtdu3ah0WgMXUwh/hZKpZLk5GQ8PDyeOhSdO3eO5ORkgoOD/6bSiWdla2vLoEGDyM/P548//iiyvLJdj42upignJ4dZs2YRGxtL//79GT58eLG9342FWq1GqVRSo0aNEoOOiYkJmZmZXLx4kZSUFN56661i1+vXr5/eDNhOTk6kpKRw586dIqM/8vPzycvLo1GjRpiampKXl0dubi6urq5FmtUArKysqFmzJnl5edy/f5/Tp0+Tnp6On59fsWXR9gF42dv57e3tGTt2LKNHj9bN2WGME5oJ8SQHDx4kMzOTli1blrreli1biI+P1zV9aTtwjxgxosR+SNKnyLAcHR2xt7cvMideZbseg5GFovz8fL777jv27t3Lv/71L3x9fY2yzVLr9u3bjBw5EnNzc+bOnVukHf7y5cukpKRQv359atWqRZ8+fVCpVEW289tvv3HlyhV8fHyws7PjlVdeAR7OF2FhYcGff/6Ju7u7XuhKSEggMTGRgQMHYmpqiqWlJVZWVmRmZqJSqYp808vNzSUnJ4dq1aphYmLCG2+8Qb169YqUJTU1la1bt/Lmm2/SuHFjo+xoV95cXV0JDg5mwoQJ/Oc//+G7777D3t7e0MUSotw8zb3Qrl27xsmTJ0lJScHFxYXIyEjatm1LmzZtSgxF0qfo75WWlsb06dOpXr06kydPLjKx7JUrV0hLS9Nrfahs12MtowlFhYWFREZGsnPnziJ9XoyVQqGgffv2rFu3joMHDxaZFXTx4sU4OzvTtWtXXn31VQYPHlzsdlQqFenp6UVmU3Z2dqZVq1bExMTQpUsXGjVqBDwcqr9q1SpcXV11t5t4tCz79u3TK0tOTg4//fQT1apVw9PTE1NTU3r27FlsWY4fP87WrVt566235FvbI95880169epFdHQ0UVFRjBw5slKcQISA/81ftHTp0jKFFG1n7C1btvDHH38wb968F1BKUZJatWphb2/Pli1b2L17t97tn5KSkoiIiMDBwYEOHToAlfN6rGU0oSghIYFNmzYBsHbt2hKHhI4ZM8ZoRkKZmJgwcOBAzp8/z9dff01MTAzu7u66+8eYm5vz1VdfPdWU+Y+ytrZm0KBBjB07lqFDh/Luu+/q7n2WmZlJaGio7iav2rJcvXqVr7/+mg0bNuDh4UFeXh779u0jJyeH4cOH06xZs/LcBS8NMzMzBg0axJ9//sn69et54403yjTEVYiKTtv85e/v/8R7+imVStLS0nByciItLY1ffvmFyZMnyxQVBmZmZsbHH3/MxYsXmT59Otu2baNVq1Z616KxY8fSoEEDoHJej7WMJhSdP3+e9PR04GFVXkmKa16qyGxtbZk7dy4bN25k06ZNrFy5Emtra3x8fPjoo4+e+47qHh4eLF68mOXLl7N161bUajWtW7fmq6++on379npNara2tsyePZuNGzeydetWIiIiMDMzw9PTk48//phWrVrJKLPn4OTkxKeffsqECRP44YcfaNSokTSjCaMXGRkJwMCBA/UeL65PY0pKCidPnsTb25vGjRvLbTwqkPr16/Of//yH6OhoNm3axLFjx0q8FlXW6zFAFU0ZhsMkJCTg6upKQkKC7rHnvVhXJtr9IvukfMj+rFjkeLw4WfUeNnHXvnG5xHW052ND2bJlC9HR0cybN4/IyEgiIiJYunRpkVoibd+fRztDQ+l3s1+wYIGuOU07T9HIkSM5c+bME8tV2nb/DtpjlX1gp3w2jExp5zSjqSkSQghRcSQkJBAbG8ukSZOKbTYzNzdn2rRpuk7RJXk8+EyaNKlIc5qMLBMvioQiIYQQZfboLNRbt2597u1p73P2tMuE+DtUju7iQgghhBDPSUKREEIIIQQSioQQQgghAAlFQgghhBCAhCIhhBBCCEBCkRBCCCEEIKFICCGEEAKQUCSEEEIIAUgoEkIIIYQAJBQJIYQQQgASioQQQgghAAlFQgghhBCAhCIhhBBCCEBCkRBCCCEEIKFICCGEEAKQUCSEEEIIAUgoEkIIIYQAoNqzPjEhIaE8y1EpyD4pX7I/KxY5Hn8/m//+fNK+lmNheDaP/C7Hw3i4urqWuvyZQ5GTk9OzPrXSSU5OBmSflBfZnxWLHI8X5+5/f5a2r5OTk+VYVAB3H/ldjkflIc1nQgghhBBIKBJCCCGEACQUCSGEEEIAEoqEEEIIIQAJRUIIIYQQgIQiIYQQQghAQpEQQgghBCChSAghhBACkFAkhBBCCAFIKBJCCCGEACQUCSGEEEIAEoqEEEIIIQAJRUIIIYQQgIQiIYQQQghAQpEQQgghBCChSAghRDk5ceIEixYtMnQxhHhmEoqEEEKUi5s3bxIVFUVMTEy5bC87O5ugoCCCgoLIzs4ul20KURoJRUIIIcqFl5cX3t7ebN68WUKMMErVDF2Ap5WVlcUvv/zCli1byMzMxNnZmQ8++ID/9//+HzVq1DB08Z7Jvn37GD9+fLHL6tSpw3fffUeDBg2KXV5YWMiyZcuIjY0tcb1bt26xePFiDh48iFqtxs3NDX9/f9q2bUuVKlX01i0oKGD//v2sXbuWCxcuYGVlRYcOHRg6dCiOjo5Ftl0Zj8fTUiqVzJw5k7179zJu3Di6d+9e7HrZ2dmMGTMGgNmzZ2NjY/Mii/nSKywsJCIiguvXrzN27FjMzc0NXSSjo30Pnz179onrvv/++yUua968uXwGKriyfF7u3bvH5s2b2bRpE9evX0ehUODt7c3HH39M7dq1DVDq52dUoejGjRuMHTuWGzdu4OHhQZMmTbhw4QKLFi3i0KFDTJ06FYVCYehiPrXLly9TrVo16tevT/Xq1fWWWVlZUa1ayYfpt99+Y82aNdja2ha7/MSJE0yaNAmVSoWPjw9mZmbs37+fUaNGERISwvvvv68LRgUFBSxYsIANGzbw2muv4efnR25uLtu3b+fo0aN88803tGvXTrftyno8ntWDBw+IiIigWbNm1K9f39DFEY/QaDQcO3aMdevW0bFjR0MXx+iFhobSo0cPQxdD/E3K8nn566+/+Prrrzl8+DBubm507dqV5ORk1q9fz+HDh5kxYwYuLi4vuOTPz2hCUWFhIZs2bSItLY1Zs2bRoUMHqlSpgkajYdu2bcyaNYsDBw7Qp08fQxf1qahUKtLS0mjWrBnffvst1tbWZX7uzZs3CQsL48GDB8Uuv3v3LuvWrcPS0pL58+fr3qB+fn5MmjSJNWvW0Lp1a+rWrQvAmTNn2LRpE927d2f06NG6mp4+ffoQEhJCdHQ0zZs3p0aNGpX2eDyv69evExUVxRdffCE1ERWEWq1m165dfPfdd+Tm5hq6OJVKTEwM06dPJywsDHd3d2JiYti8ebNeLdCiRYu4ffu21M4ZibJ+Xg4ePMjhw4cJDAxk8ODBmJiYoNFoOHr0KBMnTiQmJobg4GBMTExeYOmfn9H0KcrLyyMtLY2OHTvi5uamq92oUqUKHh4euLi4cOrUKZRKpYFL+nTy8/O5fv06devWfaoTRkFBAatXr6Z27dp4eXkVu05iYiLHjh2je/fues1qCoWCgQMHcuPGDU6cOKF7/ObNmzx48IDu3bvrNX3Vq1ePVq1acfnyZTIyMoDKezyeR506dXBzc2Pnzp3s2bMHjUZj6CK99LKysvj+++/55ptvaNy4MXXq1DF0kSoNpVLJsWPH8Pb2pmnTpgBFzmVKpRJfX1/s7Ozo2rWrjEyr4J7m83L9+nXs7e155513dMGnSpUqNG3aFBcXF86ePUteXt6LKnq5MZqaImtra6ZNm1bssjt37pCRkUHr1q0xNTV9wSV7Ptqye3p6YmZmVubn7d69mwMHDjBt2jTi4uI4c+ZMkXXOnz9Pfn4+zZs3L9J3yNnZGScnJ86ePct7772Hqamprpnu8Q6SarWae/fuYWFhoTvZVdbj8TwUCgXDhg1jxowZREZG0qxZM6OsPq5MfvrpJzZv3oyvry99+vQpse+eeHqpqamcOnWKwMBAzM3Nyc7O5sSJE7i7u+vOE+bm5pibmxMcHIyvry9KpRKlUqn3BVBb2/QkpfVR8vPzIzg4+Plf1EvuaT4v1apVIzc3l7t37+o9XlBQgEqlok6dOqV2/aiojK/EjygsLOT8+fOEhYVRtWpVvL29ja6qLjMzk7S0NDQaDbNmzWLv3r3cu3cPNzc3Bg4cSLt27ahaVb9CLzExkYiICD788ENatWpFXFxcsdvOyMigTp06xfY3srCwwNLSkqysLAoKCjA1NaV9+/a4u7uzfPlyXn31VVq2bElBQQG//PILcXFxBAQElNp5rjIcj+dVv359/P39mTFjBlFRUXrNkOLFc3BwYMmSJTRp0oScnBxDF6dSOXPmDKmpqUyfPl0v1Jw9e5aoqKhSn+vt7a1rTuvRo0eJ/ZNkcMKL9TSfl3fffZe9e/cSFhZGaGgo9erVIzc3l8jISBITExkwYAAWFhYvqOTlx2hD0aPfLhwdHZkzZw6NGzc2cKmeXkJCAgArV67Ezc2NDz/8kJycHHbv3s3o0aMJCAjA399fFy7u3btHVFQUderUoW/fviWGDpVKRWZmZol/t3r16jg4OJCSkoJKpcLCwgKFQsHUqVNZuHAh//znP3XrWllZ8eWXX/Lee++V+Pcqy/EoD2+//TbHjx9n586dtGnTRq8zu3ixevfubegiVFqPh5ni+hMJ4/I0nxcXFxdmz57N9OnTGTBggO7xunXrMnPmTDp06PB3FPFvZzR9ih6nVqsJCAjA29ubjIwMRo8eze7du42qH4darSYvLw97e3tmz57N/Pnz+fTTTxkzZgyRkZG0bNmSNWvW6Pr9aDQa9u7dy9GjRwkKCiq1U7ZaraawsLDE5VWqVClSA5WXl0dkZCR79uzBzc2NgIAA3YdkyZIl/PbbbyXu38pwPMqLubk5fn5+ODo6EhkZSVJSkqGLJMTfStu/6Gn7RgrjlZGRwZIlSzh79iydOnUiMDAQb29v0tPTCQsL4+LFi4Yu4jMx2pqiXr166X5PTExk3LhxLFq0iIYNG5Y4p09FU7VqVQYPHszgwYOLLLOzs2PgwIF8+eWXHD16lLZt25KYmMiKFSsYMGAAzZo1e+K2S2u60mg0qNVq3f8LCwtZvXo10dHRjBkzBh8fH11o8vf3Z8qUKXz77bfMnj272BqgynA8ylNxzWhCVFba/kWpqanExsaWuJ7MT1Q5KJVKFi5cyO+//87s2bPx8PDQ1YZfuXKFCRMmMGvWLL799lvs7OwMXNqnY7Q1RY9ycXGhT58+pKamcuHCBUMXp9xo+wNlZGSQlZXF0qVLef311+ndu/cTm2PMzMxKnSPo/v37pKSkULt2bczMzMjKyuLw4cN07NiRd955R68Wyc7OjmHDhpGfn8/Ro0efWO7Kejye1ttvv817773Hrl272Lt3r6GLI8Rzy87OLrZZftu2bdSuXZs6deoQGhrKkSNH9P5t27aN5s2b4+7uLoGoErh+/Tq///473bp1o127dnrXo4YNG/LJJ59w6dKlMk3yWdEYbU3R41xdXQFKnLOnolKr1SiVSmrUqFFi0DExMSErK4tLly6RmpqKt7d3sev5+vrqzYDt5OREamoqd+7cKVJbk5+fT15eHg0bNsTU1JS8vDxyc3NxcXEp0qwGD/sVWVtbl3mIpbEej/Jkbm5OQEAA586dIzIyEgcHB0MXSYhyoZ3bDCApKYndu3cTGBgIwObNm/H09NQLP2vWrCEzM7PUEWTCeOTl5XHnzh2qV69ebIuE9gu5DMn/G125coWZM2fSokULPv/8c70DodFodInUmKYWT09PZ/To0VSvXp1vv/22yDeoK1eukJqairOzM7Vq1eKDDz5ApVIV2c7vv//O1atX6datG3Z2drzyyit1H2MxAAAgAElEQVQAvPbaa1hYWHDq1Clat26tF7qSkpJISkrC19cXU1NTLC0tsbKyIjMzE5VKVaRfQG5uLn/99ZduiGVlPB5/h7p16zJkyBAmT57MsmXLyMzMfKlm+RaVy507dwCoVasW8LAZJTw8nFatWunmSzt27Bhr1qzRDZE/ceIEUVFRhIaGvpRN6ZWRpaUltWrVIjs7Wzd6+VHa2kQZkv830l7st2/fjqenp97tJk6ePMkvv/xC69atjWrEU+3atWnXrh3r16/n0KFDev14rly5wvLly3F2duatt97C1taWQYMGFbsdlUpFeno6ffv21Tvp1KtXjxYtWrB9+3Y6d+5Mw4YNgYdv2NWrV+Pi4oK7u3uRshw4cECvLDk5Oaxfvx4TExM6d+4MVM7j8Xfp0qULPXr0YNOmTQASioTRunnzJgqFQvcFbvfu3cTGxhIWFqb7IjVy5EjGjBlDTEwMdevWZfjw4fj5+cltQSqRevXq4ebmxoEDB3jnnXf0+hTdunWLDRs24OLiQsuWLQ1c0qdnNKHI2tqawYMHM2XKFEaPHs0bb7xBo0aNuHDhAvHx8dja2jJ06FCjuuCYmJjg6+vLhQsXmDFjBtu2bcPd3Z1bt26xf/9+qlevzoQJE3B2dn6m7VtbW+Pn58f48eMZPnw4Xl5eunufZWZmEhISorvJq7YsV69eZcaMGWzcuJF27dqRn5/PgQMHyMnJYdiwYTRp0kS37cp2PP4upqamfPzxx5w8eZLExERDF0eIZ6IdYabtF5SUlMTKlSsJDQ3VfbkCsLGxYfz48YwaNUrX3K9tWhOVQ40aNQgKCuLatWuMGTMGNzc3WrZsSUpKCkeOHAFgzJgxxd5EvKIzmlAE4ObmRlhYGD/99BN79+7l0KFDKBQK3eybxtbLHR7WGsyaNYvNmzezdetWwsPDsbKyonv37vTv3/+5Z0Ru164dCxcu5Mcff+TXX39FrVbj5ubG+PHjadu2rV6TmkKhYMaMGWzevJlt27YRFRWFmZkZnTp1YsCAAbRs2VJv/cp4PP4ujzajCWGMtCPMJk6cSFJSEqNGjcLLy6tIDdCiRYuIiorC29ubTp06ceTIEVJTU6XprJJxcXFhwYIF/PLLL+zcuZM//vgDKysrunbtWi7XLkOpoinDRDIJCQm4urrqJhoEcHJy+lsLZkySk5MB2SflRfZnxSLH48W5+1pzAF65WvKoneTkZIMcC+2NXUeOHMm8efOws7PTu7WGNgw9OtgD/jcr9dmzZ3U3jn388fLwoof7a49V9oGd8tkwImZmZrosox0Q9CijqikSQgjx4mnvaxYcHIyNjY2uxlOpVDJz5kxiY2Px8/PTNZ08ysbGhmXLlgEPg9Pw4cN1t/nQPi5ERSGhSAghRKkeDTaPMjc3Z/LkyWVuFg4ODpYbt4oKrVJM3iiEEEII8bwkFAkhhBBCIKFICCGEEAKQUCSEEEIIAUgoEkIIIYQAJBQJIYQQQgASioQQQgghAAlFQgghhBCAhCIhhBBCCEBCkRBCCCEEIKFICCGEEAKQUCSEEEIIAUgoEkIIIYQAJBQJIYQQQgASioQQQgghAAlFQgghhBCAhCIhhBBCCACqPesTk5OTy7MclYLsk/Il+7NikePx97P5788n7Ws5FoZn88jvcjyMh6ura6nLpaZICCGEEILnqCl6Utp6mSQkJACyT8qL7M+KRY7Hi5P135+l7euEhAQ5FhVA1iO/y/GoPKSmSAghhBACCUVCCCGEEICEIiGEEEIIQEKREEIIIQQgoUgIIYQQApBQJIQQQggBSCgSQgghhAAkFAkhhBBCABKKhBBCCCEACUVCCCGEEICEIiGEEEIIQEKREEIIIQQgoUgIIYQQApBQJIQQQggBSCgSQgghhAAkFAkhhCgnx48fZ8GCBYYuhhDPTEKREEKIcpGcnExERARbtmwpl+1lZ2cTEBBAQEAA2dnZ5bJNIUojoUgIIUS58Pb2plu3bkRHR0uIEUapmqEL8Lzi4uIICQlh9OjR9OrVy9DFeSZ79uwhJCSk2GUODg7Mnz8fFxeXYpcXFhayePFiduzYUeJ6N2/eJCwsjP3796NWq2ndujWBgYG0b9+eKlWq6K2rUqnYt28fUVFRnD9/Hmtrazp27EhwcDB169Ytsu179+6xceNGNmzYwPXr17G2tuaNN97A39+fxo0bF9l+ZaRUKpk2bRq7d+9m4sSJ+Pj4FLtednY2I0eOBGDevHnY2Ni8yGK+9AoLC1m5ciXXrl1jwoQJmJubG7pIRkf7Hj5z5swT1/Xy8ipxWYsWLeQzUMGV5fOiVquJj48nPDycP//8k6pVq+Lp6UlgYKDRnv+NOhSlpaWxcOFC8vPzDV2U53Lp0iWqVatGgwYNqF69ut4ya2trqlUr+TDFxcURGRnJq6++Wuzy48ePM27cOAoKCujZsyfVq1dnz549jBgxgtDQUHr27Kl746pUKubNm8fPP/9Mw4YN8ff3Jzc3l5iYGOLi4pg5cyYeHh66bWdkZBAaGsrx48dxd3fHy8uLW7dusXfvXn777bci61d2Dx48YMWKFTRv3pwGDRoYujjiERqNhvj4eNauXUunTp0MXRyjN2nSJKP9EiqerCyfl8LCQtasWUNYWBgKhYL+/ftz//59du3axbFjx4z2/G+0oUilUrFixQouXrxo6KI8F5VKRWpqKs2bN+f777/H2tq6zM9NTk5m/vz5PHjwoNjld+/eZc2aNVhaWjJnzhxcXV0BGDRoEKGhoURFRdGmTRucnJwAOHPmDNHR0fj4+BASEoKFhQUAffv25YsvvmDDhg20aNECCwsLNBoNMTExnDp1iokTJ9KzZ0+qVn3YGnv58mVCQkJYuHAhc+fOLTGwVUbXr18nIiKCkJAQqYmoINRqNTt37mT27Nn89ddfhi5OpbJlyxamTp3K0qVLadOmDVu2bCE6OlqvFmjBggWkpaVJ7ZyRKOvn5dy5c/z44494e3sTEhKCpaUlAP/4xz8YPXo0ERERNG3aFCsrqxdV9HJhtH2KDh48yP79+xk0aJChi/Jc8vPzuXbtGk5OTk91wlCpVKxatQqFQoG3t3ex6yQkJBAfH0+PHj30mtVsbW0JCAjg+vXrHD9+XPd4cnIyDx48wMfHRxeIAJydnXFzc+PSpUtkZGQAkJuby6FDh3B3d+ftt9/WBSKARo0a0aNHD86dO8eNGzfK/JqMnYODA+7u7mzfvp3Y2Fg0Go2hi/TSy8rKYs6cOUyZMoUmTZrg4OBg6CJVGkqlkvj4eLp160azZs0AipzLlEolAwcOxN7eHk9PTxmZVsGV9fNSUFDAli1bsLGx4dNPP9UFIgAXFxfeeecdbt68SXp6+osqerkxylCUlJTEokWL6NevHx06dDB0cZ5LVlYW6enp1K9fHzMzszI/b9euXezfv5+goKAS37hnz54lPz+fFi1aFGnbbdCgAfXq1eP06dMUFBQA6JrpHu8gqVaruXfvHhYWFrqTXU5ODiYmJjRs2FDvA6FVq1atMr+WykKhUBAcHIyjoyPh4eEkJiYaukgvvdWrVxMdHc3AgQP56quvUCgUhi5SpZGSksLJkyfx8PDA3Nyc7Oxs/vjjD+zt7XXnCXNzc2xsbPj888/ZvXs3ffv2RalU6m1ny5YttGvXrth/Xl5enDlzhjNnzuDl5VXiehK2ykdZPy+5ublcvHiRjh07Frn+VKlSheHDh7Np0yZd64QxMbrms/z8fH788Ufs7e358MMPSUpKMnSRnktGRgZpaWloNBq++eYb9uzZQ35+Pq1btyYgIAAPDw+9Whh4WAO0YsUK+vXrh5ubG4cPHy5x2w4ODsU2X1lYWGBpaUlWVhYFBQWYmpri4eFBmzZtWLx4MXZ2drRq1YqCggJ+/vlnDh8+zJAhQ3Qfknr16rF06dJi/25+fj5xcXE4ODi8dOHIxcWFIUOG8PXXX+ua0R6tdRMvloODAytXrqRp06bk5OQYujiVyunTp0lJSWHq1KlMnTpV9/iZM2eIiIgo9bndunXTNaf16tWrxP5JMjjhxSrr5yU7O5vMzEwaNmzI7du3WblyJXv27EGpVEpH6xdJo9Gwe/du4uLimDt3LrVr1zb6UHT16lUAli1bRuvWrenbty85OTns2rWLkSNHMmTIEAIDAzExMQEeBo6IiAgcHR35xz/+oXv8cSqVStfUVZzq1avj6OjIrVu3UKlUWFhYYGtry4wZM5g3bx6ffPKJbl1ra2tCQ0Pp1q1biX9PS3uMDh48SL9+/XB2dn7aXWL03nnnHY4dO8b27dtp27atXmd28WL17dvX0EWotB4PM8X1JxLGpayfl+zsbNLS0jh//jyRkZFYWlrSu3dv0tLS2Lt3r3S0flESExMJDw/H19eXFi1aGLo4z02tVpOXl4e9vT0TJkygQ4cOuotnYGAgEydOJDIyEjc3Nzw8PIqEwtI6ZavVagoLC0tcXqVKlSI1UHl5eYSHh7Nr1y7c3d1xd3fXBbSwsDBsbGzo0qVLiRd4jUbDwYMHmTdvHq1atcLf3/+JIaoyMjc3x9/fn5MnTxIeHk6LFi2MshpZiLLS9i962r6RwrhFR0cTFBTEJ598ojvXG/tAG6PpU5Sfn8/y5ctxdHSkT58+leKbd9WqVfnkk0/49ddf6dixo95rsre3JyAgAJVKRVxcHBqNhoSEBJYtW1amUFi1atVSA4lGo0GtVuv+X1hYyKpVq1i/fj3jxo1jyZIlBAcHM27cONauXUv9+vWZMWNGiaP91Go1W7duZdy4cbi4uDB58mRsbW2fco9UHg0aNGDIkCHcunWLiIgIo582QojSaPsX7dixA09PzxL7/sjM1JVL+/bt+eijj/SuNY0aNaJfv36cO3fOKEeHG0VNkUajYevWrZw4ceKph60bM21/oPT0dLKysvjhhx9o3Lgxffv2fWIoNDMzKzWU3L9/n1u3bqFQKDAzMyMzM5NDhw7RuXNn3n33Xb1aJHt7ez777DM+++wzjhw5QpMmTYpsa/ny5URGRtK5c2fGjx9P7dq1n+/FVwKPN6N16dLF0EUS4rncuXOHzMzMIo/HxMToPvNBQUFF+ghp+wa1bdtWmtYqgapVq1KtWjWcnJyoUaNGkeWNGzcGHg4kMjZGEYru37/P6dOnSU9Px8/Pr9h1tJ39jG1SMbVajVKppEaNGiUGHRMTEzIzM7l48SIpKSm89dZbxa7Xr18/vRmwnZycSElJ4c6dO0Vmus7PzycvL49GjRphampKXl4eubm5uLq6FmlWA7CysqJmzZrk5eXpPZ6Tk8OsWbOIjY2lf//+DB8+vNjRaC8jc3NzhgwZwtmzZwkPD8fR0dHQRRKiXGjnNoOH3RpiY2MJCgoCHjapvPnmm3rhJzIykszMTHr06PHCyyrKX+3atalTpw4qlarYqUdKmjvPGBhFKDIxMeGNN96gXr16RZalpqaydetW3nzzTRo3bmxUHXtv377NyJEjMTc3Z+7cuUVGal2+fJmUlBTq169PrVq16NOnDyqVqsh2fvvtN65cuYKPjw92dna88sorwMNqTAsLC/7880/c3d31QldCQgKJiYkMHDgQU1NTLC0tsbKyIjMzE5VKVaRfQG5uLjk5OXqza+fn5/Pdd9+xd+9e/vWvf+Hr6/tS9iEqjZOTE59++ikTJkxgyZIlZGZmyrBwYbTu3LkD/G/KDaVSyYoVK3Bzc9PNlxYfH09kZCSff/458HBW/YiICCZNmlTi7YqEcbG1teW1117j9OnT3L59Wy8kazQazpw5o6tJMjZGEYpMTU3p2bNnscuOHz/O1q1beeutt4yqhggezmvTvn171q1bx8GDB4vMCr148WKcnZ3p2rUrr776KoMHDy52OyqVivT0dPr376930nF2dqZVq1bExMTQpUsXGjVqBDwcqr9q1SpcXV1p06ZNkbLs27dPryw5OTn89NNPVKtWDU9PT+BhH6TIyEh27tzJuHHj9NYX+t5880169epFdHQ0gIQiYbSSk5NRKBS6UBQbG8uOHTtYunSp7ovU6NGjGTlyJFu2bNF9KfD39ze687MomYWFBf/3f//HgQMHiI6OZujQobpbVF25coWYmBjatWtHw4YNDVzSp2cUoaiyMjExYeDAgZw/f56vv/6amJgY3N3ddfcPMzc356uvvqJ+/frPtH1ra2sGDRrE2LFjGTp0KO+++67u3meZmZmEhobqbvKqLcvVq1f5+uuv2bBhAx4eHuTl5bFv3z5ycnIYPny4bubahIQENm3aBMDatWt1F/zHjRkzplKMFHweZmZmDBo0iD///JOEhARDF0eIZ6IdYabtF5SYmMiyZcuYNGmS7ssVgI2NDV999RUjRowgJSWFbt266ZrWROXh5eXFpUuXWLVqFUeOHKFz5866IflWVlYEBgYaZf9fCUUGZmtry9y5c9m4cSObNm1i5cqVWFtb4+Pjw0cfffTcQ7k9PDxYvHgxy5cvZ+vWrajValq3bs1XX31F+/bt9ZrUbG1tmT17Nhs3bmTr1q1ERERgZmaGp6cnH3/8Ma1atdKtf/78ed0U7leuXCnx7xfX3PcyerQZTQhjpB1hNmXKFBITExkxYgTe3t5FaoAWLFhAREQE3bp1o3Pnzhw+fJiUlBRpOqtkLCwsGDFiBC1btmTdunWsXr0aCwsLfHx8CAgI0H3hNjZVNGW4QVNCQgKurq5633Jl3pX/0e4X2SflQ/ZnxSLH48XJqvewibv2jcslrqM9H79o2hu7jh49mjlz5mBvb6/rN6RdHhERoTfYA/438uzMmTO6G8c+/nh5aNGixQudOFJ7rLIP7JTPhpEp7ZwmNUVCCCFKpb2v2YgRI7CxsWHatGnAwya1adOmsWPHDvz9/Tl27FiR59rY2BAeHg48DE6ffvqp7jYf2seFqCgkFAkhhCjVo8HmUebm5kybNk0Xkp7k888/16tdEqKikeFCQgghhBBIKBJCCCGEACQUCSGEEEIAEoqEEEIIIQAJRUIIIYQQgIQiIYQQQghAQpEQQgghBCChSAghhBACkFAkhBBCCAFIKBJCCCGEACQUCSGEEEIAEoqEEEIIIQAJRUIIIYQQgIQiIYQQQghAQpEQQgghBCChSAghhBACkFAkhBBCCAFAtWd9YkJCQnmWo1KQfVK+ZH9WLHI8/n42//35pH0tx8LwbB75XY6H8XB1dS11+TOHIicnp2d9aqWTnJwMyD4pL7I/KxY5Hi/O3f/+LG1fJycny7GoAO4+8rscj8pDms+EEEIIIZBQJIQQQggBSCgSQgghhAAkFAkhhBBCABKKhBBCCCEACUVCCCGEEICEIiGEEEIIQEKREEIIIQQgoUgIIYQQApBQJIQQQggBSCgSQgghhAAkFAkhhBBCABKKhBBCCCEACUVCCCGEEICEIiGEEEIIQEKREEKIcnLixAkWLVpk6GII8cwkFAkhhCgXN2/eJCoqipiYmHLZXnZ2NkFBQQQFBZGdnV0u2xSiNBKKhBBClAsvLy+8vb3ZvHmzhBhhlKoZugBPKyIigiVLlhS7rHnz5syePRsbG5sXXKrns2/fPsaPH1/ssjp16vDdd9/RoEGDYpcXFhaybNkyYmNjS1zv1q1bLF68mIMHD6JWq3Fzc8Pf35+2bdtSpUoVvXULCgrYv38/a9eu5cKFC1hZWdGhQweGDh2Ko6Njqa9DqVQyd+5catWqRXBwcBlfvfFTKpXMnDmTvXv3Mm7cOLp3717setnZ2YwZMwbAKN+nxq6wsJCIiAiuX7/O2LFjMTc3N3SRjI72PXz27Nknrvv++++XuMxYz9WV3ePnfzMzM1q3bo2vry/t2rWjatWqRdaPjY0lMjKS69evo1Ao6NWrF/3796dmzZoGehXPx6hCkUql4vr165iZmdGgQQOqVdMvvoODQ5GDZgwuX75MtWrVqF+/PtWrV9dbZmVlVeR1Puq3335jzZo12NraFrv8xIkTTJo0CZVKhY+PD2ZmZuzfv59Ro0YREhLC+++/rwtGBQUFLFiwgA0bNvDaa6/h5+dHbm4u27dv5+jRo3zzzTe0a9eu2L+jVqvZtWsXO3fuZMCAAc+4J4zbgwcPiIiIoFmzZtSvX9/QxRGP0Gg0HDt2jHXr1tGxY0dDF8fohYaG0qNHD0MXQ5Sje/fuMWfOHLZv3647/+fl5bF7925Gjx5d5HqhVCqZN28eW7Zswc3Nja5du3Lp0iUiIyP5888/mTp1KgqFwsCv6ukZVShSKpXcvHmTd955h5CQEMzMzAxdpOemUqlIS0ujWbNmfPvtt1hbW5f5uTdv3iQsLIwHDx4Uu/zu3busW7cOS0tL5s+fj4uLCwB+fn5MmjSJNWvW0Lp1a+rWrQvAmTNn2LRpE927d2f06NHUqFEDgD59+hASEkJ0dDTNmzfXPa5VUFDAunXrWLp0aYlleVlcv36dqKgovvjiC6mJqCC0gf27774jNzfX0MWpVGJiYpg+fTphYWG4u7sTExPD5s2b9WqBFi1axO3bt6V2roKLi4tj165dBAQEMHjwYExNTQHw9/dnypQpLFmyhMaNG9OwYUMAjh8/zrZt2wgMDGTw4MGYmJig0WjYtm0bs2bNYtu2bfj5+RVpjajojKpaJSsri9u3b2Nvb18pAhFAfn4+169fp27duk91wigoKGD16tXUrl0bLy+vYtdJTEzk2LFjdO/eXa9ZTaFQMHDgQG7cuMGJEyd0j9+8eZMHDx7QvXt3veBTr149WrVqxeXLl8nIyND7G7du3WLixIksXbqUdu3aUatWrTK/hsqmTp06uLm5sXPnTvbs2YNGozF0kV56WVlZfP/993zzzTc0btyYOnXqGLpIlYZSqeTYsWN4e3vTtGlTgCLnMqVSia+vL3Z2dnTt2lVGplVQKpWKw4cP4+joiI+Pjy4QAdjZ2dG3b18yMjK4cOEC8L9mNkdHR7p3746JiQkAVapUoWvXrnh6enLo0CFycnIM8nqeh1HVFGVkZJCamkqjRo0MXZRyc+fOHTIyMvD09HyqoLd7924OHDjAtGnTiIuL48yZM0XWOX/+PPn5+TRv3rxIWnd2dsbJyYmzZ8/y3nvvYWpqqmume7yDpFqt5t69e1hYWOgFN6VSydKlSzl69CijRo2iRYsWfPnll0/z8isVhULBsGHDmDFjBpGRkTRr1kxXOycM46effmLz5s34+vrSp0+fEvvuiaeXmprKqVOnCAwMxNzcnOzsbE6cOIG7u7vuPGFubo65uTnBwcH4+vqiVCpRKpV65xFtbdOTlNZHyc/P76Xqx1jelEol9+7dw9XVtdgvtlZWVnr/z87O5uLFi7z++uvUrl1bb1mNGjVo3Lgx8fHx3Lx50+j6jRlVKLp16xY1a9YkNTWV0NBQjhw5AkCnTp3w9/fn9ddfN7qquszMTNLS0tBoNMyaNYu9e/dy79493NzcGDhwYLGd2xITE4mIiODDDz+kVatWxMXFFbvtjIwM6tSpU2x/IwsLCywtLcnKyqKgoABTU1Pat2+Pu7s7y5cv59VXX6Vly5YUFBTwyy+/EBcXR0BAQJEPQKNGjfj0009xdHQkKSmp/HaMkapfvz7+/v7MmDGDqKgovWZI8eI5ODiwZMkSmjRpYpTfWiuyM2fOkJqayvTp0/VCzdmzZ4mKiir1ud7e3rrmtB49epTYP0kGJ7wY1tbWJQbTwsJC4uLiqFatmq6rRV5eHrm5udSpU6fY85tCoSA/P98oP3NGE4oKCwu5evUqOTk5LFmyhDfeeAM/Pz+Sk5PZv38/R44cISQkhG7duhlVMEpISABg5cqVuLm58eGHH5KTk6Pr3BYQEIC/v7+uevLevXtERUVRp04d+vbtq3v8cSqViszMzBL/bvXq1XFwcCAlJQWVSoWFhQUKhYKpU6eycOFC/vnPf+rWtbKy4ssvv+S9997T+3vm5uZ8/PHH5bEbKpW3336b48ePs3PnTtq0aaPXOVG8WL179zZ0ESqtx8NMcf2JhPE7ceIEMTExdOrUSddKk5OTU6QrxaO0zdRZWVkvpIzlyWhCkUqloqCgABcXF6ZMmaLr7AVw5coVJkyYwLJly2jatGmJw9crGrVaTV5eHvb29owdOxYPDw/dxVPbuW3NmjW0atWKdu3aodFo2Lt3L0ePHn1ip2y1Wk1hYWGJy6tUqVKkBiovL4/IyEj27NmDm5sb7u7uuoC2ZMkSbGxs6Ny5s1zgn8Dc3Bw/Pz9Onz4tzWjipaDtX/S0fSNFxXb27FnmzJlDrVq1GDp0KK+88grw8PpS2qCakr6sGwOjCUU1atQosb9Kw4YN6d+/P3PmzOHUqVNGE4qqVq3K4MGDGTx4cJFldnZ2DBw4kC+//JKjR4/Stm1bEhMTWbFiBQMGDKBZs2ZP3HZpb0yNRoNardb9v7CwkNWrVxMdHc2YMWPw8fHRhSZtQPv222+ZPXs2jRs3fsZX/PIorhlNiMpK278oNTWV2NjYEteT+YmMg0aj4ffff+frr7/G0tKSiRMn6n2xq1q1aqlTxZT2hbyiM5pQ9CTaA5acnGzgkpQfbX+gjIwMsrKyWLp0Ka+//jq9e/d+Ym2NmZlZqXNE3L9/n5SUFGrXro2ZmRlZWVkcPnyYjh078s477+jVItnZ2TFs2DD+/e9/c/ToUQlFZfR4M1rnzp0NXSQhnkt2dnaxzfLbtm3T9TcMDAws0kdI2zfI3d1dAlEFV1hYyNatW5k3bx4NGzZk0qRJODs7661Ts2bNEufGg4chGSjSB9UYGFUoKiwsRKVSldpxtbT0WhGp1WqUSiU1atQoMeiYmJiQlZXFpUuXSE1Nxdvbu9j1fH199WbAdnJyIjU1lTt37hSpPcvPzycvL4+GDRtiamqq6zjn4uJS7ASYVlZWWFtbk5eX9/wv+iVhbm5OQEAA586dIzIyEgcHB0MXSYhyoe1wC5CUlMTu3bsJDAwEYPPmzVAl2dkAACAASURBVHh6euqFnzVr1pCZmVnqCDJhePfv32f58uWsXr2aLl26MGbMmGLDT82aNbGxseH27dtFRhPCwwFEFhYWRjmrtdEkiEuXLvHvf/+b9u3bF5kETKPRcOrUKQCjGq6fnp7O6NGjqV69Ot9++22Rb1BXrlwhNTUVZ2dnatWqxQcffIBKpSqynd9//52rV6/SrVs37OzsdO2+r732GhYWFpw6dYrWrVvrha6kpCSSkpLw9fXF1NQUS0tLrKysyMzMRKVSFXmT5+bm8tdffxld6DS0unXrMmTIECZPnsyyZcvIzMw0yllehYCHU4gAumHbSqWS8PBwWrVqpZsv7dixY6xZs0Y3RP7EiRNERUURGhpqNF0bXkaFhYVERkayevVq+vXrx7Bhw0qsgHjllVdo3LgxJ06cIDMzUy8k5+fnc+7cOVxdXfUeNxZGc4WrV68ebm5uxMXFcfLkSV2nZI1GQ3x8PGvWrKFt27a0bt3a0EUts9q1a9OuXTvWr1/PoUOH9PrxXLlyheXLl+Ps7Mxbb72Fra0tgwYNKnY7KpWK9PR0+vbtq3fSqVevHi1atGD79u107txZ1zk9MzOT1atX4+Ligru7e5GyHDhwQK8sOTk5rF+/HhMTE2kCegZdunShR48ebNq0CUBCkTBaN2/eRKFQ6L7A7d69m9jYWMLCwnRfpEaOHMmYMWOIiYmhbt26DB8+HD8/P7ktSAWm0WjYsWMHq1atKjKjdXG0U7j8+uuv/Prrr7r1NRoN+/btIy4ujqCgIKkp+jvVqFGDoKAgEhISGDNmDB4eHjRp0oQLFy4QHx+Po6Mjw4YNM6oZlU1MTPD19eXChQvMmDGDbdu24e7uzq1bt9i/fz/Vq1dnwoQJRdpzy8ra2ho/Pz/Gjx/P8OHD8fLy0t37LDMzk5CQEN1NXrVluXr1KjNmzGDjxo20a9eO/Px8Dhw4QE5ODsOGDaNJkybluQteCqampnz88cecPHmSxMREQxdHiGeiHWGm7ReUlJTEypUrCQ0N1X25ArCxsWH8+PGMGjVK19yvbVoTFVNmZia//PILDx48YN++fcTHxxe7nq+vL127dgWgY8eOvPvuu4SHh+sm7bx06RLx8fG0bNnSaKciMZpQBA87U8+fP5/o6Gh+/fVXjhw5gkKh0M1Wa2dnZ+giPjWFQsGsWbPYvHkzW7duJTw8HCsrK7p3707//v2feyh3u3btWLhwIT/++CO//vorarUaNzc3xo8fT9u2bfXetAqFghkzZrB582a2bdtGVFQUZmZmdOrUiQEDBtCyZUujfJNXBI82owlhjLQjzCZOnEhSUhKjRo3Cy8urSA3QokWLiIqKwtvbm06dOnHkyBFSU1Ol6awCu3Hjhu4WHteuXStxvfz8fN3v2hHhr7/+Ohs3biQ8PFx3C6n+/fsbZS0RQBVNGW7QlJCQgKurq26iQQAnJ6e/tWDGRDviTfZJ+ZD9WbHI8Xhx7r7WHIBXrp4tcZ3k5GSDHAvtjV1HjhzJvHnzsLOz07u1hjYMPTrYA/438uzs2bO6G8c+/nh5eNHD/bXHKvvATvlsGBEzMzNdlnF1dS2y3KhqioQQQrx42vuaBQcHY2Njo6vxVCqVzJw5k9jYWPz8/HS3XnqUjY0Ny5YtAx4Gp+HDh+tu86F9XIiKQkKREEKIUj0abB5lbm7O5MmTy9wsHBwcLDduFRVa0QlphBBCCCFeQhKKhBBCCCGQUCSEEEIIAUgoEkIIIYQAJBQJIYQQQgASioQQQgghAAlFQgghhBCAhCIhhBBCCEBCkRBCCCEEIKFICCGEEAKQUCSEEEIIAUgoEkIIIYQAJBQJIYQQQgASioQQQgghAAlFQgghhBCAhCIhhBBCCEBCkRBCCCEEANWe9YnJycnlWY5KQfZJ+ZL9WbHI8fj72fz355P2tRwLw7N55Hc5HsbD1dW11OVSUySEEEIIwXPUFD0pbb1MEhISANkn5UX2Z8Uix+PFyfrvz9L2dUJCghyLCiDrkd/leFQeUlMkhBBCCIGEIiGEEEIIQEKREEIIIQQgoUgIIYQQApBQJIQQQggBSCgSQgghhAAkFAkhhBBCABKKhBBCCCEACUVCCCGEEICEIiGEEEIIQEKREEIIIQQgoUgIIYQQApBQJIQQQggBSCgSQgghhAAkFAkhhBBCABKKhBBClJPjx4+zYMECQxdDiGcmoUgIIUS5SE5OJiIigi1btpTL9rKzswkICCAgIIDs7Oxy2aYQpZFQJIQQolx4e3vTrVs3oqOjJcQIo1TN0AV4Wmq1mvj4eMLDw/nzzz+pWrUqnp6eBAYG0rhxY6pUqWLoIj61PXv2EBISUuwyBwcH5s+fj4uLS7HLCwsLWbx4MTt27ChxvZs3bxIWFsb+/ftRq9W0bt2awMBA2rdvX2R/qVQq9u3bR1RUFOfPn8fa2pqOHTsSHBxM3bp1i2xbpVKxc+dOfvzxR65fv45CoaB379589NFH1KxZ8xn2hvFRKpVMmzaN3bt3M3HiRHx8fIpdLzs7m5EjRwIwb948bGxsXmQxX3qFhYWsXLmSa9euMWHCBMzNzQ1dJKOjfQ+fOXPmiet6eXmVuKxFixbyGajgyvJ5ycnJYe3atWzcuJHMzEycnZ3p27cvvXv3pkaNGgYo9fMzqlBUWFjImjVrCAsLQ6FQ/H/27jwsynr///gTURgxEYHYRFSOpiiJuNDJ7ZgaB1Os1DYTQVxOlx7Nr9GhUDGXTFPTNM0yDQQtq58l4oZIpilmCJmSuQSIrMIAbjCOMPP7wzNznBgQDYHB9+O6vMC5Fz5z33Pf92s+y33z4osvcvPmTfbv309SUhJLlizBx8envot5z86dO0fTpk1p3749lpaWBtOsra1p2rTq3ZSYmEhUVBSPPvqo0enJycm8/fbb3Lp1C39/fywtLTlw4AAzZswgLCwMf39/fTBSq9WsWrWKr776io4dOxIYGMi1a9eIjY0lMTGx0vZVqVQsX76c7777Dm9vb4YOHcq5c+eIiIggOTmZxYsXY29vXwtbyDSUl5ezceNGunXrRvv27eu7OOIOWq2W48eP88UXX9C3b9/6Lo7JCw8PZ+TIkfVdDPGA1OR4KSwsJCwsjOTkZLy9vXn22WfJyspi9erVHD16lHfeecckz/8mFYp+++03Pv/8c3x9fQkNDaVFixYAvPTSS4SEhBAZGYmHhwctW7as55LWnFqtJi8vj27durFy5Uqsra1rvKzuA1heXm50+vXr19m6dSstWrRg+fLluLu7AzB+/HjCwsKIjo6mZ8+euLq6AnD69Gm2b9/O8OHDCQ0NxcrKCoAxY8bwxhtv8M033+Dp6al/PSkpidjYWCZPnsykSZMwNzdHq9Wyc+dOFi9eTGxsLIGBgSZZe3e/MjMziYyMJDQ0VGoiGgiNRsO+fftYtmwZV69ere/iNCoxMTEsWLCATz/9lJ49exITE8P27dsNaoHWrFlDfn6+1M6ZiJocLxUVFURFRZGcnFzp/H/s2DFmz55NZGQkM2fOxNzcvI7fwV9jMn2Kbt26RUxMDDY2NkyZMkUfiAA6dOjAkCFDyM7OpqCgoB5Lee9KS0u5ePEirq6u93TCUKvVbN68GTs7O3x9fY3Ok5aWxvHjxxkxYoRBs5q9vT1BQUFkZmaSnJysfz0rK4vy8nKGDx+uDz4Abm5ueHl5ce7cOQoLC/V/PyEhARcXF4YPH67/4JuZmTF06FAGDhzIoUOHHqp+Bc7Oznh7e7Nnzx7i4uLQarX1XaSHXlFREcuXL2f+/Pl06dIFZ2fn+i5So6FSqTh+/Dh+fn507doVoNK5TKVSERAQgKOjI/3795eRaQ1cTY+X/Px8jh49Sp8+fXjllVcMzv8+Pj4MGzaMgwcPkpmZWZfFrxUmE4quXbvG2bNnefLJJyvtKDMzM6ZNm8Z3332nrw0xFUVFRRQUFNCuXTssLCxqvNz+/fs5ePAgkydPrvKDm5qaSmlpKZ6enpVqa9q3b0/btm05deoUt27dAtA30/05yGg0GsrKyrCystKf7EpKSvj999/p0qULdnZ2BvNbWVnRpUsXLly4QHZ2do3fk6mzs7Nj6tSpuLi4EBERQXp6en0X6aG3ZcsWtm/fTkBAAPPmzav0WRX3Lzc3l5MnT+Lj44NCoaCkpIQTJ07g6OioP08oFApsbGyYPn068fHxjBkzBpVKZbCemJgYevfubfTf0KFDOX36NKdPn2bo0KFVzidhq3bU9HgpKioiPz+frl27VmrdMDc3p3PnzuTm5prk+d9kms9KSkpQKpV07NiRy5cvs2nTJg4cOIBKpTLpjtaFhYXk5+ej1Wp59913OXDgAKWlpfTo0YOgoCB8fHxo0sQwu6alpbFx40ZeeOEFvLy8OHLkSJXrdnZ2NtrfyMrKihYtWlBUVMStW7do1qwZPj4+9OzZk/Xr1+Pg4ED37t25desWX331FUeOHGHixIn6g+TGjRtcu3YNZ2dnox3q7O3tKS0tfahqiuB2reXEiRNZuHChvhntzlo3UbecnZ3ZtGkTHh4eXLlypb6L06icOnWK3NxcFixYwIIFC/Svnz59msjIyGqX9fPz0zenjRw5ssr+STI4oW7V9HgpLy9HrVbfdX1FRUW1Wbw6YVKhKD8/nzNnzhAVFUWLFi14/vnnyc/PJyEhwWQ7Wv/xxx8AbNiwgR49ejBmzBiuXLnC/v37mTlzJhMnTiQ4OFhfPVlaWkpkZCQuLi689NJLVbbXqtVqfVOXMZaWlri4uJCTk4NarcbKygp7e3vee+89Vq1axaRJk/TzWltbExYWhp+fn/7vXblypdqmSicnJ8A0D4q/asiQISQlJbFnzx569epl0Jld1K0xY8bUdxEarT+HGWP9iYRpqenxYmtri5OTE/n5+ahUKoOuHxUVFfrrmikymVCks337doOOXQDnz58nNDSUjz76iBUrVlQ5Equh0Wg03LhxA0dHR+bMmcPf//53/cUzODiYuXPnEhUVhZeXFz4+Pmi1WuLj40lMTGTFihXVdsrWaDRUVFRUOd3MzKxSDdSNGzeIiIhg//79eHt74+3trQ9oa9euxcbGhgEDBmBmZoZGo6mygzdQ7Yi5xk6hUBAYGMjJkyeJiIjA09PT5Jp1hbgXuv5F99o3UpgmJycnfHx8iImJoU+fPvj7++uvJydOnGDnzp31XML7Z3JXrj937ALo1KkTL7zwAitWrODs2bMmE4qaNGnCpEmTDGpldBwdHQkKCmLWrFkkJibSp08f0tLS2LBhA2PHjsXT0/Ou666u179Wq0Wj0ej/X1FRwebNm/n66695++23DT7kuoD23nvv4eDgQJcuXWjSpEm1wae6wPQwaN++faVmNCEaK13/otzcXPbu3VvlfHJ/osbBwsKCl19+mV9++YWFCxcSGxuLt7c3OTk5/Pzzzzz77LO1dlfzumYyHa11F2FXV1ejfVg6d+4MNK7mGl1/oIKCAoqKivj444/p3LkzY8aMuWtzjIWFRbX3iLh58yY5OTnY2dlhYWGBUqnk8OHD9OvXj6efftqgFsnR0ZF///vf3Lhxg6NHjwLQqlWrasNnXl4ecLua9WE1ZMgQhg0bxr59+4iPj5fRaMLkFRcXo1QqK70eGxuLra0tzs7OhIeHk5SUZPAvPj4eT09PevXqJYGokXB3d2f9+vWMHTuWP/74g82bN6NSqfjwww8ZMGAAV65cMckWA5Mpsa4NU61WG724mGrNhEajQaVS0bx58yqDjrm5OUqlkrNnz5Kbm8ugQYOMzvfCCy8Y3AHb1dWV3NxciouLK93purS0lBs3btCpUyeaNWum7zjt7u5eqVkNoGXLlrRq1YobN24At0NR69atjbYpw+1O3lZWVg/1CVChUDBx4kRSU1OJiIjAxcWlvoskRK3Q3dsMID09nbi4OCZPngzc7uIwcOBAg2M/KioKpVLJiBEj6rys4sGxtbVl1qxZzJo1y+D1b7/9FisrK9zc3OqpZPfPZEKRvb09f/vb3zh16hSXL182OCi1Wi2nT5/W1ySZisuXLzNz5kwUCgUrVqygdevWBtPPnz9Pbm4u7dq1o3Xr1owaNcpoj/+ffvqJCxcuMHz4cBwcHHjkkUeA282KVlZW/PLLL3h7exuErrS0NNLT0wkICKBZs2a0aNGCli1bolQqUavVlULOtWvXDJJ/y5Yt6dy5MydOnKCwsNBgu5eWlpKamkrHjh2NPhrkYeLq6sqUKVOYM2cOn3zyCUqlUoaFC5NVXFwMoD9XqVQqNm7ciJeXl/5+acePHycqKorp06cDt++qHxkZSXh4eJWPKxKm5dq1a8yfPx+tVsvChQsNRtiWlpaSmJhIt27dTDIUmUzzmZWVFf/4xz/IzMxk+/bt3Lx5Uz/twoULxMbG0rt3bzp27FiPpbw3dnZ29OnTh99++41Dhw4Z9PE5f/4869evx83NjcGDB/Poo48yYcIE/vWvf1X65+3tTatWrXjxxReZMGGCvlnLzc2N7t27Exsby4ULF/TrLiwsZPPmzbi7u9OzZ0+DsqSkpPD9998blOXKlSt8+eWXNG3alP79+wPQrFkznnjiCXJycti5c6c+rOk6gx85cqTSt8WH1cCBAxk5ciQpKSnk5ubWd3GEuG9ZWVnY2dnpQ1FcXBx79+5l1KhRKBQKFAoFISEhnDhxgpiYGJKTk5kyZQqBgYHyWJBGxMrKijZt2vDzzz9z8uRJ/esVFRXs2rWLQ4cOMXjw4Ht6QkNDYTI1RYD+2VqbN2/m6NGj9OvXTz8kv2XLlgQHB5vUTjA3NycgIIAzZ85U6qyWkJCAQqFg3rx5tGvX7r7Wb21tzfjx43nrrbf417/+xdNPP61/9plSqSQsLExfk6Mryx9//MHChQv55ptv8PHx4caNG3z//fdcuXKFadOm6e9cC9C3b1/++c9/snHjRv3zb86dO8exY8fo3r07I0aMkKHo3O7fNX78eH755RfS0tLquzhC3BfdCDNdv6D09HQ2bNhAeHi4/ssVgI2NDfPmzWPGjBnk5ubi5+enb1oTjYO5uTnPP/88hw8f5o033mDw4MG4uLiQkpJCSkoKzz77bJUPxm7oTCoUWVlZMWPGDB5//HG2bdvGli1bsLKyYvjw4QQFBZlkU429vT0rVqzg22+/5bvvvmPTpk1YW1szfPhwXnnllb88lNvHx4f169fz2WefsXPnTjQaDT169GDevHn06dPHILTY29uzbNkyvv32W3bu3ElkZCQWFhb079+fV199le7duxvMb2VlRVhYGJ07d+abb75h06ZN2NnZERQUxCuvvEKrVq3+Utkbkzub0YQwRboRZvPnzyc9PZ0ZM2bg6+tbqQZozZo1REZG4ufnR79+/Thy5Ai5ubnSdNbItG/fnrVr1+pvpHz16lU8PDx49913eeqpp+7pCQ0NiZm2BkNi0tLScHd3N/iWK/dd+R/ddpFtUjtkezYssj/qTlHbTgDYXjpf5Ty683Fd0z3YNSQkhOXLl+Po6KjvN6SbHhkZaTDYA/53V+rTp0/rHxz759drQ10P99ftq5If9smxYWKqO6eZVE2REEKIuqd7rtmMGTOwsbFh0aJFwO0mtUWLFrF3714CAwNJSkqqtKyNjQ0RERHA7eA0ZcoU/WM+dK8L0VBIKBJCCFGtO4PNnRQKBYsWLdKHpLuZPn26Qe2SEA2NyYw+E0IIIYR4kCQUCSGEEEIgoUgIIYQQApBQJIQQQggBSCgSQgghhAAkFAkhhBBCABKKhBBCCCEACUVCCCGEEICEIiGEEEIIQEKREEIIIQQgoUgIIYQQApBQJIQQQggBSCgSQgghhAAkFAkhhBBCABKKhBBCCCEACUVCCCGEEICEIiGEEEIIAJre74JpaWm1WY5GQbZJ7ZLt2bDI/njwbP77827bWvZF/bO543fZH6bD3d292un3HYpcXV3vd9FGJysrC5BtUltkezYssj/qzvX//qxuW2dlZcm+aACu3/G77I/GQ5rPhBBCCCGQUCSEEEIIAUgoEkIIIYQAJBQJIYQQQgASioQQQgghAAlFQgghhBCAhCIhhBBCCEBCkRBCCCEEIKFICCGEEAKQUCSEEEIIAUgoEkIIIYQAJBQJIYQQQgASioQQQgghAAlFQgghhBCAhCIhhBBCCEBCkRBCiFqSkpLCunXr6rsYQtw3CUVCCCFqRXZ2NtHR0cTGxtbK+kpKSpg8eTKTJ0+mpKSkVtYpRHUkFAkhhKgVQ4cOxdfXlx07dkiIESapaX0XoKYyMjKYNWsWeXl51c4XFhbGiBEj6qhUteP7779n9uzZRqc5OTnxwQcf0L59e6PTKyoq2LBhA3FxcVXOl5OTw/r16zl06BAajQYvLy8CAwPp1asXZmZmwO1vZG+++SapqanVlnXcuHFMnTpV//8rV67w1VdfERMTg1KpxM3Njeeee45nn32W5s2b13QTmDSVSsWSJUtISEjg7bffZtiwYUbn021jgGXLlmFjY1OXxXzoVVRUEBkZSWZmJm+99RYKhaK+i2RyanqeAHjmmWeqnNatWzc5Bhq4+zlefvrpJ2bPns3MmTNN7jqsYzKhqGnTprRr1w5bW9tK0zQaDdnZ2ZSVldGyZct6KN1fc/78ef37s7S0NJjWsmVLmjatejf99NNPbN26FXt7e6PTU1JSCA8PR61WM3z4cCwsLDh48CCzZs0iNDSUZ555BjMzM5o0aYKzszNardboevLz81EqlbRq1Ur/mlKpJDw8nJSUFLy8vPD39ycrK4t169Zx7Ngx5s6di52d3X1sEdNUXl5OZGQkXbt2pV27dvVdHHEHrVZLUlIS27Zt48knn6zv4pg8U/zyKWrufo6Xy5cv8/HHH1NaWvqAS/dgmUwocnV1ZeXKlUanJSUlMXv2bMaPH0///v3ruGR/jVqtJj8/n65du/L+++9jbW1d42Wzs7NZu3Yt5eXlRqdfv36dbdu20aJFC1avXk2HDh2A27U94eHhbN26lR49etCmTRusra1ZsGCB0fWkp6fz9ttv4+Pjw6hRo4Db3yK2bt1KSkoKwcHBTJgwAXNzc7RaLcePHyc8PJyoqCimT5+Oubn5PW4V05WZmUl0dDRvvPGG1EQ0EBqNhv379/PBBx9w7dq1+i5OoxIbG8vixYtZu3Yt3t7exMbGsmPHDoNaoHXr1nH58mWpnTMR93O83Lp1i4iICM6dO/eAS/fgmXyfouzsbFauXMljjz3G6NGjTe4CXFpaSmZmJm3atLmnE8atW7fYsmULtra2DB061Og86enpJCUlMWzYMINmNTs7OwICArh06RIpKSnV/p2rV6/y4YcfAjB+/Hh9k1h+fj6JiYn06tWLF198Ub/dzczM6N27N35+fhw6dIhLly7V+D2ZOicnJ7y8vNi3bx8HDhyostZN1J2ioiJWrlzJu+++S+fOnXFycqrvIjUaKpWKpKQkfH198fDwAKh0LlOpVIwdOxYHBwcGDx4sI9MauPs9Xg4fPswPP/zAuHHjHnAJHzyTDkUVFRV8/fXXFBYWEhwcTOvWreu7SPesuLiYwsJC3NzcsLCwqPFy8fHx/PDDDwQHB1f5wT1z5gylpaV069ZN33dIx83NDVdXV1JTU7l165bR5bVaLfv27SM5OZnAwECDJqHi4mIuX76Mh4dHpdotc3NzOnXqRF5eHjk5OTV+T6bOzs6O1157DRcXF6KiosjIyKjvIj30vvzyS3bs2MHYsWOZM2fOQ9Wc+6Dl5eXx66+/0rt3bxQKBSUlJaSkpODg4KAPRQqFAhsbG6ZOncru3bsZNWoUKpXKYD2xsbH07dvX6L9nnnmG1NRUUlNTeeaZZ6qcT8JW7bif4+XixYt8+umnjB49Gh8fnzoo5YNlMs1nxqSkpBAbG8uIESPo3r17fRfnviiVSvLz89FqtSxdupSEhATKysrw8vIiICCA3r1706SJYXZNT08nMjKS0aNH0717dxITE42uu7CwECcnJ6P9jaysrGjRogVFRUXcunWLZs2aVZrn4sWLfPHFF/Tt25cBAwYYTCsvL0etVt/1/RUVFd11nsakXbt2BAYG8t577xEdHU1ISMhD0+G8IXJ2duaTTz6hS5cuXLlypb6L06icPn2avLw8Fi9ezOLFi/Wvp6amEh0dXe2yvr6++ua0ESNGVNk/SQYn1K17PV7KysrYvHkzjz76KM8//3yj+CJosqFIpVIRGxuLlZUVw4YNM7lmM520tDQANm3ahJeXF6NHj+bKlSvEx8cTEhJCUFAQgYGB+vdXVlZGdHQ0Tk5OjBkzpsr3rVarUSqVVf5dS0tLnJ2dyc3NRa1WY2VlZTC9oqKCuLg4CgsLCQkJ4ZFHHjGYbmtri6OjI5cvX0alUhk0/VVUVJCenn5f26MxeOqpp0hOTmbfvn307NlT35ld1L3nn3++vovQaP05zBjrTyRMy70cL1qtloSEBI4dO8b7779P69atG0UoMtnms/Pnz/Pjjz8yePBgOnbsWN/FuS8ajYYbN27g6OjIsmXLWL16NVOmTOHNN98kKiqKxx9/XN+ZGQw/hJMnT662U7ZGo6GioqLK6boRZ1XJy8sjISGBvn37Gq2Fc3Jyok+fPiQkJLB//340Go1+mq4G72GlUCgYN26cNKOJh4auf9G99o0UpisjI4OoqChefvllunbtWt/FqTUmWVNUUVHBwYMHARgyZIjJ1hI1adKECRMmMGHChErTHBwcCAgI4D//+Q/Hjh2jV69epKens3Hjxhp9CJs0aVLtdtFqtQZB5s9++uknMjMzmTRpUqVaIoBmzZrxwgsvcPLkSd577z12796Nt7c3OTk5nDhxAn9/f3bt2lVtGRszY81oQjRWuv5FeXl5xMXFVTmf3J+ocSgrK+Pzzz/HycmJZ599tlHVhJtkKCouLiYlJQUPD49GfT8YXX+gwsJCioqK+PTTT3nsscd4/vnn6voafwAAIABJREFU7/ohtLCwqLaT3M2bN8nNzcXW1rZSB++ysjKSkpJwc3PTjyoxpkOHDqxZs4aoqCh2795Namoqffv2Zfny5ZSWlrJ169Zq77HU2P25Ga1fv371XSQh/pKSkhKjzfK7d+/W30MuODi4Uh8hXd8gb29vCUQmTqvVEhsbyy+//MKyZcvu6TYypsAkr1iXLl3iwoULTJw40SRv1ngnjUaDSqWiefPmVQYdc3NzioqKOHfuHHl5efj6+hqdb+zYsQZ3wHZ1dSUvL4/i4uJKd7ouLS3lxo0bdOzYsVIn6/z8fH7//Xd69+6Ng4NDteW3tbXl9ddf5/XXXzd4PSYmBisrK9q2bXu3TdBoKRQKgoKC+O2334iKisLZ2bm+iyRErWjTpo3+94yMDOLj4wkODgZgx44d9O/f3yD8bN26FaVSWe1droVpuHnzJqmpqRQWFhpt5QD0ne9N8SafJhmKzp8/T3l5udGh5qakoKCAkJAQLC0tef/99yt9g7pw4QJ5eXm4ubnRunVrnnvuOaMjvn7++Wf++OMP/Pz8cHBw0Dd3/e1vf8PKyopff/2VHj16GGyrjIwMMjIyGDt2bKVQlJOTQ15eHp6enkZHpcHtG0MuWrQIrVbLvHnzDDpql5WVcezYMTw8PB7qUAS3Lx4TJ07knXfeYcOGDSiVShkWLkxWcXExgP72JyqVioiICLp3766/X1pSUhJbt27VPw4oJSWF6OhowsLCqnxckTAd5ubm9OnTB1dX10rT8vPz2bVrF/379+exxx4zyfO/yYUitVrN2bNnadOmDY6OjvVdnL/E1taW3r178/XXX3P48GGGDx+u7/x84cIFPvvsM9zc3Bg0aBD29vaMHz/e6HrUajUFBQWMGTPG4KTTtm1bPD092bNnD/369dN3SFcqlWzZsoUOHTrg7e1daX2nT5/WP3akKs2bN6dNmzbs2LGDU6dO8cQTTwC3+3vt2bOHH3/8kZkzZza6qtX7MWDAAEaMGMF3330HIKFImKzs7Gzs7Oz0X+Di4+OJi4tj7dq1+g7WM2fO5M033yQ2NpY2bdowbdo0xo0bZ3I1BsK4Zs2aMXz4cKPTUlJS2LVrFwMHDjTZ/W1yoUilUpGdnY2NjY3JN52Zm5szduxYfv/990qdlQ8ePIilpSVz5szBzc3tvtZvbW3NuHHjmD17NtOmTWPo0KH6Z58plUpCQ0NxcXExWEb32BF7e3uD55wZK/vIkSM5cuQIoaGhDBo0CBcXF1JSUjh58iT+/v5VPhj1YdOsWTNeffVVTp48+VDfqkCYNt0IM12/oIyMDDZt2kRYWJjBlysbGxtmz56tf4C3r6+vvmlNiIbO5Ibk64aaN5ahn3Z2dixdupRp06ZRXFxMREQEiYmJDBs2jPXr1zNgwIC/1ETYu3dvPvroI3r16sWuXbv4f//v/+Hq6soHH3xg9P45uu1757fBqrRr145Vq1YxbNgwEhMTiYiI4ObNm8yfP19uWvgnuma0h7njuTBtuhFmTz75JBkZGcyaNYuhQ4dWqhFYt24dY8eOpXv37owaNUo/Kk0IU2CmrcEDmtLS0nB3d9ffaBAw2p74sMrKygJkm9QW2Z4Ni+yPunP9b90AeOSP1CrnycrKqpd9oXuw68yZM1m1ahUODg76fkO66boby+oGe8D/Rp6lpqbqHxz759drQ10P99ftq5If9smxYUIsLCz0Wcbd3b3SdPnaKoQQolq655pNnToVGxsb3nnnHeB2k9qSJUuIi4tj3LhxHD16tNKyNjY2bNiwAbgdnKZNm6Z/zIfudSEaCglFQgghqnVnsLmTQqHgnXfe0Yeku5k6dapB7ZIQDY3J9SkSQgghhHgQJBQJIYQQQiChSAghhBACkFAkhBBCCAFIKBJCCCGEACQUCSGEEEIAEoqEEEIIIQAJRUIIIYQQgIQiIYQQQghAQpEQQgghBCChSAghhBACkFAkhBBCCAFIKBJCCCGEACQUCSGEEEIAEoqEEEIIIQAJRUIIIYQQgIQiIYQQQggAmt7vgllZWbVZjkZBtkntku3ZsMj+ePBs/vvzbtta9kX9s7njd9kfpsPd3b3a6VJTJIQQQgjBX6gpulvaepikpaUBsk1qi2zPhkX2R90p+u/P6rZ1Wlqa7IsGoOiO32V/NB5SUySEEEIIgYQiIYQQQghAQpEQQgghBCChSAghhBACkFAkhBBCCAFIKBJCCCGEACQUCSGEEEIAEoqEEEIIIQAJRUIIIYQQgIQiIYQQQghAQpEQQgghBCChSAghhBACkFAkhBBCCAFIKBJCCCGEACQUCSGEEEIAEoqEEELUkuTkZNasWVPfxRDivkkoEkIIUSuysrKIjIwkJiamVtZXUlJCUFAQQUFBlJSU1Mo6haiOhCIhhBC1wtfXFz8/P7Zv3y4hRpikpvVdgHtVVlbGt99+yzfffENmZiZ2dnb4+fkRGBiIra1tfRfvvhw4cIDQ0FCj05ydnVm9ejUdOnQwOr2iooL169ezd+/eKufLzs5m7dq1HDx4EI1GQ48ePQgODqZPnz6YmZkBt7+RzZw5k9OnT1db1sDAQKZPn67/f2PcH/dKpVKxaNEi4uPjmTt3LsOHDzc6n24bA6xatQobG5u6LOZDr6Kigk2bNnHx4kXmzJmDQqGo7yKZnJqeJwCGDh1a5TRPT085BhogtVrN999/T3R0NGfOnMHCwoKePXsybtw4fHx8aNKk+nqUxMREQkNDCQkJYeTIkXVU6tplUqHo6tWrzJs3j8OHD+Pt7c3QoUPJyspi27ZtHD58mOXLl+Pu7l7fxbxn586do2nTprRv3x5LS0uDadbW1jRtWvVuSkxMJCoqikcffdTo9OTkZN5++21u3bqFv78/lpaWHDhwgBkzZhAWFoa/vz9mZmY0adIEFxcXtFqt0fXk5eWhVCpp1aqV/rXGuj/uV3l5ORs3bqRbt260b9++vosj7qDVajl+/DhffPEFffv2re/imLzw8HCTvegJ40pLS1m6dCm7du2iY8eOBAYGcv36dfbv38/MmTMNrhfG5Ofn89FHH1FaWlrHJa9dJhWKDh48yOHDh5k8eTKTJk3C3NwcrVZLYmIib731Fjt27GDGjBmYm5vXd1FrTK1Wk5eXR7du3Vi5ciXW1tY1XjYrK4vVq1dTXl5udPr169fZunUrLVq0MAgo48ePJywsjOjoaHr27ImrqyvW1tYsXrzY6HrS0tIICQnh73//O2PGjNG/3hj3x1+VmZlJZGQkoaGhUhPRQGg0Gvbt28eyZcu4evVqfRenUYmJiWHBggV8+umn9OzZk5iYGLZv325QC7RmzRry8/Oldq6BO3r0KPv27WPixIlMnDgRCwsLAIKDg5k7dy4ff/wxHh4edOrUqdKyarWajRs3cvbs2boudq0zqT5FFy9exNHRkaefflp/oTUzM6Nr1664u7tz+vRpbty4Uc+lvDelpaVcvHgRV1fXezphqNVqNm/ejJ2dHb6+vkbnSUtL4/jx44wYMcKgWc3e3p6goCAyMzNJTk6u9u9cvXqVDz74AIAJEyZgZWWln9YY98df4ezsjLe3N3v27CEuLq7KWjdRd4qKili+fDnz58+nS5cuODs713eRGg2VSsXx48fx8/Oja9euAJXOZSqVioCAABwdHenfv7+MTGug1Go1hw8fxsXFBX9/f30gAnB0dOSll16ioKCAM2fOGF3+0KFDHDx4kPHjx9dVkR8Yk6opatq0KdeuXeP69esGr6vVatRqNc7OztU2NTVERUVFFBQUMHDgQIMP4t3s37+fgwcPsmTJEo4cOcKpU6cqzZOamkppaSmenp6Vqjzbt29P27ZtOXXqFMOGDaNZs2aVltdqtezZs4ekpCTmzp1bqUmoMe6Pv8LOzo6pU6eycOFCIiIi8PT0fKiaDxuiLVu2sH37dgICAhgzZkyVfffEvcvNzeXkyZNMnjwZhUJBSUkJJ06coFevXvpQpFAoUCgUTJ8+nYCAAMrKylCpVAZfAHW1TXdTXR+lP/d1FPdGpVJRVlZGx44djfYFbdmyZZXLZmRksG7dOl544QW8vLzYvHnzgyzqA2dSV6x//vOf7N+/nw8//JDw8HDc3Ny4du0aERERpKWl8eqrrxrUZJiCwsJC8vPz0Wq1vPvuuxw4cIDS0lJ69OhBUFCQ0c5taWlpbNy4Uf8hPHLkSJXrdnZ2NtrfyMrKihYtWlBUVMStW7eMhqKMjAyio6Pp378///jHPypNb4z746/q0KEDEydOZOHChfpmtIdtGzQkzs7ObNq0CQ8PD65cuVLfxWlUTp06RW5uLgsWLDAINadPnyYyMrLaZf38/PTNaSNHjqyyf5IMTqgb1tbWvP/++0anVVRUcOTIEZo2bYqrq6vBtNLSUj7//HMcHR0ZPXo0GRkZdVHcB8qkQpG7uzurVq1i4cKFjB49Wv+6q6sry5cvN8kOlH/88QcAGzZsoEePHowZM4YrV67oO7dNnDiR4OBgffNUaWkpkZGRuLi48NJLL1XZX0etVlNYWFjl37W0tMTFxYWcnBzUanWlC3dFRQV79+6loKCA0NBQHnnkkUrraIz7ozYMGTKEpKQk9uzZQ69evartnCgerDv7wIna9ecwY6w/kTB9J06cYOfOnfTv35/HHntM/7pWqyU+Pp7ExERWrFiBra2thKK6VlBQwLp16zh16hT9+/fHw8ODS5cukZCQwOrVq7G1tdW3bZsCjUbDjRs3cHR0ZM6cOfz973/XXzx1nduioqLw8vLCx8en0oewuk7ZGo2GioqKKqfrRpxVJTc3l/3799O/f3969OhhdJ7Gtj9qi0KhIDAwkJMnT0ozmngo6PoX3WvfSNGwnT59miVLlmBjY8PUqVMNvhynp6cTERHB2LFj8fT0rMdS1i6TCUUqlYoPP/yQ48ePs3LlSoMAcf78eUJDQ3n33Xf54IMPcHR0rOfS1kyTJk2YNGkSkyZNqjTN0dGRoKAgZs2aRWJiIn369CEtLY0NGzbU6EPYpEmTakd9abVaNBpNldMTExPJzMzktddeM1pL1Bj3R21q3759pWY0IRorXf+i3Nxc9u7dW+V8cn8i06C7hUV4eDgtWrRgwYIFBl/sSktL+eyzz3BxcWHUqFGNqibcZEafXbx4kePHjzNs2DB8fHwMdkKnTp147bXXOHv2bI1uKmYqdP2BCgoKKCoq4uOPP6Zz586MGTPmrh9CCwsL7O3tq5x+8+ZNcnJysLOzq9TBu7S0lJ9//hk3N7cqa3oexv1xr4YMGcKwYcPYt28f8fHxMhpNmLzi4mKUSmWl12NjY7G1tcXZ2Znw8HCSkpIM/sXHx+Pp6UmvXr0kEDVwFRUVfPvtt/zf//0fTk5OrFy50uBLuFarZefOnaSkpPDvf//7nm4jYwpMpqboxo0bFBUVoVAojNaA6AKAqQ0B12g0qFQqmjdvXmXQMTc3R6lUcvbsWXJzcxk0aJDR+V544QWDO2C7urqSm5tLcXFxpTtdl5aWcuPGDTp16lSpk3V+fj5nzpyhT58+ODg4GP1bjXV/1CaFQsHEiRNJTU0lIiICFxeX+i6SELXizg636enpxMXFMXnyZAC2b9/OwIEDDcJPVFQUSqWSESNG1HlZRc3dvHmTTz75hM2bN/OPf/yDt956q9JAnZs3b3Lq1CkKCgoYN26c0fXoOt+b4k0+TSYUtWjRAltbW4qLi1Gr1ZVqN3Sdik1pCPjly5eZOXMmCoWCFStW0Lp1a4Pp58+fJzc3l3bt2tG6dWtGjRqFWq2utJ6ffvqJCxcuMHz4cBwcHPTNXZ06dcLKyopffvkFb29vg9CVlpZGeno6AQEBlUJRdnY2ubm5PP7441XeJqAx7o8HwdXVlSlTpjBnzhw++eQTlEoldnZ29V0sIe5LcXExgP5cpVKp2LhxI15eXvr7pR0/fpyoqCj9EPnk5GQiIyMJDw+v8nFFov5VVFQQERHB5s2befnll5k6darRkbPm5uY88cQTtG3bttK0vLw8du7cycCBA+ncuTNubm51UfRaZTJXrLZt29KjRw8OHjzI008/bdCHJScnh23btuHu7k737t3ruaQ1Z2dnR58+fdi2bRuHDh3C399f3/n5/PnzrF+/Hjc3NwYPHsyjjz7KhAkTjK5HrVZTUFDAiy++aHDScXNzo3v37sTGxjJgwAD9nUgLCwvZvHkz7u7u9OzZs9L6Tp06RdOmTas9gTXG/fGgDBw4kJEjR7J9+3YACUXCZGVlZWFnZ6cPRXFxcezdu5dPP/1U38E6JCSEmTNnEhMTo/9SEBgYaHI1Bg8TrVbLrl27+Pzzzyvd0frPmjVrhr+/v9FpycnJ7Ny5k0GDBpns/jaZUGRlZcVrr73GW2+9xf/93//Ro0cPunfvTl5eHj/++CMAb731Fm3atKnnktacubk5AQEBnDlzhoULFxIbG4u3tzc5OTkkJCSgUCiYN28e7dq1u6/1W1tbM378eN566y3+9a9/8fTTT+uffaZUKgkLC6u0vXSPHXn00UcNnnP2Z41xfzwoFhYWjB8/nl9++YW0tLT6Lo4Q90U3wkzXLyg9PZ0NGzYQHh5u8OXKxsaGefPmMWPGDHJzc/Hz89M3rYmGqbCwkG+++Yby8nIOHDjAsWPHjM4XEBBQ7U00GwOTCUVw+74469ev56uvvmL37t0kJSVhbW3NkCFDeOWVV0xy2LO9vT0rVqzg22+/5bvvvmPTpk1YW1szfPjwWnlPPj4+rF+/ns8++4ydO3ei0Wjo0aMH8+bNo0+fPpX6MemG8t/5bbAqjXF/PCh3NqMJYYp0I8zmz59Peno6M2bMwNfXt1KNwJo1a4iMjMTPz49+/fpx5MgRcnNzpemsAbt06RK//fYbQLX3GjL1h73WhJm2BkNi0tLScHd3N/iWKxe8/9FtF9kmtUO2Z8Mi+6PuFLW93cRte+l8lfPozsd1Tfdg15CQEJYvX46jo6PBozV0YejOwR7wv7tSnz59Wv/g2D+/Xhvqeri/bl+V/LBPjg0TU905zaRqioQQQtQ93XPNZsyYgY2NDYsWLQJuN6ktWrSIvXv3EhgYSFJSUqVlbWxsiIiIAG4HpylTpugf86F7XYiGQkKREEKIat0ZbO6kUChYtGiRPiTdzfTp0+XBraJBM5mbNwohhBBCPEgSioQQQgghkFAkhBBCCAFIKBJCCCGEACQUCSGEEEIAEoqEEEIIIQAJRUIIIYQQgIQiIYQQQghAQpEQQgghBCChSAghhBACkFAkhBBCCAFIKBJCCCGEACQUCSGEEEIAEoqEEEIIIQAJRUIIIYQQgIQiIYQQQghAQpEQQgghBABN73fBtLS02ixHoyDbpHbJ9mxYZH88eDb//Xm3bS37ov7Z3PG77A/T4e7uXu30+w5Frq6u97too5OVlQXINqktsj0bFtkfdef6f39Wt62zsrJkXzQA1+/4XfZH4yHNZ0IIIYQQSCgSQgghhAAkFAkhhBBCABKKhBBCCCEACUVCCCGEEICEIiGEEEIIQEKREEIIIQQgoUgIIYQQApBQJIQQQggBSCgSQgghhAAkFAkhhBBCABKKhBBCCCEACUVCCCGEEICEIiGEEEIIQEKREEIIIQQgoUgIIUQtSUlJYd26dfVdDCHum4QiIYQQtSI7O5vo6GhiY2NrZX0lJSVMnjyZyZMnU1JSUivrFKI6EoqEEELUiqFDh+Lr68uOHTskxAiT1LS+C3Cvrly5wldffUVMTAxKpRI3Nzeee+45nn32WZo3b17fxbsv33//PbNnzzY6zcnJiQ8++ID27dsbnV5RUcGGDRuIi4urcr6cnBzWr1/PoUOH0Gg0eHl5ERgYSK9evTAzMwNufyN78803SU1Nrbas48aNY+rUqWRkZDBr1izy8vKqnT8sLIwRI0ZUO4+pU6lULFmyhISEBN5++22GDRtmdD7dNgZYtmwZNjY2dVnMh15FRQWRkZFkZmby1ltvoVAo6rtIJqem5wmAZ555pspp3bp1k2OggavJ8dIYr8cmFYqUSiXh4eGkpKTg5eWFv78/WVlZrFu3jmPHjjF37lzs7Ozqu5j37Pz58zRt2pR27dphaWlpMK1ly5Y0bVr1bvrpp5/YunUr9vb2RqenpKQQHh6OWq1m+PDhWFhYcPDgQWbNmkVoaCjPPPMMZmZmNGnSBGdnZ7RardH15Ofno1QqadWqFYC+vLa2tpXm1Wg0ZGdnU1ZWRsuWLWu6GUxeeXk5kZGRdO3alXbt2tV3ccQdtFotSUlJbNu2jSeffLK+i2PyHoYvOw+zmhwvjfV6bDKhqKKigq1bt5KSkkJwcDATJkzA3NwcrVbL8ePHCQ8PJyoqiunTp2Nubl7fxa0xtVpNfn4+Xbt25f3338fa2rrGy2ZnZ7N27VrKy8uNTr9+/Trbtm2jRYsWrF69mg4dOgC3a3vCw8PZunUrPXr0oE2bNlhbW7NgwQKj60lPT+ftt9/Gx8eHUaNGAeDq6srKlSuNzp+UlMTs2bMZP348/fv3r/H7aQwyMzOJjo7mjTfekJqIBkKj0bB//34++OADrl27Vt/FaVRiY2NZvHgxa9euxdvbm9jYWHbs2GFQC7Ru3TouX74stXMmoibHS2O9HoMJ9SnKz88nMTGRXr168eKLL+o3tJmZGb1798bPz49Dhw5x6dKlei7pvSktLSUzM5M2bdrc0wnj1q1bbNmyBVtbW4YOHWp0nvT0dJKSkhg2bJhBs5qdnR0BAQFcunSJlJSUav/O1atX+fDDDwEYP378XatEs7OzWblyJY899hijR482uQPir3BycsLLy4t9+/Zx4MCBKmvdRN0pKipi5cqVvPvuu3Tu3BknJ6f6LlKjoVKpSEpKwtfXFw8PD4BK5zKVSsXYsWNxcHBg8ODBMjKtgavp8dJYr8dgQqGouLiYy5cv4+HhUak2xdzcnE6dOpGXl0dOTk49lfD+FBcXU1hYiJubGxYWFjVeLj4+nh9++IHg4OAqP7hnzpyhtLSUbt266fsO6bi5ueHq6kpqaiq3bt0yurxWq2Xfvn0kJycTGBh41yahiooKvv76awoLCwkODqZ169Y1fj+NgZ2dHa+99houLi5ERUWRkZFR30V66H355Zfs2LGDsWPHMmfOHJOszm+o8vLy+PXXX+nduzcKhYKSkhJSUlJwcHDQhyKFQoGNjQ1Tp05l9+7djBo1CpVKZbCe2NhY+vbta/TfM888Q2pqKqmpqTzzzDNVzidhq3bU9HhprNdjMKHms/LyctRq9V3nKyoqqoPS1B6lUkl+fj5arZalS5eSkJBAWVkZXl5eBAQE0Lt3b5o0Mcyu6enpREZGMnr0aLp3705iYqLRdRcWFuLk5GS0v5GVlRUtWrSgqKiIW7du0axZs0rzXLx4kS+++IK+ffsyYMCAu76XlJQUYmNjGTFiBN27d6/hFmhc2rVrR2BgIO+99x7R0dGEhISYbIfDxsDZ2ZlPPvmELl26cOXKlfouTqNy+vRp8vLyWLx4MYsXL9a/npqaSnR0dLXL+vr66pvTRowYUWX/JBmcULdqerw01usxmFAosrW1xdHRkcuXL6NSqQyamioqKkhPT6/H0t2/tLQ0ADZt2oSXlxejR4/mypUrxMfHExISQlBQEIGBgfrqybKyMqKjo3FycmLMmDFVNk+p1WqUSmWVf9fS0hJnZ2dyc3NRq9VYWVkZTK+oqCAuLo7CwkJCQkJ45JFHqn0fKpWK2NhYrKysGDZs2EPVbPZnTz31FMnJyezbt4+ePXvqO7OLuvf888/XdxEarT+HGWP9iYRpqenx0livx2BCzWdOTk706dOHhIQE9u/fj0aj0U/T1VCYGo1Gw40bN3B0dGTZsmWsXr2aKVOm8OabbxIVFcXjjz+u78wGt5uzEhISOHbsGJMnT662U7ZGo6GioqLK6boRZ1XJy8sjISGBvn371qjW5/z58/z4448MHjyYjh073nX+xkyhUDBu3DhpRhMPDV3/onvtGylMU2O8HuuYTE1Rs2bNeOGFFzh58iTvvfceu3fvxtvbm5ycHE6cOIG/vz+7du2q72LekyZNmjBhwgQmTJhQaZqDgwMBAQH85z//4dixY/Tq1Yv09HQ2btzIyy+/TNeuXe+67upqa7RarcEH+c9++uknMjMzmTRp0l1riSoqKjh48CAAQ4YMeahriXSMNaMJ0Vjp+hfl5eURFxdX5Xxyf6LGoTFej3VMJhQBdOjQgTVr1hAVFcXu3btJTU2lb9++LF++nNLSUrZu3VrtPX1Mja4/UGFhIUVFRXz66ac89thjPP/883dtjrGwsKi2U+nNmzfJzc3F1ta2UgfvsrIykpKScHNz048qqU5xcTEpKSl4eHjI/Xnu8OdmtH79+tV3kYT4S0pKSow2y+/evVt/z7Lg4OBKfYR0fYO8vb0lEDUSjfV6bHIltrW15fXXX+f11183eD0mJgYrKyvatm1bTyW7PxqNBpVKRfPmzasMOubm5hQVFXHu3Dny8vLw9fU1Ot/YsWMN7oDt6upKXl4excXFle50XVpayo0bN+jYsWOlTtb5+fn8/vvv9O7dGwcHh7u+h0uXLnHhwgUmTpz4UN2s8W4UCgVBQUH89ttvREVF4ezsXN9FEqJWtGnTRv97RkYG8fHxBAcHA7Bjxw769+9vEH62bt2KUqms9i7XwvQ0tusxmFAoun79OosWLUKr1TJv3jyDjsFlZWUcO3YMDw8Pk9oJBQUFhISEYGlpyfvvv1/pG9SFCxfIy8vDzc2N1q1b89xzzxnt8f/zzz/zxx9/4Ofnh4ODg765629/+xtWVlb8+uuv9OjRwyB0ZWRkkJGRwdixYyuFopycHPLy8vD09DQ6Ku3Pzp8/T3l5udGh/w+7Nm3aMHHiRN555x02bNiAUqmUYeHCZBUXFwPob7ehUqmIiIige/fu+vulJSUlsXXrVqZOnQrc7mMSHR2ceRaBAAAgAElEQVRNWFhYlY8rEqalMV6PdUwmFDVv3pw2bdqwY8cOTp06xRNPPAHc7s+yZ88efvzxR2bOnHlPd4Sub7a2tvTu3Zuvv/6aw4cPM3z4cH3n5wsXLvDZZ5/h5ubGoEGDsLe3Z/z48UbXo1arKSgoYMyYMQYnnbZt2+Lp6cmePXvo16+fvgO0Uqlky5YtdOjQAW9v70rrO336tP4xHnejVqs5e/Ysbdq0wdHR8X42Q6M3YMAARowYwXfffQcgoUiYrOzsbOzs7PRf4OLj44mLi2Pt2rX6DtYzZ87kzTffJDY2ljZt2jBt2jTGjRsnjwVpRBrj9VjHZEKRubk5I0eO5MiRI4SGhjJo0CBcXFxISUnh5MmT+Pv7V/kgzobK3NycsWPH8vvvv1fqrHbw4EEsLS2ZM2cObm5u97V+a2trxo0bx+zZs5k2bRpDhw7VP/tMqVQSGhqKi4uLwTK6x47Y29vrn3NWHZVKRXZ2NjY2NtJ0VoVmzZrx6quvcvLkSZMeqioebroRZrp+QRkZGWzatImwsDCDL1c2NjbMnj1b/8BoX19ffdOaaBwa4/VYx2RCEdwe0bNq1SoiIyNJSEjg2rVrdOnShfnz5zNo0KAaNfU0NHZ2dixdupQdO3awc+dOIiIiaNmyJcOGDePFF1/UP6/sfvXu3ZuPPvqIzz//nF27dqHRaPDy8mL27Nn06tWrUnOXbij/nd8Gq6ObX4biVu/OZjQhTJFuhNncuXPJyMhg1qxZDB06tFIN0Lp164iOjsbX15e+ffty9OhR8vLypOmskWmM12MAM20NHtCUlpaGu7u7/kaDcPuBoOK2rKwsQLZJbZHt2bDI/qg71//WDYBH/kitcp6srKx62Re6B7vOnDmTVatW4eDgoO83pJuuu7GsbrAH/G/kWWpqqv7BsX9+vTbU9XB/3b4q+WGfHBsmxMLCQp9l3N3dK003qZoiIYQQdU/3XLOpU6diY2Ojr/FUqVQsWbKEuLg4xo0bx9GjRysta2Njw4YNG4DbwWnatGn6x3zoXheioZBQJIQQolp3Bps7KRQK3nnnnRo3C0+dOtWgdkmIhsZkHvMhhBBCCPEgSSgSQgghhEBCkRBCCCEEIKFICCGEEAKQUCSEEEIIAUgoEkIIIYQAJBQJIYQQQgASioQQQgghAAlFQgghhBCAhCIhhBBCCEBCkRBCCCEEIKFICCGEEAKQUCSEEEIIAUgoEkIIIYQAJBQJIYQQQgASioQQQgghAAlFQgghhBAANL3fBbOysmqzHI2CbJPaJduzYZH98eDZ/Pfn3ba17Iv6Z3PH77I/TIe7u3u106WmSAghhBCCv1BTdLe09TBJS0sDZJvUFtmeDYvsj7pT9N+f1W3rtLQ02RcNQNEdv8v+aDykpkgIIYQQAglFQgghhBCAhCIhhBBCCEBCkRBCCCEEIKFICCGEEAKQUCSEEEIIAUgoEkIIIYQAJBQJIYQQQgASioQQQgghAAlFQgghhBCAhCIhhBBCCEBCkRBCCCEEIKFICCGEEAKQUCSEEEIIAUgoEkIIIYQAJBQJIYSoJcnJyaxZs6a+iyHEfZNQJIQQolZkZWURGRlJTExMrayvpKSEoKAggoKCKCkpqZV1ClEdCUVCCCFqha+vL35+fmzfvl1CjDBJTeu7ADWhUqlYunQptra2TJ8+3eg8RUVFREREEBsby9WrV/Hw8CAgIIAhQ4Zgbm5exyW+NwcOHCA0NNToNGdnZ1avXk2HDh2MTq+oqGD9+vXs3bu3yvmys7NZu3YtBw8eRKPR0KNHD4KDg+nTpw9mZmbA7W9kM2fO5PTp09WWNTAw0GAfaDQajh8/TkREBL/88gtNmjShf//+BAcH07lzZ/36GzOVSsWiRYuIj49n7ty5DB8+3Oh8um0MsGrVKmxsbOqymA+9iooKNm3axMWLF5kzZw4KhaK+i2RyanqeABg6dGiV0zw9PeUYaIDUajXff/890dHRnDlzBgsLC3r27Mm4cePw8fGhSRPDepSysjK+/fZbvvnmGzIzM7G2tuaJJ54gMDDQZM//DT4UaTQa9u3bx549e3j11VeNzpOZmUlISAhZWVkMHjwYR0dHjhw5QlhYGJMnT2bSpEkNOhidO3eOpk2b0r59eywtLQ2mWVtb07Rp1bspMTGRqKgoHn30UaPTk5OTefvtt7l16xb+/v5YWlpy4MABZsyYQVhYGP7+/piZmdGkSRNcXFzQarVG15OXl4dSqaRVq1b61yoqKti6dStr167Fzs6OF198kZs3b7J//36SkpJYsmQJPj4+97FFTFN5eTkbN26kW7dutG/fvr6LI+6g1Wo5fvw4X3zxBX379q3v4pi88PBwRo4cWd/FELWotLSUpUuXsmvXLjp27EhgYCDXr19n//79zJw50+B6AVBYWEhYWBjJycl4e3szdOhQcnJySEhI4KeffjLZ83+DDkVqtZovv/ySdevWUV5ebnSeiooKvv76awoLC1m1apV+J0ycOJGlS5eybds2+vbty+OPP16XRa8xtVpNXl4e3bp1Y+XKlVhbW9d42aysLFavXl3ltrl+/Tpbt26lRYsWLF++HHd3dwDGjx9PWFgY0dHR9OzZE1dXV6ytrVm8eLHR9aSlpRESEsLf//53xowZo3/9t99+4/PPP8fX15fQ0FBatGgBwEsvvURISAiRkZF4eHjQsmXLGr8nU5eZmUlkZCShoaFSE9FA6L5YLVu2jKtXr9Z3cRqVmJgYFixYwKeffkrPnj2JiYlh+/btBrVAa9asIT8/X2rnGrijR4+yb98+Jk6cyMSJE7GwsAAgODiYuXPn8vHHH+Ph4UGnTp3QarXExsby66+/MnfuXPz9/fW1SOfPnyc0NJSPPvqIFStWVPmFvaFqsH2KsrOzCQsLY926dfj4+GBra2t0vtzcXI4cOcKgQYPo0aOH/nUrKyvGjRuHpaUlhw4dqrIGpL6VlpZy8eJFXF1d7+mEoVar2bx5M3Z2dvj6+hqdJy0tjePHjzNixAiDZjV7e3uCgoLIzMwkOTm52r9z9epVPvjgAwAmTJiAlZUVALdu3SImJgYbGxumTJmiD0QAHTp0YMiQIWRnZ1NQUFDj92TqnJ2d8fb2Zs+ePcTFxTXYz9zDpKioiOXLlzN//ny6dOmCs7NzfRep0VCpVBw/fhw/Pz+6du0KUOlcplKpCAgIwNHRkf79+8vItAZKrVZz+PBhXFxc8Pf31wciAEdHR1566SUKCgo4c+YMANeuXePw4cN4e3vz1FNPGTSrderUiREjRvDbb79x6dKlOn8vf1WDrClSqVR8/PHHHD16lP/85z88/vjjzJo1y+i8GRkZZGZmEhAQYLAjAZycnHB3d+e3337j+vXrDbLGoqioiIKCAgYOHFip/NXZv38/Bw8eZMmSJRw5coRTp05Vmic1NZXS0lI8PT0rte22b9+etm3bcurUKYYNG0azZs0qLa/VatmzZw9JSUnMnTvXoEno2rVrnD17lieffLLShcbMzIxp06Yxbdq0Gr+fxsDOzo6pU6eycOFCIiIi8PT01NfOifqxZcsWtm/fTkBAAGPGjKmy7564d7m5uZw8eZLJkyejUCgoKSnhxIkT9OrVSx+KFAoFCoWC6dOnExAQQFlZGSqVyuALoK626W7+f3v3HhZltS9w/KsgjpgIgiCIqASalwS8ZYraMSJK85xKLUmEJKxtT25PaXg3L1mWtju1M+9y07bP6ZgKbhUvmT2KGqFu8ZKXQYmrXLUYx8GZOX+4Z3KcGbwRzMDv8zw+6rxrXta8L/O+v3et31qrphylO3Mdxf1Rq9Vcv36dgIAAiw0Qd947r169ioODAwEBASYPxAZubm5/Wl3/bDYZFAF06dKFv/zlL7Rv356cnByr5crLywHo2LGj2bZmzZrh5uaGUqnk+vXrNhkUlZaWUlxcjF6v58MPP2Tv3r2oVCqCg4OJiYmxmNymVCpZu3Yto0ePJigoiIMHD1rdt7e3t8XmS2dnZ1q2bEl5eTnV1dUWg6JLly6RkpJCaGgoQ4cONdlWWVlJWVkZAQEBXLlyhXXr1rF3717UanWjS7S+XefOnYmNjWXhwoXGbjRD65qoe97e3qxbt45u3bpx9erV+q5Og3Ly5EkKCwtZsGCBSVCTnZ1NYmJije+NiIgwdqeNHDnSan6SDE6oGy4uLnzyyScWt2m1Wg4ePIijoyO+vr4AdOjQgVWrVlksr1KpyMjIwNvb2y6DI5sMihQKBePHj7+nsvn5+Va3NW/enLZt23LixAmqqqpqq3q16uLFiwCsXr2a4OBgRo0axdWrV43JbbGxsUyYMMGYKK5SqUhMTMTHx4dXXnnFagK5RqOhtLTU6s9t3rw5Pj4+FBQUoNFozG7cWq2WnTt3UlJSQnx8PI888ojJ9srKSoqLizlz5gzJycm0bNmSF198keLiYvbt29coE60Nnn76aTIzM9mxYwd9+vQxSU4Udev2HDhRu+4MZizlEwn79/PPP5OamkpoaChdunSpsaxer2fPnj0cOHCA0aNH4+fnV0e1rD02GRTdD2tJxoBxVJWt0ul0VFVV4eXlxezZsxkwYIDx5mlIbktOTiYoKIj+/fsbf+EyMjJYtmxZjUnZOp0OrVZrdfvdjk1hYSG7d+8mNDTUJFfrTps3bzYb4WfviXYPS6FQEB0dzYkTJ6QbTTQKhvyi+82NFLYtOzubjz/+GFdXVyZNmmT2cHw7vV7PgQMH+Pzzz+nVqxfR0dE2PerbGtuNGO5RTcPV9Xo9Op2uDmtzf5o2bcobb7zB9u3befLJJ01aE7y8vIiJiUGj0ZCRkYFer0epVLJ69WoiIyPp2bPnXfdd0y/k3Y5NRkYGubm5hIeH1/hF6NevH2PHjjX5WYGBgYwePZrTp0/zyy+/1FjPhqpTp07ExsZSUFBAYmIiKpWqvqskxJ/GkF+0c+dOQkND6du3r8U/MjO1fdDr9Rw5coT33nsPgAULFtT4YKfT6UhNTWXGjBl07tyZDz74AA8Pj7qqbq2y+5ai9u3bW91248YNSkpKaNWqlcVkMFtnyAcqKSmhvLycr7/+mq5duzJq1Ki7dsc4OTnV+Et548YNCgoKcHd3N0vwVqlU/PTTT/j5+RlHldypadOmxj7mFi1amG3v2rUr8EfOV2N0Zzfa4MGD67tKQjyUiooKysrKzF5PS0szJujGxcWZ5QgZcoP69OkjXWs2TqvVsnXrVpYuXUpgYCALFiywmLNrcOPGDdasWUNycjKDBg1i1qxZVkeL2wO7D4ratWsH3Jqzp3fv3ibbqqurqaiowM3NzeKN2xbodDrUajUtWrSwGug4ODhQVlbGL7/8QmFhIU899ZTFcqNHjzaZAdvX15fCwkIqKirMZrpWqVRUVVURGBholmRtyBXq168fnp6eFn9WmzZtaNeuHRqNxuLQ85q6NRsLhUJBbGwsp06dIiEhAR8fn/qukhC1wpBwC5CTk0N6ejpxcXHArS71IUOGmAQ/ycnJlJWVMWLEiDqvq7h3N27cYOXKlSQlJTF06FCmT59eY/rD1atXWbJkCenp6YwZM4a3337bLhsgbmf3QZGvry+dO3fm+PHjREREmLR6FBQUcP78ef7zP/+zxi6g+nLlyhWmTJmCQqFg2bJlZpn658+fp7CwkI4dO+Lm5sZLL72ERqMx28+RI0e4cOECw4cPx9PT0/hZAwMDcXZ25vjx44SEhJgEXUqlkpycHKKiosyCovz8fAoLC3n88cetThPg4eHBo48+ysmTJ7ly5YrJRVKv15OdnW0yWqGx8vX1ZeLEicyePZuVK1dSVlaGu7t7fVdLiAdSUVEB/DHkWq1Ws3btWoKCgozzpR09epTk5GTjEPmsrCwSExOZO3eu1eWKRP3TarUkJCSQlJTEq6++yqRJk2ocOatSqfjss8/Yt28ff/3rX4mMjLTLHKI72X1Q5OHhQUhICHv27OGZZ54xJiurVCo2btzIzZs3GTJkiE2O/nF3d6dfv35s2rSJAwcOmM0KumLFCvz8/Bg2bBht27bl9ddft7gfjUZDSUkJY8aMMbno+Pn50atXL9LS0hg8eDCBgYHAraH6SUlJ+Pv7m7Wuwa2hto6OjjVewJydnRk6dCg//PADmzdv5s033zQuUXLhwgXS0tLo27cvAQEBD3x8GoohQ4YwcuRINm/eDCBBkbBbeXl5uLu7G4Oi9PR0du7cyapVq4wJ1lOnTmXKlCls27bN+FAQHR0ty4LYML1ez/bt21m/fr3ZjNaWaLVakpOT2bVrFzNmzDC5d9k7uw+KnJycePXVV8nMzOS9994zWfvswoULxMXFWc2LqW8ODg5ERUVx5swZFi5cSFpaGiEhIcb1YxQKBfPmzauxP7cmLi4ujB8/nunTp/Pmm2/yzDPPGNc+KysrY+bMmWY5WYZlR9q2bWuyzpklYWFhnDt3jqSkJA4dOsSgQYOMQ/JbtWrFhAkT7mvZkobKycmJ8ePHc/z4cZRKZX1XR4gHYhhhZsgLysnJYfXq1cydO9fk4crV1ZV58+YxefJkCgsLiYiIMHatCdtUWlrKt99+y82bN9m7dy+HDx+2WC4qKoqwsDCUSiVbtmwB4JtvvjE+8N1p2rRpdx0UZGvsPigC8Pf356uvvjJOIHjt2jW6devG4sWLefrpp226Sc/Dw4Nly5bx3XffsWXLFtatW4eLiwvDhw9n7NixDz2Uu3///qxYsYI1a9aQmpqKTqcjODiYefPm0a9fP7MWNMNQ/tufBq1xdnZm8uTJPP7442zatIkNGzbg7OzM8OHDiYmJqTEJvrG5vRtNCHtkGGE2f/58cnJymDx5MuHh4WYtQF9++SWJiYlEREQwaNAgDh48SGFhoXSd2bBff/2V06dPA7cm7bXGMIr2zJkzxiWcLly4YLW8pXQPW9dEfw8LNCmVSvz9/U2ecmXelT8Yjosck9ohx9O2yPmoO+UdbnVxt/n1vNUyhutxXTMs7Dp16lSWLl2Kl5eXydIahmDo9sEe8MfIs+zsbOPCsXe+Xht69uxZpxNHGs5V5Q+75LthZ2q6pjWIliIhhBB/HsO6ZpMnT8bV1ZVFixYBt7rUFi1axM6dO4mOjiYzM9Psva6uriQkJAC3AqeJEycal/kwvC6ErZCgSAghRI1uD2xup1AoWLRokTFIupt33nlHFm4VNq1hpIsLIYQQQjwkCYqEEEIIIZCgSAghhBACkKBICCGEEAKQoEgIIYQQApCgSAghhBACkKBICCGEEAKQoEgIIYQQApCgSAghhBACkKBICCGEEAKQoEgIIYQQApCgSAghhBACkKBICCGEEAKQoEgIIYQQApCgSAghhBACkKBICCGEEAKQoEgIIYQQAgDHB32jUqmszXo0CHJMapccT9si5+PP5/rvv+92rOVc1D/X2/4t58N++Pv717j9gYMiX1/fB31rg5OXlwfIMaktcjxti5yPuvP7v/+u6Vjn5eXJubABv9/2bzkfDYd0nwkhhBBCIEGREEIIIQQgQZEQQgghBCBBkRBCCCEEIEGREEIIIQQgQZEQQgghBCBBkRBCCCEEIEGREEIIIQQgQZEQQgghBCBBkRBCCCEEIEGREEIIIQQgQZEQQgghBCBBkRBCCCEEIEGREEIIIQQgQZEQQgghBCBBkRBCiFpy7Ngxli9fXt/VEOKBSVAkhBCiVuTn55OSkkJaWlqt7K+yspK4uDji4uKorKyslX0KURMJioQQQtSKsLAwwsPD2bp1qwQxwi451ncF7tXly5eJj48nPj6ekJAQq+XUajXLli3Dzc2NSZMm1WENH9z333/PrFmzLG5r164dn332GZ06dbK4XavVsnr1atLT062WKygoYMWKFRw4cACdTkdQUBDR0dH06dOHJk2aALeeyKZNm8apU6dqrOu4ceNMjmtiYiIrV660WLZHjx58+umnuLq61rhPe6dWq/n444/Zt28fM2bM4LnnnrNYznCMgUZxXGyNVqslMTGR3Nxcpk+fjkKhqO8q2Z17vU4APP/881a3NZZrg72prq5m//79fPPNN5w9exYnJyeCg4OJjIykb9++NG1qvR3FHu+9lthFUFRVVUVCQgK5ubk1ltPpdOzevZtdu3bx6quv1lHtHt758+dxdHSkY8eONG/e3GRbq1atcHS0fpqOHDnCxo0b8fDwsLj92LFjzJ07F41Gw/Dhw3FycmL//v28++67xMfH8/zzz9OkSROaNm2Kt7c3er3e4n6Ki4spKyujdevWxtc0Gg25ubk4OTnRqVMns3p6e3vX+CVqaG7evEliYiLdu3enY8eO9V0dcRu9Xk9mZiabNm3iySefrO/q2L2ZM2cyYsSI+q6GqEXXr19n6dKl7Nixg0cffZRx48ZRVVXFnj17mDp1qsn94k72eu+1xOaDotLSUj799FN+/PHHGstVV1ezadMmVq1axc2bN+uodg9Po9FQXFxM9+7d+eSTT3Bxcbnn9+bn5/PVV19Z/by///47mzZtomXLlnzxxRd07twZuNXaM3fuXDZu3EhwcDDt27fHxcWFBQsWWNxPTk4OM2bMoH///rz00kvG19VqNfn5+Tz99NPEx8fj5OR0H5+8YcrNzSUlJYX33ntPWiJshOGC/dlnn/Hbb7/Vd3UalLS0NBYvXsxXX31FSEgIaWlpbN261aQVaPny5Vy5ckVa52xcRkYGu3fvJiYmhtdff51mzZoBEB0dzfz581m5ciVdu3YlICDA5H32eu+1xmYf43U6HRkZGUyaNInTp08zYMAAq2ULCgqYM2cOq1atom/fvri5udVhTR+OSqUiNzeX9u3b39cFo7q6mg0bNtCmTRvCwsIslsnJySEzM5PnnnvOpFvN3d2dqKgofv31V44dO1bjz7l27Rr/8z//A8D48eNp0aKFcVt5eTlXrlzBy8tLAiJudXUGBQWxa9cu9u7da7XVTdSd8vJy/va3v/Hhhx/StWtX2rVrV99VajDUajWZmZmEh4fTrVs3ALNrmVqtJjIyEk9PT4YNGyYj02yURqPh4MGD+Pj4MHz4cGNABODp6cmoUaMoLS3l7NmzJu+z53uvNTbbUpSbm8unn35KixYtmD9/PhcvXuTw4cNm5dRqNatWreLw4cO8++679OzZk/fff78eavxgKioqKC0tJTQ09L4Ciz179vDDDz+waNEiMjIyyM7ONitz5swZVCoVPXr0MGvy9PPzw9fXl1OnTvHss8+afAkM9Ho9u3btIisrixkzZph1CZWWllJUVERgYOA917shc3d356233uKjjz4iOTmZ7t27G1vnRP34xz/+wdatW4mMjOSll16ymrsn7l9RURH/+te/mDBhAgqFgsrKSo4dO0ZISIgxKFIoFCgUCiZNmkRkZCRqtRq1Wm3yAGhobbqbmnKU7sx1FPdHrVZz/fp1/P39LQY2rVq1svgee773WmOzQZGDgwNjx45lxIgRtGjRgosXL1otGxgYyMSJE/Hx8eHSpUt1WMuHV1ZWRnFxMXq9niVLlrBv3z6uX79OUFAQUVFRFpPbcnJySExM5OWXX6ZXr15kZGRY3HdpaSnt2rWzmG/k7OxMy5YtKS8vp7q62mJQdPnyZb755hsGDhzI4MGDzbYXFBTQunVrioqKmDlzJocOHQJg4MCBREdH06VLF4v9zw1Zx44diY6O5qOPPiIlJYWpU6eatK6JuuXt7c3KlSt57LHHuHr1an1Xp0HJzs6mqKiIxYsXmwQ1p06dIiUlpcb3hoeHG7vTRowYYTU/SQYn1A0XFxergalWqyUjIwNHR0fat29vss2e773W2GxQ1KFDBzp06HDXcgqFgtdee60OavTnUCqVAKxbt46goCBefvllrl69akxui4mJITo6GgcHB+BWMlxKSgrt2rVj1KhRxtfvpNFoKCsrs/pzmzdvjre3N4WFhWg0GpydnU22a7Va0tPTKS0tZerUqTzyyCNm2y9evMjVq1dZuXIlTzzxBOPGjSMvL4/9+/dz6NAh4uPjiYiIaHSB0X/8x3+QlZXFrl276N27t9XkRPHne/HFF+u7Cg3WncGMpXwiYf+OHTtGWloaAwcONOkVsPd7rzU2GxQ1BjqdjqqqKry8vJg+fTr9+/c33jwNyW0bN26kV69e9O3bF71ez759+zh8+PBdk7J1Oh1ardbqdsOIM2uKiorYt28fAwcOpFevXmbbNRoN1dXVdO7cmfnz55sk3124cIHZs2ezevVqunXrZnU6gYZKoVAwbtw4Tp48Kd1oolEw5Bfdb26ksG2nTp1i6dKluLm58eabb5o9HDdENpto3Rg0bdqU119/ne+++44nnnjCpDXB09OTqKgoNBoNhw8fRq/Xk5OTw9q1a3n11Vfp3r37XfdtrRUJbuUL6XQ6q9uPHDlCbm4uYWFhFr8ILVq04P3332fDhg1moxECAgIYM2aMMeegMTJ0oxUUFJCSksL169fru0pC/GkM3/X09HSGDRvGwIEDLf6Rmantg16v5+jRo0yfPh2AOXPmNJoHO2kpsmGGfKDS0lLKy8tZtWoVXbp04cUXX7xrd4yTkxPu7u5Wt9+4cYPCwkLatGljluB9/fp1MjMz8fPzM44quV+GL1BeXt4Dvb8huLMbbdCgQfVdJSEeSmVlpcVu+X/+85+0adMGgAkTJpjlCBlyg0JCQqRrzcZptVpSU1P5/PPPCQgIYO7cufj5+dV3teqMBEX1TKfToVaradGihdVAx8HBgfLycs6dO0dRURHh4eEWy0VGRprMgO3r60tRUREVFRVmXVgqlYqqqioCAgLMkqyLi4s5e/Ysffv2xdPT02rdtVotGo2mxkTimiaebOgUCgUxMTGcPn2a5ORkvL2967tKQtSK2xNuL126xJ49e5gwYQIAW7duJTQ01CT42bhxI2VlZTWOIBP178aNG6xZs4YNGzYwePBgpk2bZnVi4Iaq8d6xbEBJSRe5GwwAABUNSURBVAlTp06lefPmfPLJJ2ZPUBcuXKCoqAg/Pz/c3Nz4r//6LzQajdl+fvrpJy5evEhERASenp7G7q5HH30UZ2dn/vWvfxEcHGwSdF26dIlLly4RGRlpFhQVFBRQVFREz549LY5KAzh37hz//d//Tb9+/cwmZdPr9cZus8Y+XL99+/bExsbywQcfsHr1asrKympswRPCllVUVAAYh22r1WoSEhLo1auXcb60zMxMNm7caBwif+zYMVJSUpg5c2ajyy+0J1qtluTkZDZs2MDo0aN56623GuXIWQmK6lGbNm3o27cv//u//8uPP/7I8OHDjcnPFy5cYM2aNfj5+fHUU0/h4eHB+PHjLe5Ho9FQUlLCqFGjTC46HTp0oGfPnuzYsYNBgwYZc3/KysrYsGEDnTt3triOXHZ2tnHZEWs6dOhAUFAQGRkZnDhxwpgkbuiL3rhxI3369CE4OPhhDlGDMHjwYEaMGMGWLVsAJCgSdis/Px93d3fjA9yePXtIT0/nq6++Mj4YTZkyhWnTppGWlkb79u15++23GTdunCwLYsP0ej07d+4kKSnJbEbrxkaConrk4OBAZGQkZ8+e5aOPPuKf//wnISEhFBQUsH//fpo3b87s2bMfuD/XxcWFcePGMWvWLN5++23CwsKMa5+VlZURHx+Pj4+PyXsMy454eHiYrHN2pxYtWhAXF4dSqWTatGn079+fxx57jLNnz3L06FF8fHx46623GsQMpw+rWbNmvPbaa5w4cYKcnJz6ro4QD8QwwsyQF3Tp0iXWrVvHzJkzTR6uXF1dmTVrFu+++66xu9/QtSZsU1lZGf/3f//HzZs3+f777zl69KjFcpGRkQwbNqyOa1e3JCiqZ+7u7ixZsoStW7eSmppKQkICrVq14rnnnmPMmDEPnfHft29f/v73v7N+/Xq2b9+OTqcjKCiIWbNm0adPH7M8JsNQ/tufBq3p3LkzX3zxBZs3b2b79u0cOnQId3d34+zBNeUjNTa3d6MJYY8MI8zmzJnDpUuXePfddwkLCzNrAVq+fDkpKSmEh4czcOBADh06RFFRkXSd2bBff/3VuITH5cuXrZZTqVR1VaV600R/Dws0KZVK/P39jRMNAvj6+v6pFbMnhhFWckxqhxxP2yLno+78/mgPAB65eMpqmby8vHo5F4aFXadMmcLnn3+Op6enydIahmDo9sEe8MfIs1OnThkXjr3z9drQo0ePOp040nCuKn/YJd8NO+Lk5GSMZfz9/c22S0uREEKIGhnWNZs0aRKurq7GFk+1Ws3HH39Meno648aNMy71cztXV1dWr14N3Aqc3n77beMyH4bXhbAVEhQJIYSo0e2Bze0UCgUffPDBPXcLT5o0SRZuFTZNZrQWQgghhECCIiGEEEIIQIIiIYQQQghAgiIhhBBCCECCIiGEEEIIQIIiIYQQQghAgiIhhBBCCECCIiGEEEIIQIIiIYQQQghAgiIhhBBCCECCIiGEEEIIQIIiIYQQQghAgiIhhBBCCECCIiGEEEIIQIIiIYQQQghAgiIhhBBCCECCIiGEEEIIABwf9I15eXm1WY8GQY5J7ZLjaVvkfPz5XP/9992OtZyL+ud627/lfNgPf3//GrdLS5EQQgghBA/RUnS3aKsxUSqVgByT2iLH07bI+ag75f/+u6ZjrVQq5VzYgPLb/i3no+GQliIhhBBCCCQoEkIIIYQAJCgSQgghhAAkKBJCCCGEACQoEkIIIYQAJCgSQgghhAAkKBJCCCGEACQoEkIIIYQAJCgSQgghhAAkKBJCCCGEACQoEkIIIYQAJCgSQgghhAAkKBJCCCGEACQoEkIIIYQAJCgSQgghhAAkKBJCCFFLsrKy+PLLL+u7GkI8MAmKhBBC1Iq8vDwSExPZtm1breyvsrKSmJgYYmJiqKysrJV9ClETCYqEEELUivDwcCIiIti8ebMEMcIuOdZ3Be6FWq1myZIltGnThnfeecdimfz8fBISEti7dy/Xrl3Dx8eH559/njFjxtCmTZs6rvH92bt3L/Hx8Ra3eXt788UXX9C5c2eL27VaLStWrGDnzp1Wy+Xn5/PVV1+xf/9+dDodwcHBTJgwgX79+tGkSRPg1hPZlClTyM7OrrGu0dHRVs8BQEZGBvHx8UydOpWRI0fWuK+GQq1Ws2jRIvbs2cOcOXMYPny4xXKGYwzw+eef4+rqWpfVbPS0Wi3r1q3j8uXLzJ49G4VCUd9Vsjv3ep0ACAsLs7qtZ8+e8h2wQRqNhu+//56UlBTOnDmDk5MTvXv3Zty4cfTv35+mTZuald+1axfr168nNzcXd3d3XnzxRcaOHUvr1q3r6VM8HJsPinQ6Hbt27WLHjh289tprFsscPXqU6dOno1arGTZsGD4+Phw7dow1a9aQlZXF4sWL8fDwqOOa37tz587h6OhIp06daN68uck2FxcXHB2tn6aMjAySk5Np27atxe1ZWVnMmDGD6upqXnjhBZo3b87evXuZPHkyM2fO5IUXXqBJkyY0bdoUHx8f9Hq9xf0UFRVRVlZW4y96cXExf//731GpVPfwqRuemzdvsnbtWnr06EGnTp3quzriNnq9nqNHj/LNN98wcODA+q6O3Zs7d26jeehpLFQqFUuWLGH79u0EBAQQHR3N77//zu7du5kyZYrJ/QJuPQwuXbqULVu2EBISQlhYGOfOnSMhIcEu7rvW2HRQpNFo+Mc//sHy5cu5efOmxTLXrl0jKSkJV1dXlixZQmBgIHArmEpNTeWjjz4iOTmZyZMn4+DgUJfVvycajYaioiJ69OjB3/72N1xcXO75vXl5eXzxxRdWj83vv//Oxo0badmyJUuXLsXf3x+A8ePHM3PmTFJSUujduze+vr64uLiwePFii/tRKpVMnTqVAQMGMGrUKKufY+3atfzyyy/3XP+GKDc3l8TEROLj46UlwkYYHqw+/fRTrl27Vt/VaVC2bdvGggULWLVqFb1792bbtm1s3rzZpBXoyy+/pLi4WFrnbNyhQ4fYtWsXsbGxxMbG4uTkBMCECROYM2cOX3/9Nd26dTPeYzMzM0lLSyMuLo433ngDBwcH9Ho9qampLF68mLS0NKKjo41BlL2w2Zyi/Px8Zs6cyfLly+nfv7/VLjClUklmZiYjRowgICDA+HrTpk0ZNmwYffr04cSJE/z22291VfX7olKpuHz5Mr6+vvd1wdBoNCQlJeHu7k54eLjFMkqlkqNHjzJixAiTbjUPDw9iYmLIzc0lKyurxp9z7do1PvvsMwBef/11nJ2dLZY7cOAA+/fvZ/z48ff8GRoab29vQkJC2LFjB+np6VZb3UTdKS8vZ+nSpcyfP5/HHnsMb2/v+q5Sg6FWqzl69CgRERF0794dwOxaplariYqKwsvLi9DQUBmZZqM0Gg0//vgjPj4+vPDCC8aACMDLy4tXXnmFkpISzpw5Yyy/b98+fHx8GD58uLHBoUmTJoSFhTFkyBAOHDhgl3llNhkUqdVqvv76aw4dOsT777/PO++8Y9atZFBaWoqnpyddunQxi0gdHR1tvl+zvLyckpISOnbsaPKLeDe7d+9m//79xMXFWb3Qnzp1CpVKRc+ePc2OTadOnejQoQMnT56kurra4vv1ej07duwgMzOT2NhYq11Cly5dYvny5YwePZoBAwbc82doaNzd3Zk0aRI+Pj4kJCSQk5NT31Vq9DZs2MDmzZuJiopi3rx5uLu713eVGozCwkJOnDhB//79USgUVFZW8vPPP+Pl5WUMihQKBa6urrzzzjvs2bOHUaNGoVarTfazbds2+vbta/FPWFgY2dnZZGdnExYWZrWcBFsPR61Wc/36dQICAiw2QLRq1crk/5WVlZw9e5bHHnvM7Dvl7OzMY489xoULF8jPz/9T6/1nsNnusy5duvCXv/yF9u3b13hzCQsLs5rQl5eXx7Fjx+jTp4/NNtuWlpZSXFyMXq/nww8/ZO/evahUKoKDg4mJibGY3KZUKlm7di2jR48mKCiIgwcPWt23t7e3xXwjZ2dnWrZsSXl5OdXV1TRr1syszKVLl0hJSSE0NJShQ4da/BkqlYr169fj5eXFyy+/zKVLlx7gKDQcnTt3JjY2loULFxq70ay1rok/n7e3N+vWraNbt25cvXq1vqvToJw8eZLCwkIWLFjAggULjK9nZ2eTmJhY43sjIiKM3WkjR460mp8kgxPqhouLC5988onFbVqtloMHD+Lo6Iivry8AVVVV/Pbbb3h7e9OiRQuz93h4eKBSqeyypcgmgyKFQvHQ3TAqlYqUlBQqKiqIiIiw2aDo4sWLAKxevZrg4GBGjRrF1atXjcltsbGxTJgwwdg8qVKpSExMxMfHh1deecVqnpRGo6G0tNTqz23evDk+Pj4UFBSg0WjMbtxarZadO3dSUlJCfHw8jzzyiNk+9Ho9e/bsISMjg2XLltGmTZtGHxQBPP3002RmZrJjxw769Oljkpwo6pa1HDjx8O4MZizlEwn79/PPP5OamkpoaChdunQB4OrVq5SUlFh9T7t27YBbPSH2xiaDood148YN1qxZw/bt24mLi+PJJ5+s7ypZpNPpqKqqwsvLi9mzZzNgwADjzdOQ3JacnExQUBD9+/c3C0JqSsrW6XRotVqr2w0jzqwpLCxk9+7dhIaGEhwcbLFMTk4OCQkJREZG0rNnz3v81A2fQqEgOjqaEydOkJCQQM+ePY1J7kI0RIb8ovvNjRS2LTs7m48//hhXV1cmTZpkfDjW6XRWB/gANY6YtnU2mVP0MKqqqliyZAlJSUmMHz+emJgYmxx1BreSwd944w22b9/Ok08+adKa4OXlRUxMDBqNhoyMDPR6PUqlktWrV99TENK0adMaP7der0en01ndnpGRQW5uLuHh4RZbiVQqFWvWrMHHx4eXXnpJWkLu0KlTJ2JjYykoKCAxMbHRTlMgGgdDftHOnTsJDQ21mvsjM1PbB71ez5EjR3jvvfcAWLBggcmDXdOmTWsMfGoKmGyd/YZzFhQUFLBw4UKOHTvGX//6VyIjI202ILoXhnygkpISysvL+frrr+natSujRo26axDi5ORU4xwRN27coKCgAHd3d7MEb5VKxU8//YSfn59xVMntDMMujx07dt/TCDQmd3ajDR48uL6rJMRDqaiooKyszOz1tLQ0Y4JuXFycWY6QITeoT58+0rVm47RaLVu3bmXp0qUEBgayYMECOnbsaFKmdevWVufGg1vz2gE2P3GyJQ0mKMrOzmbu3LlUVlYyb948nn322Rq7h2yFTqdDrVbTokULq4GOg4MDZWVl/PLLLxQWFvLUU09ZLDd69GiTGbB9fX0pLCykoqLCbKZrlUpFVVUVgYGBZknWxcXFnDlzhn79+uHp6Wn2c27cuMHJkycpKSlh3LhxFutiSL5szJO8KRQKYmNjOXXqFAkJCfj4+NR3lYSoFYaEW7jVjZ6enk5cXBwAmzdvZsiQISbBT3JyMmVlZYwYMaLO6yru3Y0bN1i5ciVJSUkMHTqU6dOnWwx+WrdujZubG8XFxajVarMu09LSUpydne0yAG4QQZFSqWTu3LlUV1ezbNkyQkJC6rtK9+TKlStMmTIFhULBsmXLcHNzM9l+/vx5CgsL6dixI25ubrz00ktoNBqz/Rw5coQLFy4wfPhwPD09jd1dgYGBODs7c/z4cUJCQkyCLqVSSU5ODlFRUWZBUX5+PoWFhTz++OMWpwlwcHDgiSeeoEOHDmbbioqKSE1NZciQIXTt2hU/P78HOjYNha+vLxMnTmT27NmsXLmSsrIyGRYu7FZFRQWA8VqlVqtZu3YtQUFBxvnSjh49SnJysnE5oKysLBITE5k7d67V5YpE/dNqtSQkJJCUlMSrr77KpEmTrI6cbdWqFV27duXnn3+mtLTUJEhWqVScOnWKgIAA2rdvX1fVrzV2HxSVlpby8ccfA/DZZ58ZZ9u0B+7u7vTr149NmzZx4MABXnjhBWPr1vnz51mxYgV+fn4MGzaMtm3b8vrrr1vcj0ajoaSkhDFjxphcdPz8/OjVqxdpaWkMHjzYeGxKS0tJSkrC39+f3r17m+3v5MmTODo6Wr2ANWvWjBdeeMHitqysLFJTU3nqqacabQvRnYYMGcLIkSPZvHkzgARFwm7l5eXh7u5uDIrS09PZuXMnq1atMrYWTJ06lSlTprBt2zbjQ0F0dLRcD2yYXq9n+/btrF+/3mxGa0uaNWvGE088QWpqKqmpqcbyhsFABw8e5K233pKWovrw/fffk5WVhYuLCwsXLrTYBdW+fXumT59uc7kvDg4OREVFcebMGRYuXEhaWhohISEUFBSwb98+FAoF8+bNM+vPvVcuLi6MHz+e6dOn8+abb/LMM88Y1z4rKytj5syZZpG8YdmRtm3b2vzEl/bCycmJ8ePHc/z4cZRKZX1XR4gHYhhhZsgLysnJYfXq1cydO9fk4crV1ZV58+YxefJkCgsLiYiIMHatCdtUWlrKt99+y82bN9m7dy+HDx+2WC4qKso4L+DAgQN59tlnWbt2LVlZWYSEhHDu3DkOHz5Mr169GDFihF0OwLHroEitVnPixAng1nIUp0+ftliuSZMmNY60qk8eHh4sW7aM7777ji1btrBu3TpcXFwYPnw4Y8eOfeih3P3792fFihWsWbOG1NRUdDodwcHBzJs3j379+pn90hqG8t/+NCge3u3daELYI8MIs/nz55OTk8PkyZMJDw83awH68ssvSUxMJCIigkGDBnHw4EEKCwul68yG/frrr8b7Z01zzd0+itbZ2ZmZM2fStWtXvv32W9atW4e7uzsxMTGMHTvWbh+qm+jvYYEmpVKJv7+/yVOuzLvyB8NxkWNSO+R42hY5H3WnvMOtLu42v563WsZwPa5rhoVdp06dytKlS/Hy8jLmDRm2JyYmmgz2gD9GnmVnZxsXjr3z9drQs2fPOp040nCuKn/YJd8NO1PTNc2uW4qEEEL8+Qzrmk2ePBlXV1cWLVoE3GqtX7RoETt37iQ6OprMzEyz97q6upKQkADcCpwmTpxoXObD8LoQtkJaimqBPEnXLjmetkXOR90xtD4I+yEtRfanpmua7U/kI4QQQghRB6T7TAghbERNuUQG9ZVTJCyrlBGlDYq0FAkhhBBCIEGREEIIIQQgQZEQQgghBCBBkRBCCCEEIEGREEIIIQQgQZEQQgghBAD/D0KZKgAanYgmAAAAAElFTkSuQmCC;" vertex="1" parent="1">
          <mxGeometry x="130" y="190" width="581" height="862" as="geometry" />
        </mxCell>
        <mxCell id="eMn6bjLMBRMUjzYHPhYK-2" value="" style="shape=image;verticalLabelPosition=bottom;labelBackgroundColor=default;verticalAlign=top;aspect=fixed;imageAspect=0;image=data:image/png,iVBORw0KGgoAAAANSUhEUgAAAjEAAAIdCAYAAADMASy5AAAgAElEQVR4nOzdf2yb94Hn+XfPAbNnjBa+paHBSZNAdLNR4IUZF6KQRnSNMceAFBcV063q5mpaN6ZVwFG2klJM3GBiarCiu6jdvVgStk6A2gxGpovEMbamijoSzqELnynEEYHIDC6wsmlopBCBCOaMEc1oz0QM3h8kJZIiKcmSRT7S5wUYtsmHDx/y4fM8n+/P5xvJZDKJiIiIiMH8L+XeABEREZEHoRAjIiIihqQQIyIiIoakECMiIiKGpBAjIiIihqQQIyIiIoakECMiIiKGpBAjIiIihqQQIyIiIoakECMiIiKGpBAjIiIihqQQIyIiIoakECMiIiKGpBAjIiIihqQQIyIiIoakECMiIiKGpBAjIiIihqQQIyIiIoakECMiIiKGpBAjIiIihqQQIyIiIoakECMiIiKGpBAjIiIihqQQIyIiIoakECMiIiKG9Mjnn39e7m0QERERWZZt27bxjWQymSz3hoiIiIgsl5qTRERExJAUYkRERMSQFGJERETEkBRiRERExJAUYkRERMSQFGJERETEkBRiRERExJAUYkRERMSQFGJERETEkBRiRERExJAUYkRERMSQFGJERETEkBRiRERExJAUYkRERMSQFGJERETEkBRiREQMK0K/zYatK0C83JsiUgbrK8RM9GOzdROYXt3VRgZLnCSmA3TbbHQPx4E4gS4b/RMP8i6p1270k1F8uBvbYKTEEhH6l7mPS+6/zHva+in1riIVaSKIH7Dv3YV5RStKn39KHnsP4CGdkyVfKsymrkOrxwjnxkfW7J0m+rF1+Je+fLuPcJd1WW8RueaHJg+7qpfz/nY8lwdwFnrNck1fJzgGoTEb0d5RBlof4LTyhGWFJ6N1YMhN/+4wPTsXPhUZdKdO2h/EcRb5fuPD3fTRW/T7z30+zvUrIWhyULt6n0BkTUSu+QE7jm+v8KyRPnfZ9y5yFBQ6jzZ5GB10LjxvTQfo7khtn0Tot6XOXQ+s1DUxHWZdj5f+HcSHu2nuCy1tvRP9qWWbLDANrMY18iFYuxCzs4dwuGfx5aYDdO/zEirwVGoHWPCFe5j/yuMEuprxjmX+76XZ5k3/Oz+g5P1/oh9bR/RBPk1h1U4GwrtS29PXjO32MoJY+iTCE6u3OUZkbh3Ad9uGu6MbS364nOjHPQT2kgExztRtCA01083C5TIHsb19ijhmzEwRHQN770pLshtd5jh05R6fM5MEfjfFrnbH/PebvhCW3o8yp8Q5MSWEd58Nb9HncxX63iNvewnhwtdqLnyhy2jyMBoOL36s5GzzMravWCAyPCs94TCFr4DpgPMABfeUOAFfqgB/cGeq5tk9VGTRdh/h8MDiq8wOq2N+3PuWGL8e+DM8uLULMSs0d2C1W2ACyC+l5/34U8uv5L3yw1JplrkEbMY5OApd57Bk7cySP6xsQ25siyznOlO4lmK9sHb5cA2dJRqLQ3Xme43Q35E6UHtLXvjMWLsGGK3rpvnKdeKtzvmnpgP09YHncjgryC6tBCMPIsLp77rx7fQw2l7ubTGwaicDYWfeg0VC4wOJEBwC2h2p9bQOEG5duMySaxLya2sWDSbz63a512OAecgytWjpgpi5K0y4K3+ZxYLwvAUhdrFgMrduO54X1jbAgEFCzFzpeZGS2/VBG97PUgfMCt4t1bxAiLPDBx+wpGjGOZibua2FflhZ7zlfm7SKzVtGUewA62heeNIcy65pAyh8EjdnnYinMg8WuBikquPB32EreIJe74Fx9ZhxDobJP/ISswUWXWqtrBQ3cQ7vGNh7D64wwEB8+Cz+VboAzRXWMsElfWw326KFw1ZW4Nmwx9p0lJW0B2TXoq1M1nUoE1wm+rF1uLF9VjiIzgee8l23Kj7EZA6KpfzAd+12wVCQ69NOduU9F/8iCliwLPolm3EO+oja3Pj7zhFpnT/ZTpWoZg0VuQgupco8PtyHdyz9I4j1Y9vXDRstyLD8k1ih2rbiVeF54afJw+ighWCB5qkHqYkTWTvpWklcHF7xhSvCub4Q4FrCuXER0wHO5p+rq50MhC3029y4bVlNiNkFl3XbhLQ89roH6JWX/s5psqy8T9/EufnrUOa3sLOH8GVLOoh65/dtdm1bGZqQslVwiIkS6HIv/FJL2enAhZvgB/EFIWbq9nI6b1o52GvH3+fn7PBBDqcfrS1UzbrC9v3MRdd1Jt3EUd1D+Ew/tn02ohu1ZLIC5px9lFWyKHCijA93U6jb4dTtEGBZg619mCbxtR7gNJ2cH3ZTP/d4gtAvm+i+CPWvvMv5H2V9zpkgx/YcJdjuYyxzUrofZ/z8KXzDIcZvzwBQVdeIvdXNywcaMW/KvDiveSOnTT0dIDP7YMExk34tHkZPNXLr1/30DweJ3oWqOgfOn7xIZ7MFU94njIf9nHrzHMGJOInNZqz7OvF0WQjsduNfxxfGTOd28OO2LbWraOEay1QtzCop2OwFmf4gjkEb7r5mbHMFjw1Y61xILEqqLmP5UrUwq2RnD+Fwgcez+3rmFNZXoylz5So3xAx58S77S7LiaAf3letM7c16eK6EUOikFiIaY0HPa3PrYVx9oUWr+VI1PBC6PQXLPGVm95OJfhGHnenX7+whHHak5n+okB+K4WS109qbQoTG8koS0wH60jU2ufsuTvQzVqdkU1b12PaaYOh9bt52U1+XeTzKZLoT/GQkysyPLFSln0l8HGYEE/ufeSr1wGyE/nY3/tsmzLufx733L2A2RvjyCCOD4wQnTzL6C8fc63OYrbg7WgifGSFSY2f/vnr+YuvCIJIjEeXcKye4cOspHPvc7ElMErgcxP9akOi93EJCbLibtr4Qic1m7G1u6k0xwpe9/DBsMXz8LCnduX05F5Di/QMztTAPUclRqfMdftXJO7tf5RJlamEeopKdvLNCdDmbAis3xADgX3a/FGtXmDAQHw6mH4nQv89LqN3HQP6XvPMgniZ/VrrMPjGkSg8AkcHi75cqtQNDQSJd1qWFjcwFtsnDaDhTMm3G1rfw/Xsm+rHZbKjUsnRz4TBdzRkZtBHCg29vEHdHavh7L0FCTenHrkSJY03HmNRoJdqNP9Tduns/piE/oUic/XXpT3P7Ju/HwLTZRGI0wq0+B42bABKMX7sA7Mf+rVTUiF3ux3/bhL33IgOtNfMr7j7MhY4fcnI0QOhnDloKfVGPOeg8spX+MyNE6hwcPrKEWpGwnwu7PVz8vZOadA1PZ3uA7lYvoTMBJlvTNUp3R+jvC5Goc/HGWz00ZlLUkcP4X/0h/bcf7PuqeHNDlldHZDBVY+V5wot3FS6GhQcvuPCFw6XPi3Pnv7zHy9xMsVpKB4F5xfrl5UsFhjiB415C7R48n3mXPDKtxFbmjfJNa/IwGh4oeezGh7tpLrDtaxVMKzfEtPsId0G/LfXjLviF5KT8/A6fAHaib58tMXStcGfEpcuU2u3Yx/wEJ3qwlkqjc9trx3M5zEB2u2P4IIGuZtxdltxq8LlOkOmZOWHdHNz5lnoQ58oud5cesVHbOkD42wG69zVz7kyY8CAwEYWxVD8qZzVznexcu9fB97u9kefxc+HGTWZaUzUmM59FmKQFz9/9W7x9V/n4Tz00Pgncv8X4ZaDNTqMJIM6tyXuYt+zn8Hdrcte7ycJT3wI+hnv3V3ODa+k4Mh9gAKjZhaMJQmNfcS/9UOzKBYLA/p91zgcYgM0WXEc6eXfs9Hxn7nUjXRjDjqsd/CsNHRP9uIfseC47sbztzXm85HxeCzrWpzV5GB0sNXihxDDidd7R21xwtFdG+ntZZvNnqh+lC9/gLqJd2Y8vEpiKjX5t9xEudS1MF7wpcB0u/fkevsoLMdWp6uDUbsiMrU9dnBaEmayLv5fCQ6wtLwwQXkHtxXxv+0LPZuYYOYyDEN5rEXp2Frj45dS8FJtjYbFAVWqegfVh5R17877DrAMv3JX+1vPb7Wss2PHPNynGooSw48i7bhuSqRF7G1y4GCbyDw7spgSR8AjYPDTaH8XOBcb/3xjuJ2vg4yAXZqHFZk03+ZhxvHYex2vA/QQzd+8Qm5wi+udxIjeu8t7Vh7HBO6j73xdbZoZbH0UAO/VPFGicqt/BHli9fh4VITMEORXOa4e78S+rPwzk9/GKfxHFdSZVs5szG2vRQPFgF9t8D9R5dT3LmXE59R0vZaLUqdvgudyDlXhOl4eigSJzDVphAXjZTV5roPJCTEGZi1MkVTNzpcCB9ISFqUEbzYWGWC9htuCFNT3zPyhfezPuzwq8aCKYGpr4bSu7sENfkSaloh3est5t0EawyCy1617R7ydOoKsPjhVuRlusBJDq9GbHU2o20+pUST8TQEvO+mw4Jqy2Frh4ifFPjmLfeYubl6H20FPUmE3Yt8PJ8C1mvl9D7KOrJGjB8UxW1cZslMCgl/6LEWay1lpV5+CpHVHGP17t7d3K1oIdbLIlmJkBqKWm0G7d9Ohqb1TZZZp9Mue81MTyK+sTY24deEgFokXmk+kr0GyUbZ3WMheTO+Py0usPrV0DD6ef5CLzyRQbhZtRjr5NFRhiarE0AZ9l91PIKF0bYX3Bg31f4SHWUKyknw4r2Q+lQ4/rTJiBncX6xMzPkrirOtMR2F26D0/RNBwH7Pg7it2uIEK/7ezCGWzXhdwSHtnDm6eniBLCX2TIeXy4m+bbh3O+y4Xt8oVmC82+AJjZtdcOfWcJ7Hakh1yvn9l7q2y7cDDC+GQUttwiNGtiz7dSY5WespngYoTo/VrCv5uCvS9mNc/EGTl2AO81sP7Yw+GWRqw1VTxaVYVpU+p7Xv0QsxQmqqoApojFqdip0FdTpp+fMRQ+Ry8+bUFmhNoGkumY2364cs7rRQqUkUEb7iJzxaSXWHgdXSMVeAPI9EVlLMj1IjcNiwxm36gs3RET0qXqEN63V3C7qnTnuUWbNtKTTc3PMJkaGRXqO1f0ZlnxD4JZsxqm+7gMRpibZbbXTqiveeFN2CaiRJtSF+MHu7lk5coM8Sw4U2e1lZ7BUTxNIbz78m8iF2cKC/Yhd87NHa1dYcJhHy6YmyI9PPdnFE8TC0Yemb/twE4Ib0dq0qiVz71RQbY0Ym+CyVCESCTEJA6s30w99ZTteZi9SvgPqc6+9qbG+ZFG09d571oC9vYy8DMn9u01VG1JBZi5vmBlUYXFWg+EmPwssfDpT8I8lJYuWYH0KKjMjMAFpZvmN1Bz01xNcRlmuV2WdNgqeZPRdF/CcjQ3VWCImb+oBD8odEfO9Al0KJgKC+kvL/XjTwegoSDXH/TNq50MhBdr1sm9V0WGtcuHCz9nC95JNH0gNzmKNlWYW1NBxk66yng6QLetm0CNk4HBML72VOfX1b5TaflkZkd24Sj6facmH3RlPZIKsVNYW3sYuOzBPualOetOuXMzkB7LC0YLgmdatZPD6WnxV2MG1MpipnG3FcYC9P8uBE2NPJ1OKqYn6rEzxbnBN5jEiv1bBU5AsTvcyeu8G/tdHyfyRzEUYdoM3L3HVyv6DLkse/ZjBy68fprx7Hau+zECZ86sw069hfhx22zYlvBnKSNjHqbVnBF43Zi7D1zv0mthynRH8MyMwJVauKvA5iTm+ymkZ8zN/elnhsCmU316oqDMvW8y/STiw90PbfPmZ9jNrz1ITZLX3NdH4Nu5zR8laxyymFsHmLs9VyxKiBCWdKdTa1cYHzbc6XsCVeZPaulS3+NSgoOVnrmblmVqAdLNjXMzgmbda+nbval+TPtsWXMNzd976WCBJsVgugkqVGDfGV2NrYV6ThL5GOpfyWqirX6Kp2sgFJuB7S00Ppb1oupdPLfbROhaPwe+N87zrfX8Bf/C5PAlQtO1WHfWEpkoPMfSvFq22YBr/Xh/cQdb/S4OtlkLzyuzHNVOft4bpK3Pz4vfD+HYu4c6U2r+mltbLNQS3QBBZjXmiXn4sm8ZU/KYKmNJfs1lhsoveh+4QhY75lbX/Iz5i/zWyjggoiJrYsCM85gHO37cWU0FwHxv7nS1Y2qyuVIl+VWWvj15pmd/PnNrb7r5oz+rWSld41DwAlpcqtNX7mezdoUJr4uZSOdrYbITvvlxC+AnWKzZLHOzs5yqzVTI6UlPFmiuNqeblcL42jMlVnfh2pnskR+XPalmpeN5vzmjq3uav6kBMNFYnz1KJT0hHlD/3ca88StmWo6f53i7g9pEiAtnfPgujvNoy8/xXX4X33/agwmIfBYr8cZmHC8dpaXuUSK/8+EbClNq6eWoaR3g92/20FL3Fdcv+vBdGqeqdYCLp1zUAdRsXXlYkhWJDNrmZiNfrLNnprS/ZufxcskeqbrM83hmYtW1ESfQZUsPw19qy0TxVoaH6RvJZDK59m+7RDmjilz4zoB7bp6VAZzVxeceyOlI9kCjk+bNdWpyR2le0i0GcodEFk2wS9iujXhTtEXv+L3UEQyFetrnvLbAfsrskw02SmLdiAV4sdXLzQ4fY0fW5/5b3r294gWnoMiWOt6yaiyXerfqLNnnxPm5Sgqd/4pMqrYRJvNcNMCU3lep/ZT/PeW9Zhl3q86WfZ1ZcBPP3K0o8vso48zyyYp3J3nppw3Jhob5P6c+Sj/15aVkV0NX8tKX6f9/dCpnua7AnZzH516X42byVPayhZYYKLDORaXW2/DTS8mlvkJWSfbvIOf7T/+WfnopeSezTKH9U+o5Kbuv/u/Xks8+9+PkieBXuU98/VXyw4G2ZEPDs8kTH9wrz8atgTuBrmRDw6nkzcLPLjhfFj/3paTOb8XWtwxfXkp2NazSutaZ1D5rSDYMLPLNzH2Hhf8s3I9Z57SVbqRBz3uVXRMjsizzpbyStWUlZp9c1jJSHrPjnGx9kQt3q7DseY493/wLmOuvk8DSepI3ex3roMlV1oPCNSiyWhRiRMR4ZiYZeess50auMzmdAEyYdzo42H4Yp91C1aZF1yAi64BCjIiIiBhShY5OEhERESlNIUZEREQMSSFGREREDEkhRkRERAxJIUZEREQMSSFGREREDEkhRkRERAxJIUZEREQMSSFGREREDEkhRkRERAxJIUZEREQMSSFGREREDEkhRkRERAxJIUZEREQMSSFGREREDOmRcm+AGMPnn39e7k0QERGZs23bNtXEiIiIiDF9I5lMJsu9ESIiIiLLpZoYERERMSSFGBERETEkhRgRERExJIUYERERMSSFGBERETEkhRgRERExJIUYERERMSSFGBERETEkhRgRERExJIUYERERMSSFGBERETEkhRgRERExJIUYERERMSSFGBERETEkhRgRERExJIUYERERMSSFGBERETEkhRgRERExpEfKvQEi+eI3/Jz6zTmCE3ESVGHZ4+TwTw7T8mRV1lIR+m1u/IutrN1HuMta9OlEuJ8fHvFT1zvKQKt5NTZ/w1jafkqbHsf/397g3B8jxGehqq6R59p7ePG79VRtWvttlxLuzzD5hzc48eYlItMJ2GLB0XqYFztasGwu98ZtQDOTjLx1lrPDQaJ3wVRtxfHCi7x8oBFzoWNnehzfr05y7mqUGUyYdzo4eORlXLbC57eZT0c4+5uzBLKX/8nLuJ4xxvnwG8lkMlnujRBJSRA5c4gjb06S2GKlZZ+NGmKEL48QuWvC3nuRgdaa9LIR/O0neK/YmmKTRO+Cpetd3m23FF5oNsTJlm4uzIJdIWYZEky+dYRDv47M76fEJIHLIeKzFlxnztOz0zS/+Kd+DnT0MzlbhXWfE1sNxK5dYOTTBKbdHi7+ykmNgkyFiDPyahvHrsxQtaMF5zM1JD4NcOlanESdC99QD1YFmbUzPcLRHx8jeNeEeffzOJ/8C/6lxP5IfOzj0EunmcSMfZ+TelOx82dK7IqX7lcDRDcvbfmKlBSpFF+8kzzU0JBs+Ok7yamvsx7/15vJUz9oSDZ850Tyw3tLWM/UpWTXdxqSz758KXc9Ob5Kvv/3zyYbGhqSDQ0Nya7AnZVv/0YxeTbZ1lDg+01/7w3fO5u8NffgneSlnzYkGxrakqc+ytp5X3+V/PD/ak02NDybPPHBUnaqrIV7oRPJZxsakm0DN5PZe2Uq0JV63Her6Gtltd1Lfnjy2WRDQ2vy1Adf5TyT2R+H3p2af/Drz5Pv/G1DsuE7XclLWQ/Pnz9fS77/z1mP//P7yde+05Bs+MGp5IdfFVi+4bXk+7lvW5HUJ0YqRnxyknt1Vex/4fnckvlmK84f1sPsBUKfLLKS+5P4uryEsNP7avES/syVExwbrcXdsX+1Nn+DmCH4j6eJ4qC3N+/7rXFyuM0Ed8e5Fcs8OEV0DLC52J9dO7OpikbHHiDBpY9urdnWSykzBIcvkMDB4XYrWXuLmtaf07MDom+9R+R+2TZwg7nF5McWzDsO4Hwmt4m2pmU/zwORa+PEMw9OXuX8x1Db3okzuwJls5XOV/Zjmh0hcG1uaSZ/N8DIbC2dfT00VuUuf7DdDoSI/CnxcD7aKlKIkYph3uvh/MWrHG0y5T2TIBadBOqp2VJ6HdGLJzh924T91V5aqossND3Csb4Rajs8dHw7/72kpPu3iIwCbU4cBfaFtWuM8LU3ck6ips1ALM5M3sUvMZs6QVr+twJ9aGTtJSJErgA2O9YF+7aGp3fXwuxVwn8qw7ZtSFZcQ+cZfWs/CxrEY1PcBKjZSuboiX78PlPAnp31C9Zk2m7DAYRu3GQmtQJu3ZiC7QfYs33hO5tbBwiHr+Y2C1cohRipbLMxxs90c+wiVLUe5rm6EstOB+j/VQR29NDTXKR/y/0YgV/2Eap243HnljZlCb6MMQk01lswxcfx97pp3m3DZtvDD1/pZ+TTmbwXWHn+7+yYYqc59nqIWLpgl7g9wonXL8BmOwf3FOmzJGvr7h2mALZbKNQTYqu5Dpjizp3KL52vW/cTxD8J4P37fiY319PzH+1z57CZLycBO5bHC7yuaitbAf58hzsA96eIhoGdFiyzUUYGj/LDvTZstiaaO47hvxEvsJLKpNFJUqFyRx9ZfjzAm912ipfZE0Te9hHCxP6fPI+lSDNS7A8nOHGtls7fdmJVglm+6SjjQGP0At2n/ESqHTz3YzemWJjAZT/Hroa4ldext6Z1gN9vOcmRn3XT+s78qsw2NwOnO7EXqzGTtfXlFOMlnjbXWIAQU3dmAHWCX2vx4W6a+0Lp/9k5+rtfsf+xuWeJ3S716q1YbEA4lqqJiceIAvxLiP52PxdmrTj2udmTmCRweYT+l4KMG6Rjr2pipDLF72Bqc+Pu2I+92kT0t920dfmZnC2y/N0g/qEp2NHDD58pkk5iAU781xC1Lx3H/eRD2/INYfy3fmJtPkYvnuTokU56+nxc/Z0H++Yo/q5+xrMK6zMf+znWdyE1AqLNjbvDRcuOKuJhH8dev0C02D6VtXU/Qck6FhV5y+pOYiuuDjeufVaqCHHywCG8V+Y6n3Hv61KvfpSC1c7Dfi487uHi730c/1knna8OMPqHN3DVJQj1HePCn1f7U6w+hRipTGYHna920nnkKAOX/4iv3cLMjX6OnokUPNHGrlwgCDheeK5wLcz9GIFfeglVd3K8fWGbsSxTTSfHX8prjnvMSc9LqQ7YV8PpvTQd4Nihfsa3uHjjD6MMvNpJ55Eejr91leHX7Ny7cpIDg6HSF09ZG5tMpZtXS14k5WGrb/PQkykwDHuwM0ng1RMEplPPP1oyZN6j8EFWoIN+VSOdP9sPRAiMRVdr8x8ahRgxABPWIz3sB6YuXmfhWJYY1/8QARw4ninc4BS9eAzvmJWj/9VNveYkeXCZC92OuoIjvyz1jQDpJgeIXr1ACNj/s87cERBAzfeP07sXEhff43p+VxpZe39ZS2OJp+Ox1AWtdqs6YpddTbrAQIhgOA6YqSnVX5A7qT4w22tSTfKbHk2v5yksBTrom56oxw5Mfln5B6YqCMUYTBbqbUC4QHFiepzQx8BeB/aCo5fiREIRAE622ThZYIlQXzO2Pk16t6iabTQCof9ZpOkhr7Se6mwIps2FyvhV1NQAzDDzP6FEhydZC+YaLEDosyhxrAt6vdyJ3wZq2bpVnckqgeWbjcDk3DG39bFGIEQ0BuT3M5tJd+h9LN3B11xD/WYI3f3/uFdo5V8XqbipQKqJkQoxQ+j1A/xw7wEuFOqgdjdCKLskkSXx2SQhoPEZa5HroAnLbjfujgJ/9qVuSVC7ez/uDjf2x3WCLslcj307cC3I+N2FT09OXAVMWB5PXQKr/jLVdBcrWKKbIZZu0n9UtWPlt+kprM3AWKjAvo1y8+oUbN6D7Ztl2LaN6PYFun/cTNMvCze3po61+Zqxmv/QSC1wNTy5YNnEx2FGAPszT6fPkU/x9D5gdpRwgbm3Zj4OMQ7Y62pX5aM8TAoxUiGqsFotTN2dpH8wQCx7TpH7MUZ+9QZBwN72NwvmTLgVuQSY2PFEsZ70VVjbOuk8UuDPf0yFmLq/PkznkU7271R1QGkW/qbNDgQ5+5sQ8ez99OcAp4emoK6D53akl25yYgWCvznLeF6OiY+9wdkrYGp2YlflVwWoonFPCyaCnB0az5nXJzbcT/8nYDn0HFYFzrXx2NM8nYiTuNjP6YncGJP4xMeJN6egxkWLLV3w+qYdZx1MDZ0mkN0hdzbC6dcvwOYWnLszB5qJxhYXtUxx5kxe5/qZcc7+Jpi3fOXSvZOkctyPEfxFN0eHo6mbnO3NvncSWFpPMvCaI68vRpyRnzVz7Jodz+UBnMsdrjvRj63Dr2ak5cjZT3aeb61PD7GOMLO5ns5fv4V7x3yNVuzyUQ70BpnZbMb618+l7p0Ufi9148g6JycHPTgqfyTnxnA/RuCVNrzXErp3UgVIfOLjyJHTRGarsOx5jj3fzLp30mYrnW++iXv7/LGWmOjnQId/ifdCKnUPtCocv7jIyWLzbVUQhRipLPdniIbe5Y033+H6p3ESmbuqtneyf3dNgdETcXglxAwAACAASURBVAJdzXjHXPjCPRS/X3URCjEP5v4Mk1fOcvYf30vtp81mrH99kBf/k4vGAkEydafcc7x3Y5L4bOZOvIfpbLNTo4tiZbkfZ/z8Kd54O6i7WFeC6QgXfG/w7pVxondJ7w8XrgNOrAVOWYk/jXD6zby7Upe4i3X8hp9TQwFCN6LMLHY3+gqkECMiIiKGpD4xIiIiYkgKMSIiImJICjEiIiJiSAoxIiIiYkgKMSIiImJICjEiIiJiSAoxIiIiYkgKMSIiImJICjEiIiJiSAoxIiIiYkgKMSIiImJICjEiIiJiSAoxIiIiYkgKMSIiImJICjEiIiJiSAoxIiIiYkgKMSIiImJICjEiIiJiSAoxIiIiYkiPfP755+XeBhEREZFl2bZtG99IJpPJcm+IiIiIyHKpOUlEREQMSSFGREREDEkhRkRERAxJIUZEREQMSSFGREREDEkhRkRERAxJIUZEREQMSSFGREREDEkhRkRERAxJIUZEREQMSSFGREREDEkhRkRERAxJIUZEREQMSSFGREREDEkhRkRERAxJIWY1TAfottnonyj3hoiIiGwc6yvETPRjs3UTmF7d1caHu7HZbNhsNrqH46u78ox0EHpo6xcREVlnHlmzd5rox9bhX/ry7T7CXdZlvUXkmh+aPOyqXs772/FcHsA595o4ga5mvGN52xIeWNa2FBMf7qa5z4Iv3MOSP910gO59QRw52ykiIrKxrV2I2dlDONyz+HLTAbr3eQkVeKpwAMgPHV6abd70v/MDSt7/J/qxdUTz3sWMczCME4AI/TY3y4hei4gz9bgDF17ctlTgGh10Yi66fNb7t3s4HItDdfGlN47M92LB/dZ5OneYCi+W+S0t+j3LiixaQKnCsr0Re5uLg9+1Yt60ZlsmBSRi41waepfAtetMTicAqKqrp3H3flwvOLHmF5S0f9fW/Rkmr5zj3PBVQjeizABsNlO/o5HnfnQYp91CVaHveNmvK1Bgz2Oqrudp23O4frIf+2NFzrNltnYhZoVSASYE7RaYAHbmLZB3oUotv8YbuSgz1p1OrGEnPekLbN/wLgZaC11e4wS63PhxLa/WZkOJ4vvPZ9j1206slXl8bSw7WnA/U7Pg4UQszHt/DOLvC3Lhj8f5/estCpRlErt8lAO9wdQFbouF+u2pA+fO7UmCQ16CQ36cvxzAs3fhftT+XQOzEU53HMH3aQIwYX6ynvpHgNkYkzdGmLwxwumdnbw16KZ+8yq8DoBa7D9qpr4q//F/4faV9whe7mf8cqB0gbGMDBFiMgHG3jta5IKfcn3QhvezVJh5iFtTNL2GOmx5tTb5NUFZqp0MhEttZ3aNkBR124fXt4vzR6xU3uG1wXxrP51HCsftnplx+g+9iP9aH2dvODj6jPbWmrs7Qn9vkJnNdo6eOc7+J3OvWjMTPrq7ThPoO43ddhzHlrzXa/8+dJO/9eD7NIHlRwO8+TN7bq1WIsrIL49ybPg0x96x8+6h+hW/LqUOx//ZWfg6deQosd910/aLEL7XL/H8W/spEG/LquI79kYGbTT3hXCdCZcMMAC7drtgLMj1Ah17419EAQuW1epT0uRhNBwmHA4TvuzBDrjOpP8fDjPaa89+dwJdtrnOwQX/pJvQQn3NpZfTKKh52+3Y6yB6xsvpiUS5t0ZKqWrkYLsdSHDpo1vl3poNKT72HkGg8eWfLwgwAFU73XiO1MNsiPAnM8tbufbvKojw/tAU4OJofhABMFlo+bsenMDUtZtEV/y6palpPcz+zcDHISIVOO6kgmtiogS63HjHStRm5NvpwIWb4AdxduU9NXU7BE0OahdbR6E+OUNubEOpf9p7fTiW+hHmlKpVSfXvoNdDtM8Li9Q2SZYtDnpeqSd2yIf/+GkcQz1YF1SVSqUw11iAEAnlzbIwmVLB5avEvaLLWH58nvCPH2z92r8r9Sj/ZgswmyBxHyjU72WzHU84jGdVXrdEm7Zi2Q6E4d79B1nBw1W5NTFDXrxjLnzh5YzIseJoh9CV60xlPzwd4OwQuNyFOneGiMay/lvtZCBTw3LGlXqs3TdXwzLQumgMWrLU0O2zWC6H6fl2+sHb5zTUehn+7Y4OPB0WuO3HeyaCzp+VKkFk7CoA9rrVO4Zk6apsDlo2w+Svj+G9GCG2qgeL9u/K1WP/vgW4wLGXfYRuL7U27EFft0TT4wTDwGYLlgosX1duiAHAz9llXsytXWHCg86sGpcI/fu8hNp99OR3Bt55EE8T+DsyTTX9RLKejlxbvXFJOSb6sdlsNF9xMJoX0kKfpSr7spuVFGhKMWF1e3DXQXRIzUoVaTZGZOgY3UNTUOfi8N4KPBNuBFsc9L7ZQ6NpksAv3bQ22djT9iLHXvcTuBEl/qCHjvbvqqlvH+Dk9+u5d+M03W17sO1u5sArJzl9cYTJPxffQQ/6upLuJ4jfHqG/5wQhTNj/bj/WChx5VrnNSe0+wl3Qb2vG1kfhTr05Q/+yh1Zn2Im+fRZ/0TlnSjXzxIl+lv7nkBvb0EpHCWV3CLbjuRwuWMNk39vLwOD850x1ak59B1Dke9joTFY6/sHNVTUrlVdWs2shVc908kafW/umjEzbXbwx6iQaeo93fx/g/RvjjPx2nJHf9gMmzLs7OP6am8ZCpxjt34dvUw2O187zx0MR3hu+wMiVEONXLzB59QI+gC1W9nd56Gm15A5keNDXARDCu89G/tVzzuZ6nL3H+XlrpXXpTam8EFNtIdWyCmClJxymJx0AFoSZnT2EwwdT4YDCQ6wtLwwQfpDOvNPXCWLHTohQu4/RurM0dwUYHczvbbMEc2GrRBAqMlrJ3DpAuDV7Pc3Ybi9/IsD1zrSjA0/HVdxn/HjPODjfpdFKay5nCG6C2I0AIx/PYN7pprevA3uN9khF2FSFZfd+ju7ez1EgMR3l5gfvEfjdu4xcO82L4Zt43h7AmX/N0v5dM6YaK84jVpxHgMQMsc9CXB9+j7OXQ1zo+yHjt30Fz3EP9rq8IdZ3JwlcDhGfraelt5eff7e+8Lw0lSJZcW4mTzU0JBsGbhZ/7qeXknfmHruTvPTT1PI3B+afuxPoSjY0dCUvfZlMJj86lWxoaCj5pytwJ/edBhqSXYFLWduSeu+uwM3U+2Vvw5eXkl0NDclTH82/Puf9lyK9jvztkEIK/Q6SyeS9m8lf/6Ah2dDQljz10b2573TBcrK6MsdXgWN26r93JZ9taEg++3/8OnnzX8uwbbIsc/vr5IfJe5kHtX8rx1cfJk/9oCHZ0HAo+c4XK31d+tpZ6Do1t/xfJ1/5w9TqbPtDUoF9YmqxNAGfRVnYEyRVMxMuMvuq9QUP9iJDrCF3CPT8Hx+uBUtGCA65ONxqyX3vMy5CV4KpIWpjXprzhkfP961JDQvPXl//IsOmlzPEWn1kijBZ6fwvnViI4j9+msgq92+T5av5/q94s91C4lMfR44FiFXg6IaNIYK/bQ+29gslh9jWtLrYDyT+HGMph4/27+qJXzlG824bJ8dK9GGpamT/gUYgQiy+steVVNVIz6AH++YZgr3d9FdwX8MKDDFmdu21F53vBVJzx9gGM11wp4hmJp6r3oWjKYT37UjhFy5RfPgs/nbHwmafnT2EBw9igWXOE5MOX0X/ZAepVH+Z4ssuPl/Ohvakm+MvpUcr/TrInXJvz4ZnwvrScTrrIHHNy7GLy52lQlZHLVU1M/DJeQLhEhekmTgxgEceXeJ6tX9Xi3nrVmZm4cLb75UMgzPxGGDCtGllr1tUjZPjvS2YiOLv6ic0u8TXrbEKDDFg/rYDOyGCHxSKjOkOt0PB1Eii6ShRMsP60gFoKMj1B373COf6wPNCsT4nqc7AxWqD5pZqHSC8xOHh8eGz+EmFIF97CO/xQIFaKFmq+vbUSTV6LcRkuTdGYFM97v/SiQWI/MrLhdvl3qCNyMxzL+zHxBT+nx3h9I1Yak6RLInYOKf/ro8gJlr22Zd+6wDt39Wxw0nPDmDMS/cvAkzmDxe7P8PksJdjb05BXQd/s32Fr1uCqr0/53izCWYv8MpgqCKnsKi8jr2QrlEBb985Iq35HWHTNS+ZmpJYlBDgejx1yGU6wsaHux/svaejRNsP07NWd4ueDtDXF4LMEPCdPlw2N82DFnXefVDpk+p7Pz697Nkp5SF50s3xl97jwK8jnPzPF2g8sx9LJXcWXIdMTT2cf/UO7l8G8b3Uio8qLNtrUp0870TTN4M0Ud/xJr17F87oW5L278ptsrD/vw4Q++kr+Ie9HBj2Yqqux7IVIEHsk/RNHbc4OD7opn7TCl+3JFU4XjlOy/9zlJGLr9C/+48cbaqsDtwVWRMDZpzHPNjx4+7Kq5WYCOJnfkKl1O0EXDjy54B5UNVOBtYqPGTfZXnuPa30hH24htzY8j+7LF2mWUkqRqaGjI9P4lWzQxmYsLSd5OplH552B/VPmpj6ZJLJTyaZTNTSuM/N8d+OPvB9yLR/V4HZTs+5Ud59vYeWZ+qpTaT3zydTmJ50sP/VNxgdPUlL/sixB33dUmxx8PPeFkwkuPBq5TUrfSOZTCbLvRFF5cwD48J3BtwdfuZvrJiasr/QPDCpIdaW1JDmRW8lX2z+leLrz5EOI5Yz4YUT6hWUNWdM0XXPL+Na8npFREQ2jspsTsrIngdmzI+7I/Ww60y6r8l0lCj2+f4reWHF3tub0xRVOAykgsqalBvyQ1nJyfPSE/FNB+jeZ8MGqc7Ei/TFERER2Sgquyam7FapJiYrvDz4jLvZM/6udPZgERER41OIEREREUOq0I69IiIiIqUpxIiIiIghKcSIiIiIISnEiIiIiCEpxIiIiIghKcSIiIiIISnEiIiIiCEpxIiIiIghKcSIiIiIISnEiIiIiCEpxIiIiIghKcSIiIiIISnEiIiIiCEpxIiIiIghKcSIiIiIISnEiIiIiCE9Uu4NEGP4/PPPy70JIiIic7Zt26aaGBERETGmbySTyWS5N0JERERkuVQTIyIiIoakECMiIiKGpBAjIiIihqQQIyIiIoakECMiIiKGpBAjIiIihqQQIyIiIoakECMiIiKGpBAjIiIihqQQIyIiIoakECMiIiKGpBAjIiIihqQQIyIiIoakECMiIiKGpBAjIiIihqQQIyIiIoakECMiIiKGpBAjIiIihvRIuTdAJF/8hp9TvzlHcCJOgiose5wc/slhWp6sKrK8jxO/Okfw9gxsNmP964O82O2i0bzoOzHys+9xrO5Nwl3WVf8c69J0gO59XkKLLGbvHWWgdX4HzHw6wtnfnCVwNcoMJsw7HRz8ycu4nll0J8lauz/D5B/e4MSbl4hMJ2CLBUfrYV7saMGyudwbJ4uaHsf3q5Ocyz7WjryMy7Y+j7VvJJPJZLk3QiQlQeTMIY68OUlii5WWfTZqiBG+PELkrgl770UGWmsKLk+1nedb6zHFwgQuR5jZbMfz9gDOmqJvRux33bT9IkSi3acQs1TxIN6Xz3KryNN3bk8SnzXh/NUonj2p0BkfPUrba0FmNpux73NSv+VfmBy+RGg6gaXdx/kuK6a1+wRSUpyRV9s4dmWGqh0tOJ+pIfFpgEvX4iTqXPiGerAqyFSsxMc+Dr10mknSx5qp1PlznUiKVIov3kkeamhINvz0neTU11mP/+vN5KkfNCQbvnMi+eG9rMejqeWffflSzvL3PjqVbGtoSD779+8nvyr0Pl9/lbzpO5R8tqEh2dDQkGwYuPlwPs8Gk/ne2wZuJud2070Pkye+05Bs+N6p5IfZO+PrqeSll59NNjQcSr7zRRk2Vgq6FzqRfDZ/HyaTyalAV+px362ybZss4uvPk+/8bUOy4TtdyUtTWY/PnT9fS77/z2XbuodGfWKkYsQnJ7lXV8X+F56nZlPWE5utOH9YD7MXCH0y//DklfNEqKWjw5mzvGlnJ0d/ZCIxGiA4nfcm0+P4ulpx//oWlr126h/mB9pI7gbp6/ITrXPjOZJVszI5yc2/MmM94KQxuzVwUw3PtT0PRAh9FF/77ZUCZggOXyCBg8PtubVjNa0/p2cHRN96j8j9sm2glDJ5lfMfQ217Z24N9GYrna/sxzQ7QuDa+jvWFGKkYpj3ejh/8SpHm/IbFxLEopNAPTVbMo9FuXltCtjDjgVJxMRT33IAIcYjM1mPxwkcf5HTN8Dx6nne+pmDrQ/lk2w0CUJvHmNk1oL7HzqwZu++HS7O/3YU348sC1419eebANRuLdzXSdZYIkLkCmCzY92S/2QNT++uhdmrhP9Uhm2TRUU/fp8pYM/OhUUz03YbDiB04yYzC541NoUYqWyzMcbPdHPsIlS1Hua5uswTM8Q+AZosbNu08GVVW1PxJBq/k/P4o0908sblq5xss6gfxipJTJzm5MUEprYeOnYs4VtNxJkc9nLs15OYnuzB+Yz2REW4e4cpgO0WCvWc2GquA6a4cyexttslSzLz5SRgx/J4gSertqYKbH++w50CTxuZRidJhYrQb3PjT//P8uMB3uy2M1dmj8eIlnp5tYVGYPzL7HKHmZYu90PY1o0szns+P1NYOfqCfZFgGCfQ1Yx3LP3f3UcZ/uX+3KZDKZ8vpxgv8bS5xgKEmLozA6zPkS7GFSd2u9TzW7HYgHBMNTEiayJ+B1ObG3fHfuzVJqK/7aaty8/kbPr5+/dKv/4RVNOyFj4J4BsDU9thnq9bbOE73Nvqwt3homVHFVw7SdvfegnG1mJDZVH3E5SsY1GRt6Ld+7rUs4+u2xOifpZSmcwOOl91pP59pIfI4AHcQ/0cPWPl3S4rpk2Pln7915Q+IcsqSDD+hzNMUUtn62K1MAD17O9Nt9cf6aFzuJu2vgBHf2lldNCpsn25bTJhosRxU/IiKeX2aMmr+b11e0JUTYwYgAnrkR72A1MXr6fmKDHXsLCraJbpKONA/V+q0+hDk7jJ1d8noMaJ/QGGedW09tCzHRgLMr7+Bk0Yz1/W0lji6Xgs1YCrjtiVyExNyZrQO0TDwPYa1tveU4gRYzBZqLcBs5niRLqNdyya6oyYZ+ZOqvuaxazxRw/NJyEuzUJtq536B+rXYsGyM/Wvexq2W36ZgsFnUQplyjvx20AtW7eu03YJg9v6WCMQIlqoeXYm3aH3sa3rbkSmQoxUiBlCrx/gh3sPcKFQB7W7EUI5JYkannqmFrhK+JP8hRNEwiOAnUbreit3VI7o5DgJCg/pnFvmYjcH9jVxcqxAXfb9ST7+I0AtWxcM6ZU1t+kprM3AWIjxu/lPRrl5dQo278H2zTJsmyyq5j80UgtcDU8ueC7xcZgRwP7M06qJEXk4qrBaLUzdnaR/MEAsu2R+P8bIr94gCNjb/mauGane7sTCFGfO5C6fmDhN/0UwNTtxVK/hR9hQ4kzeSA3pfKpEu57F+jSJ6QQXXj9NZDb7mQSTb53gdAxq21toVOG+AlTRuKcFE0HODo0zk3VMxYb76f8ELIeew6rRZJXpm3acdTA1dJrAn7Men41w+vULsLkF5+711/NMHXulYlTt6eR46yRHh720fS+AY2/2vZPA0nqSn3836yB80oWn/T3cQ17avhdceO+klxzrrtRROab4PAxgoabUefFJF8dfus6hX/txt4Zw7N1DXda9k0w7OznZoXsnVYqqPZ38fHcQ79CLtH608N5Jnh9pjuuKtake1zEX73X48R5oJrjg3kmdONZhjaduACmV5f4M0dC7vPHmO1z/NE4icxfW9k72764pcLFLEB09zRu/CSz/LtaZOzLrBpAPID2PT5NnSSOL4hMXOPubd3nvRpQZoKrOgbPdxcHvWjGrZF9Z7scZP3+KN94O6i7WBpT40win38y7Y7zuYi0iIiJSWdQnRkRERAxJIUZEREQMSSFGREREDEkhRkRERAxJIUZEREQMSSFGREREDEkhRkRERAxJIUZEREQMSSFGREREDEkhRkRERAxJIUZEREQMSSFGREREDEkhRkRERAxJIUZEREQMSSFGREREDOmRcm+AlN8/Pfbvy70JIiKyDvy7P/+PNX0/1cSIiIiIIakmRuasdYIWEZH1oVw1+qqJEREREUNSTYwsyeeff17uTRARkQq1Jf33Wl4rtm3bphAjS7Nt27Zyb4KIiFSof0r/vdbXCjUniYiIiCEpxIiIiIghKcSIiIiIISnEiIiIiCEpxIiIiIghKcSIiIiIISnEiIiIiCEpxIiIiIghKcSIiIiIISnEiIiIiCEpxIiIiIghKcSIiIiIISnEiIiIiCEpxIiIiIghKcSIiIiIISnESIWL0G/rJ1LuzRDZYCKDNrqH4+XeDFlD8eFubIPGOtsqxEhlm44SxY+7K8BqnU4jgzZsNhv9E6u0wnUqPtyNzdZNYDr70Qj9NlvWiS71/xVf7KYDdKfXEx/uxraK+3sjSO2r1QwdEYJDEOpr1nGy5uIEupa2L1P7fXmFvMxvZeHvJc71KyEYcufs88LngcrxSLk3QKSkaie9vUGa+7ycm3DSs7PcG7RRpE9oTR52VZdYbLqWg2Ef52zN2PrseC4P4MxaPj7cTXNfqMiL55ePvO0l1ORhtNWMmV48V5pp7oLRQSfm1fxYskRWesI+sLnxd/TjCPdgXfQ1cQJdzXjHVuHtmzwbft+H+prpfzy8wnPewn1i7x0lHC70zZpxDoaxDNpwz+3zJZ4HykghRsouMmjDPbT4cv4OG/4Sz7vOrPSAlznT1wmOgb13V+kLSbUZM2Z6wmEODnfTvK8bsoKMuXWAcOv84qlQY8GXfVGc6Mc9ZMdzOXPRMuMc9BG1uekb3sVA60a+lD0sywkcfty2EkdefuBYYQCJDNpwf/aAL14XzDgHR6GrGe+1CD07F4+PpdcVxgmp2s59XiyPF94zqfOwC1/Yh2vIjbvLwugxlnYeKCOFGKkMKnlVlMjbXkK48C0jQOQHlqWJE/ClLpDefTa8+U/3NWPrS/9bv5HVt0aBI3WBXFhTJ8VkhY+04rWaoQIhcyXftZWDvXaity1MfXCWEHY8367co04hRipLurQQavcR7rLOlx6ya1km+rF1RHVCfFimA5wdAteZ4k0I9rraJa8udaFLXSwXPpeqDbD3jmbVuKRrCVBoMZaFF14gXdMG9t7eJR2v1q4w4YexeZUuc+4r8JTrTJiDqX/l1GIWqtlMPbayTTG3DjBAnEBXZTclgUKMVJj4B8FU8n8hfUjGooSw46jJWqbmIOEz57Dts+HNO6hlpeIEjqdqYQ7vLFH6y64hKWSuhJ/qIEq7BTPkdNaND3cvqRlRjKJ0E1Vosd9Mto1Y61btZCCcGwEzgcRSA3yxxtuz1CblMlOIkQqysBNZ5JofcGHJKgmYq81Q3UM4fJD4NDANZJcUSpRospXuY7NBw9HEuZyL0IImovR3S+8ovfTR3EfpGrHpKFHAtTv/m4xwri+EvdeDpc9LdHU/hSwqu9YkQr/NXbK/Wb5MzVlurcnCmpj5fhYb8FhasdQxQrsPZzUPOFpv4b4NZZ33SvUjnG9ShkCXrWJrRhVipHKkkz94abZl945YpGMhkNMGXKBEky3TkVgdgfNF6O9Y2qXM8rh5SSXDTM1adk1aipWecDj1nius+l7vSo/wyrWU2o7cpjvI7IueRdadOW4Wvr6IuWakgzkBpmDnblkgMujGjwtf10q+pfl9m/kd5Z73UiEn2jvK4eyXpZuUaXdgxUztXjv0Bbk+7ay4JnyFGKkc+eGjUH8YeUjiBLrc+Nt9jNadLd6mnt28t+Tq7VBep91MR0QXvrAj9UjBi29umF3yxXOdWUqH6cwF6uF8R5nS/HI6i2YCsYvDG3CfrVg6AC7sl1aoQFe4Y2+udC03EPV1Y3vicLrPYaqm1PK4GW7PL52qhZlv1jd/24EdL8EP4jgrbH8qxEjFKl6Kl9U3RRQPo11WGC6+VPyLKGDJad4rJecCPNfMl928ECGIOvZWrIl+bB3+ZfdRSdUilO4cLsVkAqAdyxf9dH9xMOvYeMCOvXO13GlDZwm8MICzQJ/Dgh2xqy1YAP/tKaiwI1IhRirUfMmh4NDbLGoWWg1WegZTp8Hibe+ZPksOlj42af61qQ7DYhzpi2lmpOAyXhdMd9gu3u+sUO1B2kbs1DsnXSOa/l/0dpTQUGrSu4MrWesHQUJNduxjISzuXhw04z0ewLI3v1AS5awvxMIaNCuOdvB/FiWOtaL2jUKMlFmcaKF5JibO4R2zY28KESpSIs90GnQowKyRKaJZoxWW1dFw4hzeMRee3ihe9YEpu+X0s2HIjW2RUWS5NWml+9ioT0wxWTWQZ6I0d0SxvDDAaF03zR39WHofdL2pDsKuXg/RsRBgxnnMQ3BflOAT84WSKQBChMYK16DV1tlhqPL6xSjESGV4wpIVUtIToDV56D3moG9fgVsOFOk0KA9PfPhsql/EIhNfxYe7ab7iyAqeqRK960yYXV90F3yN+sSsraVNTJjuC7Psmhh5INPXCWYKbBP9cw+bW3vx3D6X02dlOeLDZ/E3eRj9NswdYtVOBsJxAl3+1Ll3OkBfOqjae0cXnGttPgujgw8ymeXDpxAjZZYu3e+db6CID/fhHUtPQ19N6t5JOfdvSVdzN3no1UVtjSz9HipTt0MwxlyJLTKYvhDuhHiRzsDqEyMbXrWTgcFCT5hxdvUQH+5m+R1707UwZwYwE1i43sEwznQTVqpebmFH7PgXURiLVlwNTIbuYi3lld07HmA6QF9fCNoP59x/x9eeuZN1ZqSEC58ucGsnPX+My73U7zzVzp6a0G6lw0RFJMWFLxwmnP4z2msv8ljadJRok4eDJZrcU4VGF672Uu+79M78a001MVJWqRFIqdlh5zp/NqVHyWSxdo3i6Wqm2QapOWHUnr525jt4Lt6BOt3HqclC7XSAvj60rzaKzEimJSnRsTdNzYe5lnpvstzlitXupE30p+eOGeDgF9GCnbCnSNoGwwAAIABJREFUbocAy7K3d60oxEgZpZso2g9jnZuy3IUvnFfanzs52vH0WvD2+StyvoL1qtikW+bHLYCfaIz5GZMzQznbLZirrSUnHZQKl64lXfJ9snb2EA4vNmWeOvZWjOkA3R3+rD4wFiBKdBqsc7UumduGOCp2XynESPmkRyB5jlmJD3enA0zWiS2rZJddKnO29hAZtGGzsWD4Z2ZW0aUofduBlI0+fHt+duMCF5ydB/E0+fHmf48FatIyipXqltKxd2MPvV0LBW4/0ORhVIWFdShV6012bdfOg3iamhdOaVHieK4ECjFSNpFr/rn7gpBVBTo//DPV1lvo8LF2hQl3kQo6Njdztx3IPC4rl556fMFohTlF7lq8QO7FsdCIMjUdVIKl3X5A1oNCx+5Sj+fK8o1kMpks90ZIef3TY/8egH/35/9R5i0REZFULXR00ds8VFLTXLmuIwoxohAjIiIrUq7riIZYi4iIiCEpxIiIiIghKcSIiIiIISnEiIiIiCEpxIiIiIghKcSIiIiIISnEiIiIiCEpxIiIiIghKcSIiIiIISnEiIiIiCEpxIiIiIghKcSIiIiIISnEiIiIiCEpxIiIiIghKcSIiIiIISnEiIiIiCE9Uu4NEGP4/PPPy70JIiJSobak/17La8W2bdtUEyMiIiLGpJoYWZJt27aVexNERKRC/VP677W+VqgmRkRERAxJIUZEREQMSSFGREREDEkhRkRERAxJIUZEREQMSSFGREREDEkhRkRERAxJIUZEREQMSSFGREREDEkhRkRERAxJIUZEREQMSSFGREREDEkhRkRERAxJIUZEREQMSSFGREREDEkhRkRERAxJIUZEREQMSSFGREREDOmRcm+ASL6ZT0c4+5uzBK5GmQGq6hqxt7p5+UAj5k2ZpSL029z4F1tZu49wl3X+//fjjJ8/xRtvB4lMJ2CLhca9LnpeclJf9VA+zroVv+Hn1G/OEZyIk6AKyx4nh39ymJYn57/I+HA3zX2hRdZkx3N5AGf1w91eWcR0gO59XhbdW72jDLSa12STpITpcfz/7Q3O/TFCfBZM1fXsajnI4UMtBc9lSzuvGo9CjFSU2HA3bX0hEpvN2Nvc1G/5FyaHLzEy+CLBCQ8Xf+WkJn3Abd1eT32R9SRik0TvgmVL1tF8fxL/wUP0f5qgakcLrtYa+HOICxe9HLgcxPP2AM6ah/4R14EEk28d4dCvIyS2WGn5sZOaxCSBy36OXQ1x68x5enaaUotu3kr99iJ76es7RD+Nk9i8lar/de22XorYVFXymLpze5L4rImtVaY13SxZKDHRz4EOP1GqsO5z4ayB2I0AI0PHCF67hW+oB+vm+eWXc141nKRsePG/eiIZ/6snyr0ZyeQ/v5987TsNyYYfnEp++FXW419/lfxwoC3Z0NCQPPTu1OLrmbqU7PpOQ/LZly8lp76ef/hOoCvZ0NCQbBu4mbyXtfhXH5xKtjY0JJ89+WHO41LE5NlkW8PC7zfzvTd872zy1qIruZe8OdCWbGhoS576SN96pbv30alkW4FjR8rg61vJsz9oSDZ8pyt56Yvcp6b+e1fy2fxz2WqdVxdRruuI+sRIxYiPBRiZBcdPDtOYXR26qYrGQy/SAkSujRMvtZL7k/i6vISw0/tqbuli6nYIaMTVZiW7LFn1jIM9QOL349xaxc+zPs0Q/MfTRHHQ25tXeqtxcrjNBHfHuRVbZC1X+jgyFMXS4aFzp0r2Fe1ukL4uP9E6N54juceOlMEn73PmNtS2d+J8LPepmu930lEDiXdCc+eyVTmvVjA1J0nFmLpzB8uWemyFGnQ3V7F1CeuIXjzB6dsm7H29tOT3sTCZgBjxu0B2s1FihgRA3VbULWYR928RGQXanDi2LHza2jVGuGuRdcyGeKNvhESdG49bF8XKliD05jFGZi24/6EDq3ZW2cW/jGOpNvH0dsv/3979xzZ9H34ef3Igd4ouJ3ZBTArHFLNePXHCY4qjbjFFI0MKMH3jVUvTapjcMKkOwi3JpkEngfPVkvR7bTgVJ7qmfLXg6ps6VUnRijN9IUg0VByORmOpYCREei1Gq+JTc/iGmi23WEWf+8MJ5Ifzk4A/n/B6SFHL5xfv+I0/fvn965Nhby55+cCELxFLcV81M7XEiGk4Kzt5/0InFQXT96WiF+kCbE/bmXFI4VCYwLEYbKqjrnT6Uc6yV3DnDNJW30wkkRq7cJye1wJ0YcP90o/JdFuQCb5MMAAUOezYkv2E6n2UbnXhcm3jhUMBej4dnuMCKWLtzXSN2Kj4tT4UzS51tY3m0yls5XVUbVJlmUHedj+dZ/s4XJyhPr64TDgKFNtZN7bpoe+rJqeWGDG/kRhtx7pI4eRwmXOGg1LE3gsSwUbFyz/FnmmQWr6HltNraK6upbas68H2vCJ8rSeoLrbq2/gxGorTDxTFu6g9HiK2toSdP/dhS0QzD+yddv45TnYMwqbDvPCsPhTNLcm5YIhBnBx+ya0WM7O7lyB8PEAMGxUv7Zw7lMzrvmp+CjFibiNxuo7uJ3Tbhru+KeO3CQDu9hKa68NxOEbod0fpum0jb+tP8Tzzb0klooTP9hOsf501/9xExXd0q56P/ndD2CuDnK950B1U93KY2t2NhGoCuC8cpijDSznQPUfQFPO4ESbYB7byffx0pvedmMO9JJE3amm8lMJeGaQuUyvNRPO9r1qAupPEvIb7aavaTfMlcB/q5FjZzPOfExe66AVKXto5w4djkvARH4Era/CeOM/5Nw5Tvb+auoYgFz/w40710rw3QGTkUf0yy0x+NU0Hp4xnWe+h7qADRrq4GE1NPyfVT7hjEPKr8KgVxuRS9P9rO4Oso6pMrTCmdi9B+Eg5tafi2F9s4cTU9+VUC7ivWoFCjJhS6vMuDj9/gOCn6/C8dpqWF+2zvDETXP7XGFBCybMzDM29/SFdfUB5HdWuKces99B0pARGujjXN9eYjifcSlu6HjYVZFxXwu4oAmDwzvTXMfXJRc6MwLoyNw61wphb6hoX/5iCfA/umRaOkexLRgjsKafxwijOg510HnLPunDdwu6r1qDuJDGdZF8z+2u6iOc4qX67Bd+mOeYMDfUTuQ5sL8GdYcYMAHfTA1LJyc34ps39VvrbyPBIhhYEeSB/A0VA5P+lyPhKfT3zqTevnCHFOjzF+lQ0vRuRdOCsVOA0q9TnXRza20xkxI7n1Rb8pbO3qCz4vmoRaokRU0ldDaTfaAUemt8LzuuNlvpsgAhQ9Kxz5inSq/PTK5EmEmRqaxn+cmxOomL97PIcuDcCl3rpvzt998DVi4AN+7enDiuMczOaAraxSRnG9OID/aSAbZtVWaaUCKcDDE6qOzrnDDCLua9ahUKMmEcizKGaEPECL2+97adknl21N2NnABubnp7lhIIteDYBF05yMjolxiQjvPX7XsjZgUczlOZg58flbqCXk7+PkLw3YdcXYdo6BqGgip2bppyWHCByA9j6XTbom73JJRm4MgC4+a7WHDCfkRiBsQU9/Z1BfBvn6BBa5H3VKvS9U0wiRX/n6+mBtXcjBA72Zz7MsY/WIyUTpg8mSXyaAtys+9Zs18+n4tUmopVHCe0v5dzmEna68iER5dxHMZIjdjyvVWdcwE0my/vJKzRfreXwqVr+4aKbn5Y5xqZYxxjOcVD9j97pXRCJW/QDFORbdj2KJ8cgt6IAdvJVWaaTOBsgdBvIuUnXkd10ZTxqJ690eHEu+r5qHQoxYhI3iZwaG2VxN85Ahq4KAFZP7wwa/RrAjn2upyDn76D5Azs9b5/knZ5eQu0pyMnD+aM66l+uwL3e6kPcHpOV+ZQcCdL57ElO/ss5zrSnHyzn3FXHgf/qpShTPdxLj6FxF6zLsFPMJjXCpAXTxCyS9F+Kpf93JMnAjZkeFlA09t/F31etYoVhGEa2CyHZ9X/X/0cA/v0X/yvLJRERESvK1ueIxsSIiIiIJSnEiIiIiCUpxIiIiIglKcSIiIiIJSnEiIiIiCUpxIiIiIglKcSIiIiIJSnEiIiIiCUpxIiIiIglKcSIiIiIJSnEiIiIiCUpxIiIiIgl6SnWct/4A7xERESsQC0xIiIiYkkrDMMwsl0IERERkYVSS4yIiIhYkkKMiIiIWJJCjIiIiFiSQoyIiIhY0qpbt25luwwiIiIiC7JhwwbNThIRERFrUneSiIiIWJJCjIiIiFiSQoyIiIhYkkKMiIiIWJJCjIiIiFiSQoyIiIhYkkKMiIiIWJJCjIiIiFiSQoyIiIhYkkKMiIiIWJJCjIiIiFiSQoyIiIhYkkKMiIiIWJJCjIiIiFiSQoyIiIhY0pMXYobC1LpqCQ9luyAiIiLyMJ68EANAhMamMMl5HJnsrsU1V+i5GsDlchG4ulTlExERkbmsynYBHk6ScE0pjX0z7C72c77VQ97EbWs91Nf3UtrQy+UhD561j6GYIiIisuQsHmLy8LRG8Yz9KdldS2kD+M+23A8nsVYXpR2Zz27c5aJx4oZMoUdMKEbA5SOEHd/bnVRvsmU+bChM7a5GIqrXR+tqAFdVaJYDcrFvLMJd7mXPT5zkrXxsJZMMUol+znS8T/jSZQaGUgDkFjgo2lqB9yUPzqlf7FS/j9e9YQYuvMM73ReJXIkzDJCTh2NTETtf3IfHbSc302u84PPmaAQAbGsdfM+1E+/LFbjXz3CfzTKLh5iJkly+EIFiP1smvAmdNVGiNdkrlTxKcYK/a2fLu9U4zfn+erJs2oHv2fxpm1OJKOc+6iXU0EvXR0388Y0dCpRZkjh7mN31vekPuNV2HBvTb5w7twfo7WiktyOE57UW/Nun16Pq9zEYidFWtZ/gpynARt4zDhyrgJEEA1d6GLjSQ9vmat5u9eHIWYLzAFiH+8VSHLlTt/+V2xfO0Xs2QP/Z8OxfGLPJWC6+PGPUFBYaNeE7GXdfayk0CguPG9cmbb1jnPlloVHYci3jOYZhGHfCNUZhYY1x5stZ/u5PjhuFhYXG8U8WU3BZuGvG8cJCo3Dsp/yta8ZopsPG/k0U/vKMkflfhSyJsX//s72PjK8+No7/rNAoLPyh8fqfMtaWPGp/OWccKiw0Cp+rMU4NfDVt91efnDT2PldoFD53xPjwLxN2qH4fm5u/L0vf05ovG3e+nrJz9JZx7nfl6f3Bm0tw3tjn3xyfb4N/qDF+WFhoFP7ilDH4ML/cI7JsBvYm/9RLBDclP8jwHWAozMkO8LbX4Zy0/TK9feDd6px+jpjfRjfuAoi3N9J2NZXt0shscovYU+kGUpz55Ga2S/NESvadoxco+tUrVDwz7Ws3uZt9+Pc7YCRC9Mbwwi6u+l0CMT7sGAS8HP61e3q3nM3Ojt/U4QEGL10j/tDnzU9+2T4qcoDrEWLzmQ3zmC2T7qQY7zREoDKYcaBu7L1GIkCkqhb7xPEyY9v5cxI2z9YAGpk+fiaDUJWLaT3HGo/x6Kwuoe6Qg8TeIKGmNko66nBOayoVs8jLtwMRUsqbWWGzpYPLV6nRGY+x/7yT6M8Xd33V78N6im+sBkZSpO4Bmca95LjxR6P4l+S8eVq5BvtGIAqj9xZzgUdrWYSYZPfJdHjo8OEaH8Q7Hh6uBvB1gLf9PPZgKY27XMTbo9SR3u4udhNpKMV1O0i0ZqYWGfekwcJiHv9uUxX+qov42kM0tpfQWePEhL22QopY30UA3AXrslyWJ1Ouq4QdOT30vHmUxpWvsK/MSf6SvVlUvw/Pgft5O21vdnH0V2toOvQC7oLpLWZLd948DfXTGwVy7NhN+G3c+t1JQ2EaGiKAl2A0SjQaJVg5tm98VH1lkLrN6ZlMwUo3ECYwtr2ltYVouzcdgGrmt3aMmIkNp8+PrwDiHepWMqWRBLGOo9R2DEKBl33bTXgnfBKsLqH+RB1FtgHCr/koK3axrfwAR98IEb4SJ7nYt47qd8k4Kltoft7B6JU2asu34dpayu5DzbSd7mHgi5kraLHnzepeiuTtHgJ1rxPBhvs3FThNOPPM4i0xScJNY11CGVy+lA4qE1tYnDUtrOuupbTYz/nx7ZvriLaDKxhncAjy1OJiLTYnVf/o46K6lbJrYktoBrnPVvNWg091k0W2jV7eOu8hHjnH+38M8+GVfnre7afn3QBgI29rFU1HfBRlyiGq30dvZT4lRzr5aG+Mc91d9FyI0H+xi4GLXQQBVjupqPFTV2af3OK82POAOYdL5Djw1DfxSlmGGWsmYO0QM3SZ3j437uIIkQxz3bfURIlO2zo2FfvpfZPHqWyuI9o6/RqDtyOAe6lKLI+ITd1K2TdpCm6KxJUwPdeHydvso76hCvfS9V3Iw1iZi31rBYe3VnAYSA3Fufanc4Q/eJ+eS20ciF7D/14LnqmfWarfx8aW78Sz34lnP5AaJvFZhMvd5zh5NkJXwwv03w5mvMct7rwpU6zvDhA+GyE54mBHfT2v/MSReV0ak7B2iFnroSXqIdbqyhhils78BvYCeNuj1G1+lGWRzMa6lS74CHY00ra1kzpzfnFYvr5fQfX+CePK9tdR/UEt5a8GOfQbONFerW/pJmRba6eorJqisuqx+orwemc/Ow8VTf6wU/1mhy2X/I07qNi4g4qD/QT2HiDUEeDM80Eq1i/FeQWU/OfqSWM+q8ePb9hPalUnzbvMezO1/piYWVxudeFyTf0ZW6Gww5dh39TnHyWJfwYTx9vM9HO+Xq01WWdzUv1P1diJE2pqI7bAWaKy9PKfP8aJSjupT4PsPxomYcLZDU+GGKHybbgqu2adYptf5qUCSH2RYD5vH9Xv0kleOErpVhfNfbOMYcktomJ3ERAjkXy482aVW0Rdqx93zjC99bUETDzWcFmHmC01mQLHefzFpMfKZAgjk1tRBon3AcV2NN7eIp7x0XTQDrdDNL7Zy51sl+eJZ8N5sInqAkhdauTo6YWuUiFLYx25+cNwo5NwdJYPpOEkCYBVT83zuqrfpZK3Zg3DI9D13rlZw+BwMgHYsK18uPPmlO+hqX4HNuKEagJERuZ53mO2rEPMQxuKEwfc27donRcLcVSmb6rxSxEGsl0YgZUOfP9UjR2IHWuk63a2C/QkymPnSxXYGCT06/20XUmk1xSZIJXop+03DfRiY8cu9/zvearfpbHJQ90moK+R2lfDDEydLnZvmIHuRo6eGISCKn688SHPm4fc7a/QVGqDkS4OtUYwY3uMtcfETBLC55qw1Fzxw18xvRieG3+mVYDFvMZuqud+3rbg1SnlEXnGR9PBc+x+M0bz77ooaq/AbuLBgsuRrbiOzt/ewfdaL8GDZQTJxb4xPz3u5U587GGQNhxVJ6jfvsB1RlS/D2+lnYr/3kLil4cIdTeyu7sR21oH9jUAKRI3xh7quLqEplYfjpUPed685FJyqIkd//MwPacPEdj6EYeLzTWAexm1xGRYJ+ZhjC2SR+U+LXJnRePdSmIa4y1kXG+mUd0OWWDDXt7MxbNB/JUlOJ6xMXhjgIEbAwyk1lG0y0fTu+fp3L+4mX2q3yWQ56bunfO8/0YdO551sC41Vj83BrE9U0LFb9/i/PlmdkwdZ7vY8+ZjdQmv1O/ARoqu35qvW2mFYRhGtgvxsGKtLnwdXoLR9LORYq0ufJ/NtNz/2OPHn55thd4YAZePEA+uOZdkdy2lDRHNThIREXlMlkV3krMmSrRmyp8f4nrpxxi48Z+dX4ARERGRx29ZtMSIiIjIk2cZjYkRERGRJ4lCjIiIiFiSQoyIiIhYkkKMiIiIWJJCjIiIiFiSQoyIiIhYkkKMiIiIWJJCjIiIiFiSQoyIiIhYkkKMiIiIWJJCjIiIiFiSQoyIiIhYkkKMiIiIWJJCjIiIiFiSQoyIiIhYkkKMiIiIWJJCjIiIiFjSqmwXQKzh1q1b2S6CiIjIfRs2bFBLjIiIiFjTCsMwjGwXQkRERGSh1BIjIiIilqQQIyIiIpakECMiIiKWpBAjIiIilqQQIyIiIpakECMiIiKWpBAjIiIilqQQIyIiIpakECMiIiKWpBAjIiIilqQQIyIiIpakECMiIiKWpBAjIiIilqQQIyIiIpakECMiIiKWpBAjIiIilqQQIyIiIpakECMiIiKWtCrbBRCZavjTHk7+/iThi3GGgdyCItxlPn61u4i8lVMOvpekv/M4b73XS2woBavtlJTtY9/eHThyM1x86vE5eTie3cmel/ex45lMJ0hGI3F62t/iZHcv8btgW+uk5KUDmesIYKif0P94i3c+ipEcAdtaB1t27Jm5niR7Flq3Yi5D/QSPNfPOxTjD2MjbXMKe/b/C68rLdskeiRWGYRjZLoTIuER3LeUNEVI5ebh3eXCs/isD3WeIDKWwbfVz+piH/PEbaSpG8Bf7afs0Re6mHXiezYdElPDZGMM5bvzvteDJn3DxkRiBSh+h20w/Hjve9k7qNtuy8WtbS6bX8YsIXecH4BkfJ9qrceY8ODx1NcDuqhBxcnHu8uDKh8SVMD3Xh6HAS7CjbtLxkkULrFsxl9T1IHsPtjHA2P3TliB6tofYXRvu+tO0lOXPfRGrMUTM4i8fGkeeKzQKf3bc+PirCdu//sr4uKXcKCwsNPa+P3h/8+D7e43CwkKjZsI2wzCM0U+OG+WFhcYPmz82RidsvxksNwoLf2jU/GHy8cafzxg1zxUahc+9bnw8asisRo2Pm39oFBYWGuUt1ya9vl/1j73u/+3yg+1f3zRO/qzQKHyuxjjz58lXGvxDjfHDDPUk2bLAuhVz+fqWceoXY++1ibe4v10zjv+s0Ch87ojx4V+yVrpHRmNixDSSfWF6RqDk5X0UTexiWJlL0d4D7ABil/pJpo/m5sAo9tUVVEz5dmHb7OGFjZA6FeHm/a0xPnw7DvlVVE/9NrLeQ/XedTDSReTGI/rllovhy4RPpSC/mqaDTia2W+W6qqkrh9TpLs4NjW288SHtt2FdZTWe9ZMvlf98NVX5U+tJsmahdSvmMnCRzutj77WJt7gcJ9WHKrCN9BC+lMxa8R4VhRgxjcE7d7CvduDKNEgiJ5c1kzbkUXKkk/cvHMY9tQcoleD2DWBjPvevlLxD8j/kYSt2YM/Qr5+7ehk2sz4K//s21wG2u3BMex1tfHejG4gw8FkKgOSXSexrbbg32jNcLJc8vezmscC6FXOJX/+QQWDbZse0fbaNLkqAyJVrDD/2kj1aGtgrpuGs7OT9ysz7UtGLdAG2p+3MNjwt9UU/odeO0kUunr07uf/RmVeC/90S/BnPSnC5ux9wY9eH6uxG/87/mcdhg3eGgTzytvvp3J75VeeLy4SjQLGddUtYRFmkBdatmMvwlwOAG/u3M+zMXZP+EvjFHe4Ay2ksvUKMmN9IjLZjXaRwcrjMmfmYqwFcVaGxP9jxtp6grnh+b9VE9+sEroOtvIKda5emyMtW/gaKgMhncZI4p3yUpbg10D+/69xLED4eIIaNipd26iPRDJaqbiULkiRuz7Z/DXYXEE0su5YYdSeJuY3E6Tq6n9BtG+76JioKMh+W/IuNiiofvnI3eTlxQjXlHOgYYK6G72RfM7UNEVIFXk7UuNHcpDnkufGU2qDvdRo+SEzalbraRvOpeXQ13EsSeaOWxksp7JUnqCvWq24KS1G3kjWjX8+29ymW681NLTFiXsP9tP2XWoKfgvtQJ8dmmR6Yt62aw9vS/19dMzZNtPUwbc73Z5w2neg+zO6GXoYLKmj5Z03znZ9cSg7WU3LlKL2vlrGte+JU9WF27q+AE10zn34vQfjIbhovDGN/sYUTUwaQSjY9ZN1KVj0166f5KHN+o7MotcSIKaU+7+Lw8wcIfroOz2unaXnRPv8Puxwn1b+uAAbp+lOGeS/3kkTe2E15Qy+jm6vp7DiMW/0Z85e/g+YPOvGXO7F93kOoPcS5vzp55d0gh1024pD561EyQmBPOY0XRnEe7KTzkFuLp5nNYutWsiyP/BlaqdPuEI8yebLDMqF/jmI6yb5m9td0Ec9xUv12C75NC3/b2QocFAH9U799jMTpOrqb5ksp7GVNtBzZ8WDxPJm/XAee3wbx/Hby5sQHA8A6vvf0lBEVn3dxaG8zkRE7nldb8JdqBLVpLbBuxRzWrC8CIsQTwNSxfcPpAb2sXzNllqf1qSVGTCV1NZAOMAUemt8LzhxghiMEKl9gW2VX+tvh1N3XI/QDjm9NOP9egvDR3TRfIt0SUK8As3ADhH6+DVfG131slle+B/d3Jm4OpwMMTqo7OhVgTGsRdSumkf+filgHXIwOTNuXuh6lB3A/+71l1xKjECPmkQhzqCZEvMDLW2/7KZntsy7XiXP9IMM3AgS6Jw9CJNHD62/2Am4qto1Psk4Re7OWxkvgPnKa4F6HxmIsih3H90fhRifh6MRmrhTxU+lZXs7KHQ/WGRmJEahpJIIbf2cQ30a96ua1wLoVc/mOG08BDHa0Ef5iwvaRGG1vdEHODjxbl18rmp6dJCaRov/YjzhwKv0QR0f+DB92jn20HilJT/9M9NJYc5jw7fRDzna6Jj8LyfNaC/7tY0noiy58zzcTw0beM3bWzNCRuvNQJ95Nj+L3W0aGeqgtP0pkZPqzkHK3N9H56oMWrsRpH2WvxdIP2iyYqSF7J690eJlh8rw8TguoWzGf+88py3lynp2kECMmESPg8hGa67BiP+dbPQ/WsBiOEzn1Fm1/uMzA2FOpnT/aw76XK3CvfxCEkt21lDZE5iyFtz1K3ebF/g5PkGQ/oZYHT6XOLSjB8/I+9m13kHv/Qy5JuKaUxr65LuYlGK1TiDGLedWtmFXq8x7aTpwkrKdYi4iIiJiXxsSIiIiIJSnEiIiIiCUpxIiIiIglKcSIiIiIJSnEiIiIiCUpxIiIiIglKcSIiIiIJSnEiIiIiCUpxIiIiIglKcSIiIiIJSnEiIiIiCUpxIiIiIglKcSIiIiIJSnEiIiIiCW86m2RAAAHy0lEQVQpxIiIiIglKcSIiIiIJSnEiIiIiCUpxIiIiIglKcSIiIiIJa26detWtssgIiIisiAbNmxghWEYRrYLIiIiIrJQ6k4SERERS1KIEREREUtSiBERERFLUogRERERS1KIEREREUtSiBERERFLUogRERERS1KIEREREUtSiBERERFLUogRERERS1KIEREREUtSiBERERFLUogRERERS1KIEREREUtSiBERERFLUogRERERS7JsiEl21+JyBYgt7VUJ17hw1YRJLui8GAGXC1frzKVJl7eW8NDDllFERETAsiEmySB23ITwzRIcFmPLdi/0NVK6xNcVERGRpbUq2wXILEbA5SM0n0M7fLg6ZjvASzBah3P8yq0ufLMeP5/ruvGfbcGzdj4FFJEnXfJKkNePvUPv7WHIycP5oz0cqPVSlJftkolYm0lDTJq7/jwtZRne5UNhat+z01LjnL5vghkDS7Gf860edP8QkUcrRax9L/tPDMBaNxVVDmyJKOGzAQ581I//vRY8+dkuo4h1WbQ7iXRLSYYun1iri9ruBY5oaXXNPL7magCXy0Xg6gLLNxSm1uXCNfZT2hABIjTuerAt/aNxMiLL1u0zBE4MwFY/p//YwuH91dQ1BDnf7sU+EuH1N3sZznYZRSxshWEYRrYLMbN0t1K8/jwtP7hM7a5G7O1R6jaTDgm7GmG8tWbsz5FiP8GjduJNvdhbH3Qj3b9iqwvfZ378TzfSOJ9upYzSXVTM0jXlHS/nmGR3LaUN9kldW1wN4KqKq2tKZJkaaPew+wRUd4TxbZy4J0X/sR9x4FSR3v8iD8HU3UnJ7pOEAO+3M3T8rPVQX99LAw+6jdz154mOBZqTfSEiNfYZu4221ESJ1qT/P33+5LEz910N4KoKTQslANy/xtgYnsog0Tm6uETkSRHn2qVBwMsmx9R9Nr77/RI41UN/bBjP9twslE/E+kwcYpJcvhABvJRsBjJ0ueR9206kqpTIlMG7rPXQchZqdzXS0L0l87gaEZFHapjEDaDYzoaV0/fmrlkDQDx5B1CIEVkM846JufoOjX3grt8zvXVkfLxJVSjd+jIeYK4GHoxtWeuhvt5NpKFBY05E5PFLJojPtn+tnSJg4EuNihFZLNO2xMQuhQAv+6a0ooSqXOmp1xm6bpJ/Tt8y4kPgXAt5ZfvwXujFPq+/MYTPNa9J3YsyeDsCxSWse2R/g4iYyr3R2fevAtvjKYnIsmXaEOOcNmZlfM8MY1cYDwp+ttwfJOekrnXikUnin830N84+JmZBZjynkVJX4/Stu1w0Mn0wsIhY2MqnZt//NaQeT0lEli3ThphJC95VBolGnfdnIM3cYuLGf3Ye6788bZ90zMTANM3mOqLRuoUVfeo54zOnUFAReWLk5WMHIjPtH4rTDzi+pfEwIotlwhCTJFxTSmOfG//ZKNGJUw/XemiJeh7i2oPE+4CnmRQs5m2Ri+Ql/9RLBC/++jiNwTB7tNCeyBNgDXYX0BdnEKa954fv3AHAnrfmcRdMZNkw4cDePDytUaLROdZOuBpY9EJx7oJ1Y4EoSvSsHzeMtfZEM/wE8abPwn90rvARTz9A0jVhwb2hMA0NEdz1e/CU7cPb18g7C104T0QsKJ/vPrsOuEj0xtR9KWLRHsBNkVMtMSKLZcIQM8FiV8ud6byrvYRwU/KDCVFkrYeWaBBvh2/aqr3pJ0/7CBX7OT9TqBoKUzve7dXRC0fT4Sc9rTtJuKmRyP0Byk7q2r2Eqpb66dsiYkYOtwc7g7S3h0nce7A9dbWNwGmwlXoo0UJ3Iotmwu6kRyc9e8mOfdpNw0ldNEpJq2vKeBsvwWhLxkHED7q9vASjUVoyHBFrHe8WmzBgeHMdwUoXvlkW4hORZeIZL/7Kc/g6Gin/h15+Wjb+7KQYwzlu/AdLtEKMyEMwd0vMkorxTkMEKksyh5KhMCenPUIgxMkZn8M03u2VeabU+Iwqb/v0FhxnzXn8NFI60/OaRGSZsOGs6eT9V71syYnR1R4k9NEg9l11vPWBHv4o8rDM/eykxUxvnmDiTKD0s4uY8pyS8daU6ccDUwb/zjy1e7LxWVXuOZ+JMvFxCVpVWEREZGHMHWIWa9rzjtJhpXd7Oiw8WHdm7qDxwIQp3zOeN3bMQmYxjQe1Rc58EhEReVItzxAjIiIiy94TNCZGRERElhOFGBEREbEkhRgRERGxJIUYERERsSSFGBEREbEkhRgRERGxJIUYERERsSSFGBEREbEkhRgRERGxJIUYERERsSSFGBEREbEkhRgRERGxJIUYERERsSSFGBEREbEcwzAUYkRERMR6RkdHFWJERETEeu7evcu/uXv3brbLISIiIjJvd+/eJZVKseqrr77i73//O6tXr+app55ixYoV2S6biIiIyCSGYTA6Ono/wHzzm99kxd/+9jdjeHiY0dFR7t27h2EY2S6niIiIyCQrVqxg5cqVPPXUU+Tm5vKNb3yDFYZhGKlUiq+//pp79+5lu4wiIiIiGa1cuZJVq1Zhs9kA0iEmy2USERERWTDNThIRERFLUogRERERS1KIEREREUtSiBERERFLUogRERERS1KIEREREUtSiBERERFLUogRERERS1KIEREREUtSiBERERFLUogRERERS1KIEREREUv6/+bMehodZkivAAAAAElFTkSuQmCC;" vertex="1" parent="1">
          <mxGeometry x="-480" y="240" width="561" height="541" as="geometry" />
        </mxCell>
      </root>
    </mxGraphModel>
  </diagram>
</mxfile>
